<svg id="Ebene_1" data-name="Ebene 1" xmlns="http://www.w3.org/2000/svg" viewBox="0 0 172.91 117.48"><defs><style>.cls-1{fill:#020a0a;}.cls-2{fill:#fff;}</style></defs><rect class="cls-1" width="172.91" height="117.48" rx="18.53"/><path class="cls-2" d="M22,19.59H43.07a2.87,2.87,0,0,1,2.87,2.88V33.68a2.87,2.87,0,0,1-2.87,2.87H22a2.87,2.87,0,0,1-2.87-2.87V22.47A3,3,0,0,1,22,19.59"/><path class="cls-2" d="M52.3,49H75a2.87,2.87,0,0,1,2.88,2.88V63.06A2.88,2.88,0,0,1,75,65.94H52.3a2.88,2.88,0,0,1-2.87-2.88V51.85A2.87,2.87,0,0,1,52.3,49"/><path class="cls-2" d="M22,55.49H43.07a2.87,2.87,0,0,1,2.87,2.87V69a2.87,2.87,0,0,1-2.87,2.88H22A2.87,2.87,0,0,1,19.14,69V58.36A3,3,0,0,1,22,55.49"/><path class="cls-2" d="M52.3,80.63H75A2.87,2.87,0,0,1,77.9,83.5V95A2.87,2.87,0,0,1,75,97.89H52.3A2.87,2.87,0,0,1,49.43,95V83.5a3,3,0,0,1,2.87-2.87"/><path class="cls-2" d="M98.19,75.78h20.6a2.87,2.87,0,0,1,2.88,2.88v4.09a2.87,2.87,0,0,1-2.88,2.87H98.19a2.87,2.87,0,0,1-2.87-2.87V78.66a3,3,0,0,1,2.87-2.88"/><path class="cls-2" d="M98.19,37.77h20.6a2.87,2.87,0,0,1,2.88,2.87V46.7a2.87,2.87,0,0,1-2.88,2.88H98.19a2.87,2.87,0,0,1-2.87-2.88V40.64a2.87,2.87,0,0,1,2.87-2.87"/><path class="cls-2" d="M128,19.59h23a2.88,2.88,0,0,1,2.88,2.88V33.68a2.87,2.87,0,0,1-2.88,2.87H128a2.88,2.88,0,0,1-2.88-2.87V22.47A2.78,2.78,0,0,1,128,19.59"/><path class="cls-2" d="M22,76.23H43.07a2.88,2.88,0,0,1,2.87,2.88V95a2.87,2.87,0,0,1-2.87,2.88H22A2.87,2.87,0,0,1,19.14,95V79.11A3,3,0,0,1,22,76.23"/><path class="cls-2" d="M98.19,19.59h20.6a2.87,2.87,0,0,1,2.88,2.88V31.4a2.87,2.87,0,0,1-2.88,2.88H98.19a2.87,2.87,0,0,1-2.87-2.88V22.47a2.87,2.87,0,0,1,2.87-2.88"/><path class="cls-2" d="M128,51.55h23a2.88,2.88,0,0,1,2.88,2.87V65.63a2.87,2.87,0,0,1-2.88,2.88H128a2.88,2.88,0,0,1-2.88-2.88V54.42A2.78,2.78,0,0,1,128,51.55"/><path class="cls-2" d="M98.19,89.26h20.6a2.87,2.87,0,0,1,2.88,2.88v3A2.87,2.87,0,0,1,118.79,98H98.19a2.87,2.87,0,0,1-2.87-2.87v-3a2.78,2.78,0,0,1,2.87-2.88"/><path class="cls-2" d="M22,40.19H43.07a2.87,2.87,0,0,1,2.87,2.88v5.75a2.87,2.87,0,0,1-2.87,2.88H22a2.87,2.87,0,0,1-2.87-2.88V43.07A2.87,2.87,0,0,1,22,40.19"/><path class="cls-2" d="M52.3,19.59H75.17a2.87,2.87,0,0,1,2.88,2.88V33.68a2.87,2.87,0,0,1-2.88,2.87H52.3a2.87,2.87,0,0,1-2.87-2.87V22.47a2.87,2.87,0,0,1,2.87-2.88"/><path class="cls-2" d="M98.19,53.06h20.6a2.87,2.87,0,0,1,2.88,2.88V69.42a2.88,2.88,0,0,1-2.88,2.88H98.19a2.88,2.88,0,0,1-2.87-2.88V55.94a2.78,2.78,0,0,1,2.87-2.88"/></svg>