<?xml version="1.0" encoding="utf-8"?>
<!-- Generator: Adobe Illustrator 25.2.1, SVG Export Plug-In . SVG Version: 6.00 Build 0)  -->
<svg version="1.1" id="Ebene_1" xmlns="http://www.w3.org/2000/svg" xmlns:xlink="http://www.w3.org/1999/xlink" x="0px" y="0px"
	 viewBox="0 0 112.3 75.7" style="enable-background:new 0 0 112.3 75.7;" xml:space="preserve">
<style type="text/css">
	.st0{fill:#010202;stroke:#FFFFFF;stroke-width:2.2677;stroke-miterlimit:10;}
	.st1{clip-path:url(#SVGID_2_);fill:#FFED00;}
	.st2{clip-path:url(#SVGID_2_);fill:#E6007E;}
	.st3{clip-path:url(#SVGID_2_);fill:#009FE3;}
	.st4{clip-path:url(#SVGID_2_);fill:#FFFFFF;}
	.st5{fill:#010202;}
	.st6{clip-path:url(#SVGID_4_);}
	.st7{fill:#FFED00;}
	.st8{fill:#E6007E;}
	.st9{fill:#009FE3;}
</style>
<g>
	<path class="st5" d="M101,75.7H11.3C5.1,75.7,0,70.6,0,64.4V11.3C0,5.1,5.1,0,11.3,0H101c6.2,0,11.3,5.1,11.3,11.3v53.1
		C112.3,70.6,107.3,75.7,101,75.7z"/>
</g>
<g>
	<defs>
		<rect id="SVGID_3_" x="-17.5" y="-24.7" width="147.4" height="147.4"/>
	</defs>
	<clipPath id="SVGID_2_">
		<use xlink:href="#SVGID_3_"  style="overflow:visible;"/>
	</clipPath>
	<g style="clip-path:url(#SVGID_2_);">
		<path class="st7" d="M13.6,12h13.9c1,0,1.9,0.8,1.9,1.9v7.4c0,1-0.8,1.9-1.9,1.9H13.6c-1,0-1.9-0.8-1.9-1.9v-7.4
			C11.7,12.9,12.6,12,13.6,12"/>
	</g>
	<g style="clip-path:url(#SVGID_2_);">
		<path class="st7" d="M33.6,31.4h15c1,0,1.9,0.8,1.9,1.9v7.4c0,1-0.8,1.9-1.9,1.9h-15c-1,0-1.9-0.8-1.9-1.9v-7.4
			C31.7,32.2,32.6,31.4,33.6,31.4"/>
	</g>
	<g style="clip-path:url(#SVGID_2_);">
		<path class="st8" d="M13.6,35.7h13.9c1,0,1.9,0.8,1.9,1.9v7c0,1-0.8,1.9-1.9,1.9H13.6c-1,0-1.9-0.8-1.9-1.9v-7
			C11.7,36.6,12.6,35.7,13.6,35.7"/>
	</g>
	<g style="clip-path:url(#SVGID_2_);">
		<path class="st8" d="M33.6,52.3h15c1,0,1.9,0.8,1.9,1.9v7.6c0,1-0.8,1.9-1.9,1.9h-15c-1,0-1.9-0.8-1.9-1.9v-7.6
			C31.7,53.2,32.6,52.3,33.6,52.3"/>
	</g>
	<g style="clip-path:url(#SVGID_2_);">
		<path class="st8" d="M63.9,49.1h13.6c1,0,1.9,0.8,1.9,1.9v2.7c0,1-0.8,1.9-1.9,1.9H63.9c-1,0-1.9-0.8-1.9-1.9V51
			C62,50,62.9,49.1,63.9,49.1"/>
	</g>
	<g style="clip-path:url(#SVGID_2_);">
		<path class="st8" d="M63.9,24h13.6c1,0,1.9,0.8,1.9,1.9v4c0,1-0.8,1.9-1.9,1.9H63.9c-1,0-1.9-0.8-1.9-1.9v-4
			C62,24.9,62.8,24,63.9,24"/>
	</g>
	<g style="clip-path:url(#SVGID_2_);">
		<path class="st7" d="M83.6,12h15.2c1,0,1.9,0.8,1.9,1.9v7.4c0,1-0.8,1.9-1.9,1.9H83.6c-1,0-1.9-0.8-1.9-1.9v-7.4
			C81.7,12.8,82.5,12,83.6,12"/>
	</g>
	<g style="clip-path:url(#SVGID_2_);">
		<path class="st7" d="M13.6,49.4h13.9c1,0,1.9,0.8,1.9,1.9v10.5c0,1-0.8,1.9-1.9,1.9H13.6c-1,0-1.9-0.8-1.9-1.9V51.3
			C11.7,50.3,12.6,49.4,13.6,49.4"/>
	</g>
	<g style="clip-path:url(#SVGID_2_);">
		<path class="st9" d="M63.9,12h13.6c1,0,1.9,0.8,1.9,1.9v5.9c0,1-0.8,1.9-1.9,1.9H63.9c-1,0-1.9-0.8-1.9-1.9v-5.9
			C62,12.9,62.8,12,63.9,12"/>
	</g>
	<g style="clip-path:url(#SVGID_2_);">
		<path class="st9" d="M83.6,33.1h15.2c1,0,1.9,0.8,1.9,1.9v7.4c0,1-0.8,1.9-1.9,1.9H83.6c-1,0-1.9-0.8-1.9-1.9V35
			C81.7,33.9,82.5,33.1,83.6,33.1"/>
	</g>
	<g style="clip-path:url(#SVGID_2_);">
		<path class="st9" d="M63.9,58h13.6c1,0,1.9,0.8,1.9,1.9v2c0,1-0.8,1.9-1.9,1.9H63.9c-1,0-1.9-0.8-1.9-1.9v-2
			C62,58.8,62.8,58,63.9,58"/>
	</g>
	<g style="clip-path:url(#SVGID_2_);">
		<path class="st9" d="M13.6,25.6h13.9c1,0,1.9,0.8,1.9,1.9v3.8c0,1-0.8,1.9-1.9,1.9H13.6c-1,0-1.9-0.8-1.9-1.9v-3.8
			C11.7,26.4,12.6,25.6,13.6,25.6"/>
	</g>
	<g style="clip-path:url(#SVGID_2_);">
		<path class="st9" d="M33.6,12h15.1c1,0,1.9,0.8,1.9,1.9v7.4c0,1-0.8,1.9-1.9,1.9H33.6c-1,0-1.9-0.8-1.9-1.9v-7.4
			C31.7,12.9,32.5,12,33.6,12"/>
	</g>
	<g style="clip-path:url(#SVGID_2_);">
		<path class="st7" d="M63.9,34.1h13.6c1,0,1.9,0.8,1.9,1.9v8.9c0,1-0.8,1.9-1.9,1.9H63.9c-1,0-1.9-0.8-1.9-1.9V36
			C62,34.9,62.8,34.1,63.9,34.1"/>
	</g>
</g>
</svg>
