<svg id="Ebene_1" data-name="Ebene 1" xmlns="http://www.w3.org/2000/svg" viewBox="0 0 170.08 114.65"><defs><style>.cls-1{fill:#ffed00;}.cls-2{fill:#ff008e;}.cls-3{fill:#00c2ff;}</style></defs><path d="M153,114.65H17.11A17.2,17.2,0,0,1,0,97.53V17.11A17.19,17.19,0,0,1,17.11,0H153a17.2,17.2,0,0,1,17.12,17.11V97.53A17.1,17.1,0,0,1,153,114.65Z"/><path class="cls-1" d="M20.6,18.17h21a2.89,2.89,0,0,1,2.88,2.88V32.26a2.89,2.89,0,0,1-2.88,2.88h-21a2.88,2.88,0,0,1-2.88-2.88V21.05a3,3,0,0,1,2.88-2.88"/><path class="cls-1" d="M50.89,47.56H73.6a2.87,2.87,0,0,1,2.88,2.87V61.64a2.88,2.88,0,0,1-2.88,2.88H50.89A2.87,2.87,0,0,1,48,61.64V50.43a2.87,2.87,0,0,1,2.88-2.87"/><path class="cls-2" d="M20.6,54.07h21A2.88,2.88,0,0,1,44.53,57v10.6a2.88,2.88,0,0,1-2.88,2.87h-21a2.87,2.87,0,0,1-2.88-2.87V57a3,3,0,0,1,2.88-2.88"/><path class="cls-2" d="M50.89,79.21H73.6a2.87,2.87,0,0,1,2.88,2.88V93.6a2.87,2.87,0,0,1-2.88,2.87H50.89A2.87,2.87,0,0,1,48,93.6V82.09a3,3,0,0,1,2.88-2.88"/><path class="cls-2" d="M96.78,74.36h20.59a2.87,2.87,0,0,1,2.88,2.88v4.09a2.88,2.88,0,0,1-2.88,2.88H96.78a2.88,2.88,0,0,1-2.88-2.88V77.24a3,3,0,0,1,2.88-2.88"/><path class="cls-2" d="M96.78,36.35h20.59a2.87,2.87,0,0,1,2.88,2.88v6.05a2.87,2.87,0,0,1-2.88,2.88H96.78a2.87,2.87,0,0,1-2.88-2.88V39.23a2.87,2.87,0,0,1,2.88-2.88"/><path class="cls-1" d="M126.61,18.17h23a2.88,2.88,0,0,1,2.88,2.88V32.26a2.88,2.88,0,0,1-2.88,2.88h-23a2.89,2.89,0,0,1-2.88-2.88V21.05a2.8,2.8,0,0,1,2.88-2.88"/><path class="cls-1" d="M20.6,74.82h21a2.88,2.88,0,0,1,2.88,2.87V93.6a2.88,2.88,0,0,1-2.88,2.87h-21a2.87,2.87,0,0,1-2.88-2.87V77.69a3,3,0,0,1,2.88-2.87"/><path class="cls-3" d="M96.78,18.17h20.59a2.88,2.88,0,0,1,2.88,2.88V30a2.87,2.87,0,0,1-2.88,2.87H96.78A2.87,2.87,0,0,1,93.9,30V21.05a2.88,2.88,0,0,1,2.88-2.88"/><path class="cls-3" d="M126.61,50.13h23A2.87,2.87,0,0,1,152.51,53v11.2a2.87,2.87,0,0,1-2.88,2.88h-23a2.88,2.88,0,0,1-2.88-2.88V53a2.79,2.79,0,0,1,2.88-2.88"/><path class="cls-3" d="M96.78,87.84h20.59a2.87,2.87,0,0,1,2.88,2.88v3a2.88,2.88,0,0,1-2.88,2.88H96.78a2.88,2.88,0,0,1-2.88-2.88v-3a2.78,2.78,0,0,1,2.88-2.88"/><path class="cls-3" d="M20.6,38.77h21a2.88,2.88,0,0,1,2.88,2.88V47.4a2.88,2.88,0,0,1-2.88,2.88h-21a2.87,2.87,0,0,1-2.88-2.88V41.65a2.87,2.87,0,0,1,2.88-2.88"/><path class="cls-3" d="M50.89,18.17H73.76a2.88,2.88,0,0,1,2.87,2.88V32.26a2.88,2.88,0,0,1-2.87,2.88H50.89A2.88,2.88,0,0,1,48,32.26V21.05a2.88,2.88,0,0,1,2.88-2.88"/><path class="cls-1" d="M96.78,51.64h20.59a2.88,2.88,0,0,1,2.88,2.88V68a2.87,2.87,0,0,1-2.88,2.88H96.78A2.87,2.87,0,0,1,93.9,68V54.52a2.79,2.79,0,0,1,2.88-2.88"/></svg>