<svg xmlns="http://www.w3.org/2000/svg" viewBox="0 0 583.28 103.1"><defs><style>.cls-1{fill:#020a0a;}.cls-2{fill:#ffed00;}.cls-3{fill:#e6007e;}.cls-4{fill:#009fe3;}</style></defs><g id="Ebene_1" data-name="Ebene 1"><path class="cls-1" d="M199.43,72.53H175.87V31.62h23.56v7.11H184.54v9H198.4V54.8H184.54V65.37h14.89Z"/><path class="cls-1" d="M214.74,72.53,202.82,41.24h8.92l6,17.83a25.17,25.17,0,0,1,.8,3.3c.19,1.16.33,2.2.4,3.11h.23a22.56,22.56,0,0,1,.4-3.16,24.7,24.7,0,0,1,.86-3.25l6-17.83h8.93L223.5,72.53Z"/><path class="cls-1" d="M252.8,40.66a15.78,15.78,0,0,1,7.48,1.66,11.7,11.7,0,0,1,4.85,4.83,16.29,16.29,0,0,1,1.7,7.72V59H246.64a8.17,8.17,0,0,0,2.17,5.66,7.53,7.53,0,0,0,5.64,2.06,22.61,22.61,0,0,0,5.49-.62,27.69,27.69,0,0,0,5.12-1.84v6.6a19.72,19.72,0,0,1-4.86,1.68,29.46,29.46,0,0,1-6.14.53,18.92,18.92,0,0,1-8.32-1.73,12.77,12.77,0,0,1-5.69-5.29,17.6,17.6,0,0,1-2.05-9,20,20,0,0,1,1.86-9.13,12.51,12.51,0,0,1,5.19-5.49A15.89,15.89,0,0,1,252.8,40.66Zm.06,6.07a5.69,5.69,0,0,0-4.13,1.59,7.57,7.57,0,0,0-1.89,5h12a8.73,8.73,0,0,0-.69-3.38,5.44,5.44,0,0,0-2-2.35A6,6,0,0,0,252.86,46.73Z"/><path class="cls-1" d="M291.53,40.66a11.68,11.68,0,0,1,8.06,2.73c2,1.81,3.05,4.73,3.05,8.74v20.4h-8.53V54.26a8.85,8.85,0,0,0-1.22-5.07,4.36,4.36,0,0,0-3.82-1.7c-2.62,0-4.4.89-5.34,2.65s-1.43,4.33-1.43,7.67V72.53h-8.54V41.24h6.52l1.15,4h.48a8.48,8.48,0,0,1,2.5-2.63,10.86,10.86,0,0,1,3.33-1.49A15.6,15.6,0,0,1,291.53,40.66Z"/><path class="cls-1" d="M324.61,66.29a12.59,12.59,0,0,0,2.73-.28,22.33,22.33,0,0,0,2.64-.7v6.36a15.77,15.77,0,0,1-3.4,1,22,22,0,0,1-4.43.4,13,13,0,0,1-5-.91,6.92,6.92,0,0,1-3.5-3.16,12.73,12.73,0,0,1-1.27-6.28V47.65h-4.1V44l4.7-2.85,2.46-6.61h5.46v6.66h8.76v6.41H320.9V62.74a3.29,3.29,0,0,0,1,2.67A4,4,0,0,0,324.61,66.29Z"/><path class="cls-1" d="M345.52,72.53H337V31.62h23.45v7.11H345.52V49.28H359.4v7.08H345.52Z"/><path class="cls-1" d="M380.58,40.6q6.3,0,9.66,2.74t3.36,8.34V72.53h-6l-1.66-4.25h-.22A15.45,15.45,0,0,1,383,71a9.37,9.37,0,0,1-3.22,1.57,17,17,0,0,1-4.42.5,11.06,11.06,0,0,1-5-1.06A8,8,0,0,1,367,68.8a11.14,11.14,0,0,1-1.25-5.58c0-3.33,1.16-5.77,3.49-7.35s5.83-2.45,10.5-2.62l5.43-.17v-1.4a4.64,4.64,0,0,0-1.29-3.61,5.26,5.26,0,0,0-3.55-1.14,15.91,15.91,0,0,0-4.45.64,36.23,36.23,0,0,0-4.37,1.62l-2.82-5.76a24,24,0,0,1,5.58-2.07A26.67,26.67,0,0,1,380.58,40.6ZM385.12,58l-3.3.11c-2.77.07-4.68.57-5.76,1.48a4.5,4.5,0,0,0-1.61,3.61A3.17,3.17,0,0,0,375.6,66a4.89,4.89,0,0,0,3,.82,6.81,6.81,0,0,0,4.68-1.62,5.76,5.76,0,0,0,1.89-4.62Z"/><path class="cls-1" d="M410.92,29v8.87c0,1.55-.05,3-.15,4.42s-.19,2.39-.24,3H411a9,9,0,0,1,2.39-2.63,9.57,9.57,0,0,1,3.06-1.49,14.89,14.89,0,0,1,9.52.72,8.66,8.66,0,0,1,3.92,3.72,13.56,13.56,0,0,1,1.4,6.56v20.4h-8.54V54.26a8.7,8.7,0,0,0-1.23-5.07,4.4,4.4,0,0,0-3.81-1.7,6.38,6.38,0,0,0-4.06,1.18,6.47,6.47,0,0,0-2.09,3.5,21.45,21.45,0,0,0-.62,5.64V72.53h-8.54V29Z"/><path class="cls-1" d="M457.52,40.66a11.66,11.66,0,0,1,1.49.07,11,11,0,0,1,1.39.18l-.65,8a6,6,0,0,0-1.18-.21c-.52,0-1-.07-1.33-.07a12.35,12.35,0,0,0-3.21.42,8,8,0,0,0-2.75,1.36,6.54,6.54,0,0,0-2,2.46,8.75,8.75,0,0,0-.71,3.74V72.53H440V41.24h6.47l1.26,5.27h.42a12.82,12.82,0,0,1,2.31-2.93,11.34,11.34,0,0,1,3.16-2.13A9.47,9.47,0,0,1,457.52,40.66Z"/><path class="cls-1" d="M483.49,40.66A10.45,10.45,0,0,1,492,44.8q3.24,4.08,3.24,12a23,23,0,0,1-1.52,9,12.18,12.18,0,0,1-4.26,5.48,10.75,10.75,0,0,1-6.22,1.81,11.65,11.65,0,0,1-3.89-.57A9.6,9.6,0,0,1,476.62,71a12.3,12.3,0,0,1-2-2h-.45a22.15,22.15,0,0,1,.33,2.29c.07.77.11,1.54.12,2.3V86.3h-8.54V41.24H473l1.2,4.06h.4a11.92,11.92,0,0,1,2-2.32,9.23,9.23,0,0,1,2.89-1.69A11.41,11.41,0,0,1,483.49,40.66Zm-2.75,6.83a6,6,0,0,0-3.55.92,5.18,5.18,0,0,0-1.91,2.77,15.73,15.73,0,0,0-.65,4.67v.95a19.16,19.16,0,0,0,.57,5.12,5.85,5.85,0,0,0,1.93,3.19,5.74,5.74,0,0,0,3.74,1.09,4.71,4.71,0,0,0,3.21-1.09A6.7,6.7,0,0,0,486,61.9a18.71,18.71,0,0,0,.63-5.16c0-3.06-.48-5.36-1.42-6.91A4.87,4.87,0,0,0,480.74,47.49Z"/><path class="cls-1" d="M510.89,72.53h-8.54V29h8.54Z"/><path class="cls-1" d="M532.66,40.6q6.29,0,9.65,2.74t3.36,8.34V72.53h-6L538,68.28h-.23A15.45,15.45,0,0,1,535.05,71a9.37,9.37,0,0,1-3.22,1.57,17,17,0,0,1-4.42.5,11.06,11.06,0,0,1-5-1.06A7.81,7.81,0,0,1,519,68.8a11,11,0,0,1-1.26-5.58c0-3.33,1.16-5.77,3.5-7.35s5.83-2.45,10.49-2.62l5.43-.17v-1.4a4.64,4.64,0,0,0-1.29-3.61,5.22,5.22,0,0,0-3.62-1.14,15.91,15.91,0,0,0-4.45.64,37.53,37.53,0,0,0-4.37,1.62l-2.82-5.76a24,24,0,0,1,5.64-2.07A26.83,26.83,0,0,1,532.66,40.6ZM537.19,58l-3.3.11c-2.76.07-4.68.57-5.75,1.48a4.49,4.49,0,0,0-1.61,3.61A3.16,3.16,0,0,0,527.68,66a4.89,4.89,0,0,0,3,.82,6.81,6.81,0,0,0,4.6-1.62,5.76,5.76,0,0,0,1.89-4.62Z"/><path class="cls-1" d="M572.28,40.66a11.67,11.67,0,0,1,8,2.73c2,1.81,3,4.73,3,8.74v20.4h-8.54V54.26a8.76,8.76,0,0,0-1.21-5.07,4.4,4.4,0,0,0-3.82-1.7c-2.62,0-4.41.89-5.35,2.65A16.54,16.54,0,0,0,563,57.8V72.53h-8.53V41.24H561l1.15,4h.47a8.4,8.4,0,0,1,2.51-2.63,10.63,10.63,0,0,1,3.33-1.49A15.46,15.46,0,0,1,572.28,40.66Z"/><rect class="cls-1" x="1.22" y="1.22" width="148.1" height="100.62" rx="15.87"/><path class="cls-2" d="M20.07,18h18a2.45,2.45,0,0,1,2.46,2.45h0v9.6a2.46,2.46,0,0,1-2.41,2.5h-18a2.48,2.48,0,0,1-2.47-2.47h0V20.46A2.56,2.56,0,0,1,20.07,18"/><path class="cls-2" d="M46,43.16H65.47a2.47,2.47,0,0,1,2.47,2.47v9.59a2.46,2.46,0,0,1-2.45,2.47H46a2.47,2.47,0,0,1-2.46-2.47V45.63A2.46,2.46,0,0,1,46,43.16h0"/><path class="cls-3" d="M20.07,48.74h18a2.45,2.45,0,0,1,2.46,2.45h0v9.08a2.46,2.46,0,0,1-2.45,2.47h-18a2.48,2.48,0,0,1-2.47-2.47V51.2a2.56,2.56,0,0,1,2.47-2.46"/><path class="cls-3" d="M46,70.23H65.47a2.48,2.48,0,0,1,2.47,2.47v9.89a2.46,2.46,0,0,1-2.45,2.47H46a2.46,2.46,0,0,1-2.46-2.47V72.74A2.57,2.57,0,0,1,46,70.23"/><path class="cls-3" d="M85.32,66.12H103a2.47,2.47,0,0,1,2.47,2.46v3.5A2.48,2.48,0,0,1,103,74.52H85.32a2.48,2.48,0,0,1-2.47-2.47V68.58a2.58,2.58,0,0,1,2.47-2.46"/><path class="cls-3" d="M85.32,33.56H103A2.47,2.47,0,0,1,105.43,36v5.19A2.47,2.47,0,0,1,103,43.68H85.32a2.47,2.47,0,0,1-2.47-2.46V36a2.48,2.48,0,0,1,2.47-2.47"/><path class="cls-2" d="M110.88,18h19.7A2.46,2.46,0,0,1,133,20.45h0v9.6a2.47,2.47,0,0,1-2.43,2.5H110.89a2.46,2.46,0,0,1-2.46-2.45V20.46A2.37,2.37,0,0,1,110.71,18h.17"/><path class="cls-2" d="M20.07,66.51h18A2.45,2.45,0,0,1,40.52,69V82.59a2.45,2.45,0,0,1-2.45,2.47h-18a2.47,2.47,0,0,1-2.47-2.47V69a2.57,2.57,0,0,1,2.47-2.47"/><path class="cls-4" d="M85.32,18H103a2.47,2.47,0,0,1,2.47,2.46V28.1A2.48,2.48,0,0,1,103,30.57H85.32a2.48,2.48,0,0,1-2.47-2.47V20.46A2.47,2.47,0,0,1,85.31,18h0"/><path class="cls-4" d="M110.88,45.4h19.7A2.46,2.46,0,0,1,133,47.86v9.57a2.47,2.47,0,0,1-2.46,2.47h-19.7a2.46,2.46,0,0,1-2.47-2.45V47.83a2.4,2.4,0,0,1,2.34-2.44h.13"/><path class="cls-4" d="M85.32,77.67H103a2.47,2.47,0,0,1,2.47,2.46V82.7A2.47,2.47,0,0,1,103,85.16H85.32a2.47,2.47,0,0,1-2.47-2.46V80.13a2.39,2.39,0,0,1,2.32-2.46h.15"/><path class="cls-4" d="M20.07,35.64h18a2.45,2.45,0,0,1,2.46,2.45h0V43a2.47,2.47,0,0,1-2.46,2.47h-18A2.49,2.49,0,0,1,17.6,43V38.1a2.47,2.47,0,0,1,2.47-2.46"/><path class="cls-4" d="M46,18H65.6a2.46,2.46,0,0,1,2.47,2.45h0v9.6a2.47,2.47,0,0,1-2.42,2.5H46a2.47,2.47,0,0,1-2.46-2.47h0V20.46A2.45,2.45,0,0,1,46,18h0"/><path class="cls-2" d="M85.32,46.66H103a2.48,2.48,0,0,1,2.47,2.47V60.68A2.47,2.47,0,0,1,103,63.13H85.32a2.47,2.47,0,0,1-2.47-2.45V49.13a2.4,2.4,0,0,1,2.31-2.47h.16"/></g></svg>