<svg xmlns="http://www.w3.org/2000/svg" viewBox="0 0 305.7 188.05"><defs><style>.cls-1{fill:#020a0a;}.cls-2{fill:#fff;}.cls-3{fill:#ffed00;}.cls-4{fill:#e6007e;}.cls-5{fill:#009fe3;}</style></defs><g id="Ebene_2" data-name="Ebene 2"><rect class="cls-1" x="66.4" y="1.43" width="172.91" height="117.48" rx="18.53"/><path class="cls-2" d="M220.78,2.85A17.19,17.19,0,0,1,237.89,20v80.42a17.1,17.1,0,0,1-17.11,17.12H84.93a17.2,17.2,0,0,1-17.12-17.12V20A17.2,17.2,0,0,1,84.93,2.85H220.78m0-2.83H84.93A20,20,0,0,0,65,20v80.42a20,20,0,0,0,20,20H220.78a20,20,0,0,0,19.95-20V20A20,20,0,0,0,220.78,0Z"/><path class="cls-3" d="M88.41,21h21a2.88,2.88,0,0,1,2.88,2.88V35.11A2.88,2.88,0,0,1,109.46,38h-21a2.88,2.88,0,0,1-2.88-2.88V23.9A3,3,0,0,1,88.41,21"/><path class="cls-3" d="M118.7,50.41h22.72a2.87,2.87,0,0,1,2.87,2.87V64.49a2.88,2.88,0,0,1-2.87,2.88H118.7a2.88,2.88,0,0,1-2.88-2.88V53.28a2.88,2.88,0,0,1,2.88-2.87"/><path class="cls-4" d="M88.41,56.92h21a2.87,2.87,0,0,1,2.88,2.88V70.4a2.87,2.87,0,0,1-2.88,2.87h-21a2.87,2.87,0,0,1-2.88-2.87V59.8a3,3,0,0,1,2.88-2.88"/><path class="cls-4" d="M118.7,82.06h22.72a2.87,2.87,0,0,1,2.87,2.88V96.45a2.87,2.87,0,0,1-2.87,2.87H118.7a2.88,2.88,0,0,1-2.88-2.87V84.94a3,3,0,0,1,2.88-2.88"/><path class="cls-4" d="M164.59,77.21h20.6a2.87,2.87,0,0,1,2.87,2.88v4.09a2.88,2.88,0,0,1-2.87,2.88h-20.6a2.88,2.88,0,0,1-2.88-2.88V80.09a3,3,0,0,1,2.88-2.88"/><path class="cls-4" d="M164.59,39.2h20.6a2.87,2.87,0,0,1,2.87,2.88v6.05A2.87,2.87,0,0,1,185.19,51h-20.6a2.87,2.87,0,0,1-2.88-2.88V42.08a2.87,2.87,0,0,1,2.88-2.88"/><path class="cls-3" d="M194.42,21h23a2.88,2.88,0,0,1,2.87,2.88V35.11A2.88,2.88,0,0,1,217.45,38h-23a2.88,2.88,0,0,1-2.87-2.88V23.9A2.79,2.79,0,0,1,194.42,21"/><path class="cls-3" d="M88.41,77.67h21a2.87,2.87,0,0,1,2.88,2.87V96.45a2.87,2.87,0,0,1-2.88,2.87h-21a2.87,2.87,0,0,1-2.88-2.87V80.54a3,3,0,0,1,2.88-2.87"/><path class="cls-5" d="M164.59,21h20.6a2.88,2.88,0,0,1,2.87,2.88v8.94a2.87,2.87,0,0,1-2.87,2.87h-20.6a2.87,2.87,0,0,1-2.88-2.87V23.9A2.88,2.88,0,0,1,164.59,21"/><path class="cls-5" d="M194.42,53h23a2.87,2.87,0,0,1,2.87,2.88v11.2a2.87,2.87,0,0,1-2.87,2.88h-23a2.87,2.87,0,0,1-2.87-2.88V55.86A2.78,2.78,0,0,1,194.42,53"/><path class="cls-5" d="M164.59,90.69h20.6a2.87,2.87,0,0,1,2.87,2.88v3a2.88,2.88,0,0,1-2.87,2.88h-20.6a2.88,2.88,0,0,1-2.88-2.88v-3a2.78,2.78,0,0,1,2.88-2.88"/><path class="cls-5" d="M88.41,41.62h21a2.87,2.87,0,0,1,2.88,2.88v5.75a2.87,2.87,0,0,1-2.88,2.88h-21a2.87,2.87,0,0,1-2.88-2.88V44.5a2.87,2.87,0,0,1,2.88-2.88"/><path class="cls-5" d="M118.7,21h22.87a2.89,2.89,0,0,1,2.88,2.88V35.11A2.89,2.89,0,0,1,141.57,38H118.7a2.89,2.89,0,0,1-2.88-2.88V23.9A2.88,2.88,0,0,1,118.7,21"/><path class="cls-3" d="M164.59,54.49h20.6a2.88,2.88,0,0,1,2.87,2.88V70.85a2.87,2.87,0,0,1-2.87,2.88h-20.6a2.87,2.87,0,0,1-2.88-2.88V57.37a2.79,2.79,0,0,1,2.88-2.88"/></g><g id="Ebene_1" data-name="Ebene 1"><path class="cls-2" d="M17.68,177.72H0V147H17.68v5.34H6.51v6.74H16.9v5.33H6.51v7.91H17.68Z"/><path class="cls-2" d="M29.16,177.72l-8.94-23.47h6.7l4.53,13.37a18.35,18.35,0,0,1,.6,2.48c.15.87.25,1.64.3,2.33h.17a18,18,0,0,1,.31-2.37,17.46,17.46,0,0,1,.64-2.44L38,154.25h6.7l-9,23.47Z"/><path class="cls-2" d="M57.72,153.81a11.78,11.78,0,0,1,5.6,1.24A8.73,8.73,0,0,1,67,158.68a12.08,12.08,0,0,1,1.28,5.79v3.11H53.1a6.14,6.14,0,0,0,1.63,4.25A5.65,5.65,0,0,0,59,173.37a17,17,0,0,0,4.11-.46,21.21,21.21,0,0,0,3.84-1.38v4.95a15.54,15.54,0,0,1-3.64,1.26,22.51,22.51,0,0,1-4.61.4,14.24,14.24,0,0,1-6.24-1.3,9.63,9.63,0,0,1-4.27-4,13.36,13.36,0,0,1-1.54-6.72A15,15,0,0,1,48,159.3a9.47,9.47,0,0,1,3.89-4.12A11.86,11.86,0,0,1,57.72,153.81Zm0,4.55a4.25,4.25,0,0,0-3.1,1.2,5.63,5.63,0,0,0-1.41,3.76h9a6.32,6.32,0,0,0-.51-2.54A4.06,4.06,0,0,0,60.25,159,4.43,4.43,0,0,0,57.76,158.36Z"/><path class="cls-2" d="M86.78,153.81a8.73,8.73,0,0,1,6,2c1.53,1.37,2.29,3.55,2.29,6.56v15.31h-6.4V164a6.51,6.51,0,0,0-.92-3.8,3.27,3.27,0,0,0-2.86-1.28c-2,0-3.3.66-4,2a12.48,12.48,0,0,0-1.07,5.76v11H73.44V154.25h4.9l.86,3h.35a6.6,6.6,0,0,1,1.88-2,8.19,8.19,0,0,1,2.5-1.11A11.24,11.24,0,0,1,86.78,153.81Z"/><path class="cls-2" d="M111.59,173a9.9,9.9,0,0,0,2-.21,20.15,20.15,0,0,0,2-.53v4.77a12.44,12.44,0,0,1-2.56.77,17.14,17.14,0,0,1-3.32.3,10,10,0,0,1-3.77-.68,5.34,5.34,0,0,1-2.63-2.37,9.76,9.76,0,0,1-.95-4.72V159.05H99.33v-2.7l3.53-2.15,1.85-4.95h4.09v5h6.57v4.8H108.8v11.32a2.51,2.51,0,0,0,.77,2A3,3,0,0,0,111.59,173Z"/><path class="cls-2" d="M127.28,177.72h-6.4V147h17.59v5.34H127.28v7.91h10.41v5.31H127.28Z"/><path class="cls-2" d="M153.59,153.76q4.72,0,7.24,2.06t2.52,6.26v15.64h-4.47l-1.24-3.19h-.17a12.14,12.14,0,0,1-2.06,2.06,7,7,0,0,1-2.41,1.17,12.69,12.69,0,0,1-3.32.38,8.43,8.43,0,0,1-3.72-.8,5.89,5.89,0,0,1-2.6-2.44,8.36,8.36,0,0,1-.94-4.19A6.18,6.18,0,0,1,145,165.2c1.75-1.19,4.38-1.84,7.88-2l4.07-.12v-1a3.43,3.43,0,0,0-1-2.71,3.91,3.91,0,0,0-2.69-.86A11.76,11.76,0,0,0,150,159a25.1,25.1,0,0,0-3.28,1.22l-2.12-4.33a18.67,18.67,0,0,1,4.19-1.55A20.09,20.09,0,0,1,153.59,153.76Zm3.4,13.08-2.48.09c-2.07,0-3.51.42-4.31,1.11a3.38,3.38,0,0,0-1.21,2.71,2.41,2.41,0,0,0,.86,2.09,3.77,3.77,0,0,0,2.25.62,5.14,5.14,0,0,0,3.47-1.22,4.3,4.3,0,0,0,1.42-3.46Z"/><path class="cls-2" d="M176.35,145.05v6.66c0,1.16,0,2.26-.12,3.31s-.14,1.79-.18,2.23h.34a7,7,0,0,1,1.79-2,7.42,7.42,0,0,1,2.3-1.11,9.86,9.86,0,0,1,2.71-.35,10.21,10.21,0,0,1,4.43.89,6.4,6.4,0,0,1,2.94,2.79,10.14,10.14,0,0,1,1.05,4.92v15.31h-6.4V164a6.43,6.43,0,0,0-.93-3.8,3.29,3.29,0,0,0-2.85-1.28,4.79,4.79,0,0,0-3.05.89,4.87,4.87,0,0,0-1.57,2.63,16.51,16.51,0,0,0-.46,4.23v11h-6.41V145.05Z"/><path class="cls-2" d="M211.3,153.81c.33,0,.7,0,1.13.05a9.43,9.43,0,0,1,1,.13l-.49,6a4.36,4.36,0,0,0-.89-.16c-.38,0-.71-.05-1-.05a9.19,9.19,0,0,0-2.4.31,6,6,0,0,0-2.09,1,5,5,0,0,0-1.46,1.85,6.69,6.69,0,0,0-.53,2.8v11.95H198.2V154.25h4.85l.95,3.94h.31A10.3,10.3,0,0,1,206,156a8.58,8.58,0,0,1,2.38-1.6A7.1,7.1,0,0,1,211.3,153.81Z"/><path class="cls-2" d="M230.79,153.81a7.78,7.78,0,0,1,6.41,3.08q2.45,3.09,2.45,9.05a17.37,17.37,0,0,1-1.15,6.71,9.14,9.14,0,0,1-3.2,4.1,8.07,8.07,0,0,1-4.68,1.39,8.73,8.73,0,0,1-2.92-.43,7.46,7.46,0,0,1-2.08-1.11,9.83,9.83,0,0,1-1.49-1.46h-.33c.11.56.19,1.13.25,1.72a16.89,16.89,0,0,1,.08,1.72v9.47h-6.4v-33.8h5.21l.9,3h.29a8.67,8.67,0,0,1,1.54-1.74,6.72,6.72,0,0,1,2.17-1.27A8.34,8.34,0,0,1,230.79,153.81Zm-2.06,5.12a4.54,4.54,0,0,0-2.66.69,3.92,3.92,0,0,0-1.44,2.08,12.35,12.35,0,0,0-.5,3.51v.69a15.07,15.07,0,0,0,.43,3.84,4.45,4.45,0,0,0,1.45,2.39,4.35,4.35,0,0,0,2.81.82,3.54,3.54,0,0,0,2.41-.82,5,5,0,0,0,1.42-2.4,13.93,13.93,0,0,0,.47-3.87,10.1,10.1,0,0,0-1.07-5.19A3.63,3.63,0,0,0,228.73,158.93Z"/><path class="cls-2" d="M251.34,177.72h-6.4V145.05h6.4Z"/><path class="cls-2" d="M267.68,153.76q4.72,0,7.24,2.06t2.52,6.26v15.64H273l-1.24-3.19h-.17a12.1,12.1,0,0,1-2.05,2.06,7.07,7.07,0,0,1-2.42,1.17,12.64,12.64,0,0,1-3.32.38,8.46,8.46,0,0,1-3.72-.8,5.89,5.89,0,0,1-2.6-2.44,8.36,8.36,0,0,1-.94-4.19,6.18,6.18,0,0,1,2.62-5.51c1.75-1.19,4.38-1.84,7.88-2l4.07-.12v-1a3.43,3.43,0,0,0-1-2.71,3.9,3.9,0,0,0-2.68-.86,11.78,11.78,0,0,0-3.34.48,25.65,25.65,0,0,0-3.28,1.22l-2.12-4.33a18.67,18.67,0,0,1,4.19-1.55A20.09,20.09,0,0,1,267.68,153.76Zm3.4,13.08-2.48.09c-2.07,0-3.51.42-4.31,1.11a3.38,3.38,0,0,0-1.21,2.71,2.41,2.41,0,0,0,.86,2.09,3.79,3.79,0,0,0,2.25.62,5.14,5.14,0,0,0,3.47-1.22,4.3,4.3,0,0,0,1.42-3.46Z"/><path class="cls-2" d="M297.37,153.81a8.73,8.73,0,0,1,6,2c1.53,1.37,2.29,3.55,2.29,6.56v15.31h-6.4V164a6.52,6.52,0,0,0-.91-3.8,3.3,3.3,0,0,0-2.87-1.28q-2.94,0-4,2a12.48,12.48,0,0,0-1.07,5.76v11H284V154.25h4.89l.86,3h.35a6.72,6.72,0,0,1,1.88-2,8.3,8.3,0,0,1,2.5-1.11A11.24,11.24,0,0,1,297.37,153.81Z"/></g></svg>