<svg xmlns="http://www.w3.org/2000/svg" viewBox="0 0 583.17 102.77"><defs><style>.cls-1{fill:#fff;}</style></defs><g id="Ebene_1" data-name="Ebene 1"><rect x="1.21" y="1.21" width="147.63" height="100.3" rx="15.82"/><path class="cls-1" d="M20,17.93H37.93a2.44,2.44,0,0,1,2.46,2.44V30A2.44,2.44,0,0,1,38,32.44H20.05A2.46,2.46,0,0,1,17.59,30h0V20.4A2.55,2.55,0,0,1,20,17.93"/><path class="cls-1" d="M45.87,43H65.26a2.46,2.46,0,0,1,2.46,2.46V55a2.44,2.44,0,0,1-2.44,2.46H45.87A2.46,2.46,0,0,1,43.41,55V45.48A2.46,2.46,0,0,1,45.87,43h0"/><path class="cls-1" d="M20,48.58H37.93A2.45,2.45,0,0,1,40.39,51v9.07A2.45,2.45,0,0,1,38,62.55H20a2.46,2.46,0,0,1-2.45-2.46V51A2.55,2.55,0,0,1,20,48.58"/><path class="cls-1" d="M45.87,70H65.26a2.46,2.46,0,0,1,2.46,2.46v9.86a2.45,2.45,0,0,1-2.44,2.46H45.87a2.46,2.46,0,0,1-2.46-2.46V72.5A2.56,2.56,0,0,1,45.87,70"/><path class="cls-1" d="M85.05,65.91h17.58a2.46,2.46,0,0,1,2.46,2.45v3.5a2.46,2.46,0,0,1-2.46,2.42H85.05a2.46,2.46,0,0,1-2.46-2.46V68.36a2.55,2.55,0,0,1,2.46-2.45"/><path class="cls-1" d="M85.05,33.45h17.58a2.46,2.46,0,0,1,2.46,2.46v5.17a2.46,2.46,0,0,1-2.46,2.46H85.05a2.46,2.46,0,0,1-2.46-2.46V35.91a2.46,2.46,0,0,1,2.46-2.46"/><path class="cls-1" d="M110.52,17.93h19.64a2.46,2.46,0,0,1,2.46,2.46h0V30a2.45,2.45,0,0,1-2.42,2.49H110.54A2.45,2.45,0,0,1,108.08,30h0V20.4a2.38,2.38,0,0,1,2.28-2.47h.16"/><path class="cls-1" d="M20,66.3H37.93a2.44,2.44,0,0,1,2.46,2.44V82.33A2.45,2.45,0,0,1,38,84.79H20a2.46,2.46,0,0,1-2.45-2.46V68.76A2.55,2.55,0,0,1,20,66.3"/><path class="cls-1" d="M85.05,17.93h17.58a2.46,2.46,0,0,1,2.46,2.46V28a2.46,2.46,0,0,1-2.46,2.46H85.05A2.46,2.46,0,0,1,82.59,28V20.4A2.45,2.45,0,0,1,85,17.93h0"/><path class="cls-1" d="M110.52,45.25h19.64a2.47,2.47,0,0,1,2.46,2.46v9.54a2.48,2.48,0,0,1-2.46,2.46H110.52a2.46,2.46,0,0,1-2.46-2.45h0V47.68a2.39,2.39,0,0,1,2.34-2.43h.12"/><path class="cls-1" d="M85.05,77.42h17.58a2.46,2.46,0,0,1,2.46,2.45v2.56a2.46,2.46,0,0,1-2.46,2.46H85.05a2.46,2.46,0,0,1-2.46-2.46V79.87a2.38,2.38,0,0,1,2.31-2.45h.15"/><path class="cls-1" d="M20,35.53H37.93A2.43,2.43,0,0,1,40.39,38h0v4.91a2.46,2.46,0,0,1-2.46,2.46H20a2.46,2.46,0,0,1-2.45-2.46V38A2.45,2.45,0,0,1,20,35.53"/><path class="cls-1" d="M45.87,17.93H65.39a2.44,2.44,0,0,1,2.46,2.44V30a2.45,2.45,0,0,1-2.41,2.49H45.87A2.46,2.46,0,0,1,43.41,30h0V20.4a2.45,2.45,0,0,1,2.45-2.47h0"/><path class="cls-1" d="M85.05,46.51h17.58A2.46,2.46,0,0,1,105.09,49V60.48a2.45,2.45,0,0,1-2.46,2.45H85.05a2.45,2.45,0,0,1-2.46-2.45V49a2.39,2.39,0,0,1,2.3-2.46h.16"/><path d="M199.32,72.4H175.76V31.49h23.56V38.6H184.43v9h13.86v7.07H184.43V65.24h14.89Z"/><path d="M214.63,72.4,202.71,41.11h8.92l6,17.83a23.34,23.34,0,0,1,.8,3.3c.19,1.16.33,2.2.4,3.11h.23a24.67,24.67,0,0,1,1.26-6.41l6-17.83h8.93L223.39,72.4Z"/><path d="M252.69,40.53a15.78,15.78,0,0,1,7.48,1.66A11.58,11.58,0,0,1,265,47a16.17,16.17,0,0,1,1.7,7.72v4.15H246.53a8.22,8.22,0,0,0,2.17,5.66,7.56,7.56,0,0,0,5.64,2.06,22.56,22.56,0,0,0,5.49-.62A27.43,27.43,0,0,0,265,64.15v6.6a19.85,19.85,0,0,1-4.86,1.68A29.4,29.4,0,0,1,254,73a19,19,0,0,1-8.32-1.73,12.93,12.93,0,0,1-5.69-5.29,17.81,17.81,0,0,1-2.05-9,20,20,0,0,1,1.86-9.13,12.63,12.63,0,0,1,5.19-5.49A15.94,15.94,0,0,1,252.69,40.53Zm.06,6.07a5.72,5.72,0,0,0-4.13,1.59,7.67,7.67,0,0,0-1.89,5h12a8.55,8.55,0,0,0-.69-3.38,5.38,5.38,0,0,0-2-2.35A5.84,5.84,0,0,0,252.75,46.6Z"/><path d="M291.42,40.53a11.64,11.64,0,0,1,8.06,2.73c2,1.81,3,4.73,3,8.74V72.4H294V54.13a8.69,8.69,0,0,0-1.22-5.07,4.36,4.36,0,0,0-3.82-1.7c-2.61,0-4.39.89-5.34,2.65s-1.43,4.33-1.43,7.67V72.4h-8.54V41.11h6.52l1.15,4h.48a8.48,8.48,0,0,1,2.5-2.63A10.73,10.73,0,0,1,287.63,41,15.6,15.6,0,0,1,291.42,40.53Z"/><path d="M324.5,66.16a12.53,12.53,0,0,0,2.73-.28,23.85,23.85,0,0,0,2.64-.7v6.36a15.44,15.44,0,0,1-3.4,1,22.68,22.68,0,0,1-4.43.4,13,13,0,0,1-5-.91,7,7,0,0,1-3.5-3.16,13,13,0,0,1-1.27-6.28V47.52h-4.1V43.91l4.7-2.85,2.46-6.61h5.46v6.66h8.76v6.41h-8.76V62.61a3.35,3.35,0,0,0,1,2.67A4,4,0,0,0,324.5,66.16Z"/><path d="M345.41,72.4h-8.54V31.49h23.45V38.6H345.41V49.15h13.88v7.08H345.41Z"/><path d="M380.47,40.47q6.3,0,9.66,2.74t3.36,8.34V72.4h-6l-1.66-4.25h-.22a15.45,15.45,0,0,1-2.74,2.74,9.2,9.2,0,0,1-3.22,1.57,16.85,16.85,0,0,1-4.42.5,11.25,11.25,0,0,1-5-1.06,8,8,0,0,1-3.39-3.23,11.25,11.25,0,0,1-1.25-5.58c0-3.33,1.16-5.77,3.49-7.35s5.83-2.45,10.5-2.62L385,53v-1.4a4.57,4.57,0,0,0-1.29-3.61,5.23,5.23,0,0,0-3.55-1.14,16,16,0,0,0-4.45.64,37.53,37.53,0,0,0-4.37,1.62l-2.82-5.76a24.17,24.17,0,0,1,5.58-2.07A26.73,26.73,0,0,1,380.47,40.47ZM385,57.91l-3.3.11c-2.77.07-4.68.57-5.76,1.48a4.56,4.56,0,0,0-1.61,3.61,3.23,3.23,0,0,0,1.15,2.79,5,5,0,0,0,3,.82,6.83,6.83,0,0,0,4.68-1.62,5.73,5.73,0,0,0,1.89-4.62Z"/><path d="M410.81,28.86v8.87c0,1.55-.05,3-.15,4.42s-.19,2.39-.24,3h.45a9.24,9.24,0,0,1,2.39-2.63A9.67,9.67,0,0,1,416.32,41a14.82,14.82,0,0,1,9.52.72,8.61,8.61,0,0,1,3.92,3.72,13.56,13.56,0,0,1,1.4,6.56v20.4h-8.54V54.13a8.7,8.7,0,0,0-1.23-5.07,4.39,4.39,0,0,0-3.81-1.7,6.39,6.39,0,0,0-4.06,1.18,6.6,6.6,0,0,0-2.09,3.5,21.88,21.88,0,0,0-.62,5.64V72.4h-8.54V28.86Z"/><path d="M457.41,40.53a11.66,11.66,0,0,1,1.49.07,10.78,10.78,0,0,1,1.39.18l-.65,8a5.84,5.84,0,0,0-1.18-.21c-.52,0-1-.07-1.33-.07a12.46,12.46,0,0,0-3.21.42,8,8,0,0,0-2.75,1.36,6.74,6.74,0,0,0-2,2.46,9.06,9.06,0,0,0-.71,3.74V72.4h-8.54V41.11h6.47l1.26,5.27h.42a13.1,13.1,0,0,1,2.31-2.93,11.64,11.64,0,0,1,3.16-2.13A9.22,9.22,0,0,1,457.41,40.53Z"/><path d="M483.38,40.53a10.45,10.45,0,0,1,8.55,4.14q3.24,4.08,3.24,12a23.06,23.06,0,0,1-1.52,9,12.18,12.18,0,0,1-4.26,5.48A10.75,10.75,0,0,1,483.17,73a11.69,11.69,0,0,1-3.89-.57,9.73,9.73,0,0,1-2.77-1.48,13.16,13.16,0,0,1-2-2h-.45a25.38,25.38,0,0,1,.45,4.59V86.17H466V41.11h6.94l1.2,4.06h.4a12.64,12.64,0,0,1,2-2.32,9.23,9.23,0,0,1,2.89-1.69A11.48,11.48,0,0,1,483.38,40.53Zm-2.75,6.83a6,6,0,0,0-3.55.92,5.23,5.23,0,0,0-1.91,2.77,16.41,16.41,0,0,0-.65,4.67v1a20,20,0,0,0,.57,5.12A5.89,5.89,0,0,0,477,65a5.77,5.77,0,0,0,3.74,1.09A4.7,4.7,0,0,0,484,65a6.59,6.59,0,0,0,1.89-3.21,18,18,0,0,0,.63-5.16q0-4.59-1.42-6.91A4.85,4.85,0,0,0,480.63,47.36Z"/><path d="M510.78,72.4h-8.54V28.86h8.54Z"/><path d="M532.55,40.47q6.3,0,9.65,2.74t3.36,8.34V72.4h-6l-1.65-4.25h-.23a15.45,15.45,0,0,1-2.74,2.74,9.2,9.2,0,0,1-3.22,1.57,16.85,16.85,0,0,1-4.42.5,11.25,11.25,0,0,1-5-1.06,8,8,0,0,1-3.38-3.23,11.15,11.15,0,0,1-1.26-5.58c0-3.33,1.16-5.77,3.5-7.35s5.83-2.45,10.49-2.62l5.43-.17v-1.4a4.57,4.57,0,0,0-1.29-3.61,5.21,5.21,0,0,0-3.62-1.14,16,16,0,0,0-4.45.64,37.53,37.53,0,0,0-4.37,1.62l-2.82-5.76a24.17,24.17,0,0,1,5.64-2.07A26.89,26.89,0,0,1,532.55,40.47Zm4.53,17.44-3.3.11c-2.76.07-4.68.57-5.75,1.48a4.52,4.52,0,0,0-1.61,3.61,3.2,3.2,0,0,0,1.15,2.79,5,5,0,0,0,3,.82,6.84,6.84,0,0,0,4.6-1.62,5.73,5.73,0,0,0,1.89-4.62Z"/><path d="M572.17,40.53a11.65,11.65,0,0,1,8,2.73c2,1.81,3,4.73,3,8.74V72.4h-8.54V54.13a8.76,8.76,0,0,0-1.21-5.07,4.36,4.36,0,0,0-3.82-1.7c-2.62,0-4.4.89-5.35,2.65a16.54,16.54,0,0,0-1.37,7.66V72.4h-8.53V41.11h6.52l1.15,4h.47A8.51,8.51,0,0,1,565,42.48,10.51,10.51,0,0,1,568.33,41,15.58,15.58,0,0,1,572.17,40.53Z"/></g></svg>