<svg id="Ebene_1" data-name="Ebene 1" xmlns="http://www.w3.org/2000/svg" viewBox="0 0 305.7 43"><path d="M17.68,32.67H0V2H17.68V7.31H6.51v6.74H16.9v5.33H6.51v7.91H17.68Z"/><path d="M29.16,32.67,20.22,9.2h6.7l4.53,13.37a18.35,18.35,0,0,1,.6,2.48c.15.87.25,1.64.3,2.33h.17A18,18,0,0,1,32.83,25a17.46,17.46,0,0,1,.64-2.44L38,9.2h6.7l-9,23.47Z"/><path d="M57.72,8.76A11.78,11.78,0,0,1,63.32,10,8.73,8.73,0,0,1,67,13.63a12.08,12.08,0,0,1,1.28,5.79v3.11H53.1a6.14,6.14,0,0,0,1.63,4.25A5.65,5.65,0,0,0,59,28.32a17,17,0,0,0,4.11-.46,21.21,21.21,0,0,0,3.84-1.38v4.95a15.54,15.54,0,0,1-3.64,1.26,22.51,22.51,0,0,1-4.61.4,14.24,14.24,0,0,1-6.24-1.3,9.63,9.63,0,0,1-4.27-4,13.36,13.36,0,0,1-1.54-6.72A15,15,0,0,1,48,14.25a9.47,9.47,0,0,1,3.89-4.12A11.86,11.86,0,0,1,57.72,8.76Zm0,4.55a4.25,4.25,0,0,0-3.1,1.2,5.63,5.63,0,0,0-1.41,3.76h9a6.32,6.32,0,0,0-.51-2.54A4.06,4.06,0,0,0,60.25,14,4.43,4.43,0,0,0,57.76,13.31Z"/><path d="M86.78,8.76a8.73,8.73,0,0,1,6,2c1.53,1.37,2.29,3.55,2.29,6.56V32.67h-6.4V19a6.51,6.51,0,0,0-.92-3.8,3.27,3.27,0,0,0-2.86-1.28c-2,0-3.3.66-4,2a12.48,12.48,0,0,0-1.07,5.76v11H73.44V9.2h4.9l.86,3h.35a6.6,6.6,0,0,1,1.88-2,8.19,8.19,0,0,1,2.5-1.11A11.24,11.24,0,0,1,86.78,8.76Z"/><path d="M111.59,28a9.9,9.9,0,0,0,2-.21,19.25,19.25,0,0,0,2-.53V32a12.14,12.14,0,0,1-2.55.77,17.14,17.14,0,0,1-3.32.3,10,10,0,0,1-3.77-.68A5.34,5.34,0,0,1,103.35,30a9.76,9.76,0,0,1-.95-4.72V14H99.33V11.3l3.53-2.15,1.85-4.95h4.09v5h6.57V14H108.8V25.32a2.51,2.51,0,0,0,.77,2A3,3,0,0,0,111.59,28Z"/><path d="M127.28,32.67h-6.4V2h17.59V7.31H127.28v7.91h10.41v5.31H127.28Z"/><path d="M153.59,8.71q4.72,0,7.24,2.06T163.35,17V32.67h-4.47l-1.24-3.19h-.17a12.14,12.14,0,0,1-2.06,2.06A7,7,0,0,1,153,32.71a12.69,12.69,0,0,1-3.32.38,8.43,8.43,0,0,1-3.72-.8,5.89,5.89,0,0,1-2.6-2.44,8.36,8.36,0,0,1-.94-4.19A6.18,6.18,0,0,1,145,20.15c1.75-1.19,4.38-1.84,7.88-2l4.07-.12V17a3.43,3.43,0,0,0-1-2.71,3.91,3.91,0,0,0-2.69-.86,11.76,11.76,0,0,0-3.33.48,25.1,25.1,0,0,0-3.28,1.22l-2.12-4.33a18.67,18.67,0,0,1,4.19-1.55A20.09,20.09,0,0,1,153.59,8.71ZM157,21.79l-2.48.09c-2.07.05-3.51.42-4.31,1.11A3.38,3.38,0,0,0,149,25.7a2.41,2.41,0,0,0,.86,2.09,3.77,3.77,0,0,0,2.25.62,5.14,5.14,0,0,0,3.47-1.22A4.3,4.3,0,0,0,157,23.73Z"/><path d="M176.35,0V6.66c0,1.16,0,2.26-.12,3.31s-.14,1.79-.18,2.23h.34a7,7,0,0,1,1.79-2,7.42,7.42,0,0,1,2.3-1.11,9.86,9.86,0,0,1,2.71-.35,10.21,10.21,0,0,1,4.43.89,6.4,6.4,0,0,1,2.94,2.79,10.14,10.14,0,0,1,1.05,4.92V32.67h-6.4V19a6.43,6.43,0,0,0-.93-3.8,3.29,3.29,0,0,0-2.85-1.28,4.77,4.77,0,0,0-3.05.89,4.87,4.87,0,0,0-1.57,2.63,16.51,16.51,0,0,0-.46,4.23v11h-6.41V0Z"/><path d="M211.3,8.76c.33,0,.7,0,1.13.05a9.43,9.43,0,0,1,1,.13L213,15a4.36,4.36,0,0,0-.89-.16c-.38,0-.71,0-1,0a9.19,9.19,0,0,0-2.4.31,6,6,0,0,0-2.09,1,5,5,0,0,0-1.46,1.85,6.69,6.69,0,0,0-.53,2.8v12H198.2V9.2h4.85l.95,3.94h.31A10.3,10.3,0,0,1,206,11a8.58,8.58,0,0,1,2.38-1.6A7.1,7.1,0,0,1,211.3,8.76Z"/><path d="M230.79,8.76a7.78,7.78,0,0,1,6.41,3.08q2.45,3.09,2.45,9.05a17.37,17.37,0,0,1-1.15,6.71,9.14,9.14,0,0,1-3.2,4.1,8.07,8.07,0,0,1-4.68,1.39,8.73,8.73,0,0,1-2.92-.43,7.46,7.46,0,0,1-2.08-1.11,9.83,9.83,0,0,1-1.49-1.46h-.33c.11.56.19,1.13.25,1.72a16.89,16.89,0,0,1,.08,1.72V43h-6.4V9.2h5.21l.9,3h.29a8.67,8.67,0,0,1,1.54-1.74,6.72,6.72,0,0,1,2.17-1.27A8.34,8.34,0,0,1,230.79,8.76Zm-2.06,5.12a4.54,4.54,0,0,0-2.66.69,3.92,3.92,0,0,0-1.44,2.08,12.35,12.35,0,0,0-.5,3.51v.69a15.07,15.07,0,0,0,.43,3.84A4.45,4.45,0,0,0,226,27.08a4.35,4.35,0,0,0,2.81.82,3.54,3.54,0,0,0,2.41-.82,5,5,0,0,0,1.42-2.4,13.93,13.93,0,0,0,.47-3.87,10.1,10.1,0,0,0-1.07-5.19A3.63,3.63,0,0,0,228.73,13.88Z"/><path d="M251.34,32.67h-6.4V0h6.4Z"/><path d="M267.68,8.71q4.72,0,7.24,2.06T277.44,17V32.67H273l-1.24-3.19h-.17a12.1,12.1,0,0,1-2.05,2.06,7.07,7.07,0,0,1-2.42,1.17,12.64,12.64,0,0,1-3.32.38,8.46,8.46,0,0,1-3.72-.8,5.89,5.89,0,0,1-2.6-2.44,8.36,8.36,0,0,1-.94-4.19,6.18,6.18,0,0,1,2.62-5.51c1.75-1.19,4.38-1.84,7.88-2l4.07-.12V17a3.43,3.43,0,0,0-1-2.71,3.9,3.9,0,0,0-2.68-.86,11.78,11.78,0,0,0-3.34.48,25.65,25.65,0,0,0-3.28,1.22l-2.12-4.33a18.67,18.67,0,0,1,4.19-1.55A20.09,20.09,0,0,1,267.68,8.71Zm3.4,13.08-2.48.09c-2.07.05-3.51.42-4.31,1.11a3.38,3.38,0,0,0-1.21,2.71,2.41,2.41,0,0,0,.86,2.09,3.79,3.79,0,0,0,2.25.62,5.14,5.14,0,0,0,3.47-1.22,4.3,4.3,0,0,0,1.42-3.46Z"/><path d="M297.37,8.76a8.73,8.73,0,0,1,6,2c1.53,1.37,2.29,3.55,2.29,6.56V32.67h-6.4V19a6.52,6.52,0,0,0-.91-3.8,3.3,3.3,0,0,0-2.87-1.28c-2,0-3.3.66-4,2a12.48,12.48,0,0,0-1.07,5.76v11H284V9.2h4.89l.86,3h.35a6.72,6.72,0,0,1,1.88-2,8.3,8.3,0,0,1,2.5-1.11A11.24,11.24,0,0,1,297.37,8.76Z"/></svg>