<?xml version="1.0" encoding="UTF-8" standalone="no"?>
<svg
   id="Ebene_1"
   data-name="Ebene 1"
   viewBox="0 0 200 200"
   version="1.1"
   sodipodi:docname="iconic_mark_color_on_black_square_200x200.svg"
   width="200"
   height="200"
   inkscape:version="1.1.2 (0a00cf5339, 2022-02-04)"
   xmlns:inkscape="http://www.inkscape.org/namespaces/inkscape"
   xmlns:sodipodi="http://sodipodi.sourceforge.net/DTD/sodipodi-0.dtd"
   xmlns="http://www.w3.org/2000/svg"
   xmlns:svg="http://www.w3.org/2000/svg">
  <sodipodi:namedview
     id="namedview942"
     pagecolor="#ffffff"
     bordercolor="#666666"
     borderopacity="1.0"
     inkscape:pageshadow="2"
     inkscape:pageopacity="0.0"
     inkscape:pagecheckerboard="0"
     showgrid="false"
     inkscape:zoom="1.8690782"
     inkscape:cx="138.83849"
     inkscape:cy="203.30878"
     inkscape:window-width="1691"
     inkscape:window-height="1403"
     inkscape:window-x="1749"
     inkscape:window-y="0"
     inkscape:window-maximized="0"
     inkscape:current-layer="Ebene_1" />
  <defs
     id="defs907">
    <style
       id="style905">.cls-1{fill:#fff;}.cls-2{fill:#ffed00;}.cls-3{fill:#ff008e;}.cls-4{fill:#00c2ff;}</style>
  </defs>
  <rect
     style="fill:#000000;stroke-width:1.40787"
     id="rect1494"
     width="200"
     height="200"
     x="0"
     y="0" />
  <g
     id="g1322"
     transform="translate(12.125,39.815)">
    <rect
       x="1.42"
       y="1.42"
       width="172.91"
       height="117.48"
       rx="18.530001"
       id="rect909" />
    <path
       class="cls-1"
       d="M 155.8,2.83 A 17.2,17.2 0 0 1 172.91,20 v 80.42 A 17.09,17.09 0 0 1 155.8,117.53 H 20 A 17.2,17.2 0 0 1 2.83,100.37 V 20 A 17.2,17.2 0 0 1 20,2.83 H 155.8 M 155.8,0 H 20 A 20,20 0 0 0 0,20 v 80.42 a 20,20 0 0 0 20,19.95 h 135.8 a 20,20 0 0 0 19.95,-19.95 V 20 A 20,20 0 0 0 155.8,0 Z"
       id="path911" />
    <path
       class="cls-2"
       d="m 23.43,21 h 21 a 2.87,2.87 0 0 1 2.88,2.88 v 11.2 A 2.87,2.87 0 0 1 44.48,38 h -21 A 2.88,2.88 0 0 1 20.6,35.12 V 23.89 A 3,3 0 0 1 23.43,21"
       id="path913" />
    <path
       class="cls-2"
       d="m 53.72,50.39 h 22.72 a 2.88,2.88 0 0 1 2.88,2.88 v 11.2 a 2.87,2.87 0 0 1 -2.88,2.88 H 53.72 a 2.88,2.88 0 0 1 -2.88,-2.88 v -11.2 a 2.88,2.88 0 0 1 2.88,-2.88"
       id="path915" />
    <path
       class="cls-3"
       d="m 23.43,56.9 h 21 a 2.87,2.87 0 0 1 2.88,2.88 v 10.6 a 2.87,2.87 0 0 1 -2.88,2.88 h -21 a 2.88,2.88 0 0 1 -2.88,-2.88 v -10.6 a 3,3 0 0 1 2.88,-2.88"
       id="path917" />
    <path
       class="cls-3"
       d="m 53.72,82 h 22.72 a 2.88,2.88 0 0 1 2.88,2.88 v 11.55 a 2.87,2.87 0 0 1 -2.88,2.88 H 53.72 A 2.88,2.88 0 0 1 50.84,96.43 V 84.92 A 3,3 0 0 1 53.72,82"
       id="path919" />
    <path
       class="cls-3"
       d="m 99.61,77.2 h 20.6 a 2.88,2.88 0 0 1 2.88,2.87 v 4.09 A 2.88,2.88 0 0 1 120.21,87 h -20.6 a 2.88,2.88 0 0 1 -2.88,-2.88 v -4.05 a 3,3 0 0 1 2.88,-2.87"
       id="path921" />
    <path
       class="cls-3"
       d="m 99.61,39.18 h 20.6 a 2.88,2.88 0 0 1 2.88,2.88 v 6.06 A 2.89,2.89 0 0 1 120.21,51 h -20.6 a 2.89,2.89 0 0 1 -2.88,-2.88 v -6.06 a 2.89,2.89 0 0 1 2.88,-2.88"
       id="path923" />
    <path
       class="cls-2"
       d="m 129.45,21 h 23 a 2.88,2.88 0 0 1 2.88,2.88 v 11.2 A 2.88,2.88 0 0 1 152.47,38 h -23 a 2.87,2.87 0 0 1 -2.88,-2.88 V 23.89 A 2.78,2.78 0 0 1 129.45,21"
       id="path925" />
    <path
       class="cls-2"
       d="m 23.43,77.65 h 21 a 2.87,2.87 0 0 1 2.88,2.88 v 15.9 a 2.87,2.87 0 0 1 -2.88,2.88 h -21 a 2.88,2.88 0 0 1 -2.88,-2.88 v -15.9 a 3,3 0 0 1 2.88,-2.88"
       id="path927" />
    <path
       class="cls-4"
       d="m 99.61,21 h 20.6 a 2.88,2.88 0 0 1 2.88,2.88 v 8.93 a 2.88,2.88 0 0 1 -2.88,2.88 H 99.61 A 2.88,2.88 0 0 1 96.73,32.81 V 23.89 A 2.88,2.88 0 0 1 99.61,21"
       id="path929" />
    <path
       class="cls-4"
       d="m 129.45,53 h 23 a 2.89,2.89 0 0 1 2.88,2.88 v 11.17 a 2.89,2.89 0 0 1 -2.88,2.88 h -23 a 2.87,2.87 0 0 1 -2.88,-2.88 V 55.84 A 2.79,2.79 0 0 1 129.45,53"
       id="path931" />
    <path
       class="cls-4"
       d="m 99.61,90.68 h 20.6 a 2.88,2.88 0 0 1 2.88,2.87 v 3 a 2.88,2.88 0 0 1 -2.88,2.88 h -20.6 a 2.88,2.88 0 0 1 -2.88,-2.88 v -3 a 2.79,2.79 0 0 1 2.88,-2.87"
       id="path933" />
    <path
       class="cls-4"
       d="m 23.43,41.61 h 21 a 2.87,2.87 0 0 1 2.88,2.87 v 5.76 a 2.88,2.88 0 0 1 -2.88,2.88 h -21 a 2.89,2.89 0 0 1 -2.88,-2.88 v -5.76 a 2.88,2.88 0 0 1 2.88,-2.87"
       id="path935" />
    <path
       class="cls-4"
       d="m 53.72,21 h 22.87 a 2.87,2.87 0 0 1 2.88,2.88 v 11.2 A 2.87,2.87 0 0 1 76.59,38 H 53.72 A 2.88,2.88 0 0 1 50.84,35.12 V 23.89 A 2.88,2.88 0 0 1 53.72,21"
       id="path937" />
    <path
       class="cls-2"
       d="m 99.61,54.48 h 20.6 a 2.88,2.88 0 0 1 2.88,2.88 v 13.48 a 2.88,2.88 0 0 1 -2.88,2.87 H 99.61 A 2.88,2.88 0 0 1 96.73,70.84 V 57.36 a 2.79,2.79 0 0 1 2.88,-2.88"
       id="path939" />
  </g>
</svg>
