<?xml version="1.0" encoding="utf-8"?>
<!-- Generator: Adobe Illustrator 25.2.1, SVG Export Plug-In . SVG Version: 6.00 Build 0)  -->
<svg version="1.1" id="Ebene_1" xmlns="http://www.w3.org/2000/svg" xmlns:xlink="http://www.w3.org/1999/xlink" x="0px" y="0px"
	 viewBox="0 0 180 180" style="enable-background:new 0 0 180 180;" xml:space="preserve">
<style type="text/css">
	.st0{fill:none;}
	.st1{fill:#FFFFFF;}
	.st2{fill:#3E4FF7;}
</style>
<g>
	<path class="st0" d="M69.6,55.7c-2.2,2.8,1.1,11.2,5.3,9.8c4.2-1.4,7.3-5.6,5.3-9.8c-2.2-4.2-4-5.1-7.3-2.8
		C70.7,54.3,71.7,52.9,69.6,55.7z"/>
</g>
<g>
	<path class="st0" d="M45,68.2c0,0.9-4.4,6-10.1,10.4c-3,2.3-6.4,4.3-9.6,5.3"/>
</g>
<g>
	<path class="st0" d="M42.3,86.5c0,0.4-4.2,3.5-8.8,5.3c-1.9,0.8-4,1.8-5.9,1.9"/>
</g>
<g>
	<path class="st0" d="M20.8,91.8c0,0-2.3-3.7-2.3-5.4c0-1.8-1.7-2.4-3.5-4.9S14,78,15.2,77.4c1.2-0.5,7,3.1,8.2,5
		c1.2,1.8,4.5,9.1,3.9,10.8c-0.6,1.7-2.5,3.6-6,4c-3.6,0.5-8.4,5.2-10.2,4.5c-1.7-0.6-4.6-3.7-4-6s4.3-5.1,5.5-5.8
		c1.8-1.2,6-3.5,6-3.5"/>
</g>
<g>
	<path class="st0" d="M8.2,99.3L11,97l2.6-1.6l3-1.8"/>
</g>
<g>
	<path class="st0" d="M79.2,78.2c0,0,7.9,3.7,13.2,3c1.7-0.2,5.4-1.3,7.3-3.1"/>
</g>
<g>
	<g>
		<circle class="st1" cx="113.2" cy="106.2" r="0.5"/>
	</g>
</g>
<g>
	<g>
		<circle class="st1" cx="102.9" cy="129.9" r="0.5"/>
	</g>
</g>
<g>
	<path class="st0" d="M95,57.3c0,0,2.4,3.9,7.3,3.5c5-0.4,6.6-2.9,6.6-2.9"/>
</g>
<g>
	<path class="st0" d="M63.1,126.7l4.4,29.9v5.6c0,0-3.6,5.2-5.6,6.9c-0.3,0.3-0.8,0.3-1.1,0.4c-4.7,1.7-6.8,2.3-5.6,3.3
		c1.1,1.1,9.1,4.5,15.7,1.1c6.8-3.3,5.2-2.8,5.5-3.1c0.2-0.2,1.3,5.4,1.3,5.4h2.4c0,0,1.9-4.5-0.5-12.4c-0.5-1.7-1.6-4.5-1.6-6.8
		s1-28.1,1-28.1"/>
</g>
<g>
	<path class="st0" d="M107.1,129.4l-3.7,29.1l-0.5,4.3c0,0,5.6,6.7,7.5,8.6c1.1,1.1,3.8,4.3,2.7,5.4c-1.1,1.1-3.8,0.4-10.8-2.2
		c-4.4-1.6-8.6-3.8-8.6-3.2l-1.3,5.4h-2.4c0,0-1.9-4.4,0.5-11.9c0.5-1.6,2.5-4.9,2.5-7c0-2.2-1.7-26.4-1.7-26.4"/>
</g>
<g>
	<path class="st0" d="M67.9,160.6c0,0,0.9,1.1,2.2,1.1c2.9,0,7.9-1.1,8.6-1.1"/>
</g>
<g>
	<path class="st0" d="M91.6,161.7c0,0,0.9,1.1,2.2,1.1c2.9,0,9,1.1,9.7,1.1"/>
</g>
<g>
	<path class="st2" d="M77.8,62c0.5-1.4,0.4-3-0.4-4.6c-1-2-2.3-3.3-3.4-3.7c-0.8-0.2-1.6,0-2.6,0.5c-1.8,1.3-2.4,3.2-2.6,4.6
		c0.1,2.5,1.2,5,2.6,5.9c0.8,0.5,1.7,0.6,2.7,0.3C75.9,64.5,77.3,63.4,77.8,62z"/>
	<path class="st2" d="M172.6,74c-0.4-0.2-0.9-0.5-5.9,0.5c1.7-1.5,2.5-2,2.7-2.4c0.8-1.1,1.3-2.7,0.6-3.9c-0.2-0.4-0.9-1.3-2.4-1.2
		c-2.5,0.1-4.8,1.6-6.4,2.5c-0.2,0.1-0.4,0.3-0.6,0.3c-1.4,0.8-3.2,2.2-4.4,3c0.1-0.2,0.1-0.5,0.2-0.8c0.4-1.6,1-3.7,0.1-5.4
		l-0.1-0.2l-0.2-0.1c-0.9-0.5-1.6-0.8-2.4-0.6c-1.3,0.3-2,1.6-2.8,2.9l-0.3,0.5c-1.7,3.1-2,6.6-0.6,9.6l0.1,0.1
		c0.1,0.2,0.3,0.5,0.5,1c-1.4,3-5.2,9.6-9.1,10.6c-1.3,0.3-2.5,0-3.7-0.9c-2.8-2.5-4.6-5.3-5.7-7.1l1.7-13.3
		c1.4-10.6-0.5-20.3-5.8-29.3c-5-8.5-11.9-14.5-20.8-18.5c-1.1-0.5-1.7-1.6-1.6-2.8l0.4-3.2c0.4-3.1-0.3-6-2.3-8.5
		c-1.9-2.6-4.5-4-7.6-4.4c-3.1-0.4-6,0.3-8.5,2.3c-2.6,1.9-4,4.5-4.4,7.6L83,15.5c-0.1,1.2-1.1,2.2-2.3,2.4
		c-9.6,1.5-17.9,5.7-24.8,12.5c-7.4,7.3-11.7,16.3-13.1,26.8l-1.7,13.6c-1.6,1.9-4.6,5.1-8.5,8c-3.4,2.6-6.6,4.3-9.3,5.1
		c-0.2-0.5-0.4-0.9-0.6-1.1c-1.1-1.7-7.4-6.4-9.6-5.3c-0.9,0.5-1.5,1.2-1.6,1.9c-0.2,1.1,0.1,2.3,1.2,3.8c0.8,1.1,1.5,1.7,2,2.4
		c0.5,0.5,0.9,0.9,1.1,1.2c-1.3,0.8-4,2.2-5.4,3.1c-0.2,0.1-5.1,3.2-5.9,6.5c-0.9,3.1,2.6,6.6,4.6,7.3c0.2,0.1,0.5,0.1,0.8,0.1
		c1.3,0,2.9-1,4.7-2.2c1.7-1.1,3.8-2.3,5.2-2.5c4.8-0.5,6.5-3.4,6.9-4.6c0.1-0.2,0.1-0.5,0.1-0.9c2.4-0.4,7.6-2,11.9-4.3l-2.5,19.3
		c-0.1,1.1-1,2-2,2.4l-12.4,3.1c-1.1,0.3-1.9,1.2-2,2.4l-0.5,4.5c-0.2,1.5,0.9,2.9,2.4,3.1c6,0.8,21.4,2.8,39.2,5.1l4.2,28.3v5.2
		c-0.8,1.1-3.6,5.1-5.3,6.5c0,0-0.2,0-0.3,0.1c-0.1,0-0.3,0.1-0.4,0.1l-1.5,0.5c-3.4,1.2-4.8,1.7-5.1,2.9c-0.1,0.4,0,1,0.6,1.6
		c1.4,1.4,9.8,5,16.9,1.3c2.2-1.1,3.6-1.7,4.4-2.3c0.2,1.1,0.5,2.5,0.8,3.8l0.2,0.9h4l0.3-0.6c0.1-0.2,2-5-0.5-13.1
		c-0.1-0.3-0.2-0.6-0.3-1c-0.5-1.6-1.3-3.8-1.3-5.5c0-1.8,0.6-20.6,0.9-26.4c3.4,0.4,6.9,0.9,10.3,1.3c0.6,8.4,1.7,24.4,1.7,26.1
		c0,1.3-0.9,3.1-1.6,4.6c-0.3,0.8-0.6,1.5-0.9,2c-2.6,7.8-0.5,12.4-0.5,12.6l0.3,0.6h4l1.3-5.3c0.6,0.2,1.5,0.6,2.4,1
		c1.4,0.6,3.2,1.4,5.1,2c4.8,1.8,7.8,2.7,9.7,2.7c1,0,1.7-0.3,2.3-0.9c0.9-0.9,0.8-2.3-0.4-4c-0.8-1.2-1.7-2.3-2.3-2.9
		c-1.6-1.6-6-6.8-7.2-8.2l3.6-28.3c13.7,1.8,25.2,3.2,30.8,4c1.8,0.2,3.3-1.4,3.1-3.2l-0.6-4c-0.1-0.8-0.5-1.4-1.2-1.8l-9.5-6.7
		c-0.9-0.5-1.3-1.6-1.2-2.6l2.7-21.2c2.7,2,7.3,4.6,12,4.6c0.2,0,0.5,0,0.8,0c7.5-1.2,14.3-13.1,14.9-16.7c0.1,0,0.2,0,0.3,0
		c1.7,0,4.2-0.6,6.6-3.8c0.6-0.9,2.6-1.8,4.2-2.7c2.8-1.4,5.2-2.7,5.3-4.5C174.1,75.5,173.6,74.8,172.6,74z M25.4,120.3
		c-0.4,0-0.9-0.4-0.9-0.9c0-0.4,0.4-0.9,0.9-0.9c0.4,0,0.9,0.4,0.9,0.9C26.3,119.8,26,120.3,25.4,120.3z M31.9,117
		c-0.4,0-0.9-0.4-0.9-0.9s0.4-0.9,0.9-0.9c0.4,0,0.9,0.4,0.9,0.9S32.4,117,31.9,117z M34.6,121.8c-0.4,0-0.9-0.4-0.9-0.9
		c0-0.4,0.4-0.9,0.9-0.9c0.4,0,0.9,0.4,0.9,0.9C35.5,121.3,35,121.8,34.6,121.8z M135.3,135.1c0.4,0,0.9,0.4,0.9,0.9
		c0,0.4-0.4,0.9-0.9,0.9c-0.4,0-0.9-0.4-0.9-0.9C134.5,135.6,134.9,135.1,135.3,135.1z M131.7,129.7c0.4,0,0.9,0.4,0.9,0.9
		c0,0.4-0.4,0.9-0.9,0.9s-0.9-0.4-0.9-0.9C130.8,130.2,131.2,129.7,131.7,129.7z M126.1,114.4c0,0.4-0.4,0.9-0.9,0.9
		c-0.4,0-0.9-0.4-0.9-0.9s0.4-0.9,0.9-0.9C125.6,113.6,126.1,114,126.1,114.4z M120.6,107.2c0,0.3-0.2,0.5-0.5,0.5
		c-0.3,0-0.5-0.2-0.5-0.5c0-0.3,0.2-0.5,0.5-0.5C120.4,106.7,120.6,107,120.6,107.2z M120,110.5c0,0.3-0.2,0.5-0.5,0.5
		c-0.3,0-0.5-0.2-0.5-0.5s0.2-0.5,0.5-0.5C119.8,109.9,120,110.2,120,110.5z M120,103.5c0,0.3-0.2,0.5-0.5,0.5
		c-0.3,0-0.5-0.2-0.5-0.5s0.2-0.5,0.5-0.5C119.8,102.9,120,103.2,120,103.5z M119,99.7c0.3,0,0.5,0.2,0.5,0.5s-0.2,0.5-0.5,0.5
		c-0.3,0-0.5-0.2-0.5-0.5C118.4,100,118.6,99.7,119,99.7z M116.3,102.4c0.3,0,0.5,0.2,0.5,0.5s-0.2,0.5-0.5,0.5
		c-0.3,0-0.5-0.2-0.5-0.5C115.7,102.7,115.9,102.4,116.3,102.4z M114.6,105.6c0.3,0,0.5,0.2,0.5,0.5s-0.2,0.5-0.5,0.5
		c-0.3,0-0.5-0.2-0.5-0.5C114.1,105.9,114.3,105.6,114.6,105.6z M111.4,100.8c0.3,0,0.5,0.2,0.5,0.5c0,0.3-0.2,0.5-0.5,0.5
		s-0.5-0.2-0.5-0.5C110.9,101.1,111.1,100.8,111.4,100.8z M111.4,106.7c0.3,0,0.5,0.2,0.5,0.5c0,0.3-0.2,0.5-0.5,0.5
		s-0.5-0.2-0.5-0.5C110.9,107,111.1,106.7,111.4,106.7z M66.6,58.7c0.2-1.8,1-4.5,3.7-6.2c1.4-1,2.9-1.2,4.3-0.9
		c1.8,0.5,3.4,2,4.8,4.7c1.1,2.3,1.3,4.4,0.4,6.5c-0.9,2-2.6,3.6-5.1,4.3c-0.6,0.2-1.2,0.3-1.8,0.3c-1,0-1.9-0.3-2.8-0.9
		c-2.5-1.7-3.4-5.2-3.6-7.8V58.7z M75,112.5c0.4,0,0.9,0.4,0.9,0.9s-0.4,0.9-0.9,0.9s-0.9-0.4-0.9-0.9S74.6,112.5,75,112.5z
		 M74.2,103.5c0-0.3,0.2-0.5,0.5-0.5s0.5,0.2,0.5,0.5s-0.2,0.5-0.5,0.5S74.2,103.8,74.2,103.5z M68.3,100.2c-0.3,0-0.5-0.2-0.5-0.5
		c0-0.3,0.2-0.5,0.5-0.5c0.3,0,0.5,0.2,0.5,0.5C68.9,100,68.6,100.2,68.3,100.2z M69.6,105c0.4,0,0.9,0.4,0.9,0.9s-0.4,0.9-0.9,0.9
		c-0.4,0-0.9-0.4-0.9-0.9S69.2,105,69.6,105z M68.3,110.5c0.6,0,1.1,0.4,1.1,1.1c0,0.6-0.4,1.1-1.1,1.1c-0.6,0-1.1-0.4-1.1-1.1
		C67.2,111,67.8,110.5,68.3,110.5z M69.4,119.1c0.6,0,1.1,0.4,1.1,1.1c0,0.6-0.4,1.1-1.1,1.1c-0.6,0-1.1-0.4-1.1-1.1
		C68.3,119.6,68.9,119.1,69.4,119.1z M70.6,125.9c0.4,0,0.9,0.4,0.9,0.9c0,0.4-0.4,0.9-0.9,0.9s-0.9-0.4-0.9-0.9
		C69.7,126.3,70.2,125.9,70.6,125.9z M64.7,106.5c0,0.4-0.4,0.9-0.9,0.9s-0.9-0.4-0.9-0.9c0-0.4,0.4-0.9,0.9-0.9
		S64.7,106,64.7,106.5z M64,110.5c-0.3,0-0.5-0.2-0.5-0.5c0-0.3,0.2-0.5,0.5-0.5c0.3,0,0.5,0.2,0.5,0.5
		C64.5,110.2,64.3,110.5,64,110.5z M64.5,121.8c0,0.3-0.2,0.5-0.5,0.5c-0.3,0-0.5-0.2-0.5-0.5s0.2-0.5,0.5-0.5
		C64.3,121.2,64.5,121.6,64.5,121.8z M59.7,97.5c0.3,0,0.5,0.2,0.5,0.5c0,0.3-0.2,0.5-0.5,0.5c-0.3,0-0.5-0.2-0.5-0.5
		C59.2,97.9,59.4,97.5,59.7,97.5z M55.4,100.8c0.3,0,0.5,0.2,0.5,0.5c0,0.3-0.2,0.5-0.5,0.5c-0.3,0-0.5-0.2-0.5-0.5
		C54.9,101.1,55.1,100.8,55.4,100.8z M50.2,100.2c0.4,0,0.9,0.4,0.9,0.9c0,0.4-0.4,0.9-0.9,0.9s-0.9-0.4-0.9-0.9
		C49.4,100.7,49.8,100.2,50.2,100.2z M47.8,111.5c0,0.6-0.4,1.1-1.1,1.1c-0.6,0-1.1-0.4-1.1-1.1c0-0.6,0.4-1.1,1.1-1.1
		C47.4,110.5,47.8,111,47.8,111.5z M46.2,102.9c0,0.3-0.2,0.5-0.5,0.5c-0.3,0-0.5-0.2-0.5-0.5s0.2-0.5,0.5-0.5
		C46,102.4,46.2,102.7,46.2,102.9z M45.2,97c0.3,0,0.5,0.2,0.5,0.5c0,0.3-0.2,0.5-0.5,0.5c-0.3,0-0.5-0.2-0.5-0.5
		C44.6,97.3,44.8,97,45.2,97z M24.7,93.9c-0.3,0.9-1.4,2.8-5.2,3.3c-1.9,0.3-4.1,1.6-6,2.8c-1.3,0.8-3.1,1.9-3.7,1.8
		c-0.5-0.2-1.1-0.7-1.7-1.3l2-1.6l5.5-3.4c0.4-0.3,0.6-1,0.3-1.5c-0.3-0.4-1-0.6-1.5-0.3l-5.6,3.4l-2.1,1.7
		c-0.3-0.6-0.4-1.2-0.3-1.7c0.5-1.8,3.6-4.3,5.1-5.2c1.2-0.8,3.2-1.9,4.6-2.7c0.5,1.8,1.8,3.9,2.2,4.4c0.3,0.5,1,0.6,1.5,0.3
		c0.5-0.3,0.6-1,0.3-1.5c-0.9-1.4-2.2-3.9-2.2-4.8c0,0,0,0,0-0.1c0,0,0-0.1,0-0.2c-0.1-1.4-1-2.3-1.8-3.1c-0.5-0.5-1.2-1.2-1.8-2
		c-0.9-1.3-0.9-1.8-0.9-2c0-0.1,0.1-0.2,0.4-0.5c1.2,0.1,5.9,3,6.9,4.5C22.3,86.2,25,92.7,24.7,93.9z M26.5,91.7
		c-0.4-1.8-1.4-4-2.3-5.8c2.9-1,6-2.7,9.6-5.4c2.3-1.7,4.7-3.9,6.7-5.9l-1.6,12.3C34.8,89.3,28.6,91.3,26.5,91.7z M39.8,109.4
		c-0.3,0-0.5-0.2-0.5-0.5s0.2-0.5,0.5-0.5c0.3,0,0.5,0.2,0.5,0.5S40.1,109.4,39.8,109.4z M40.3,104.3c0-0.4,0.4-0.9,0.9-0.9
		c0.4,0,0.9,0.4,0.9,0.9c0,0.4-0.4,0.9-0.9,0.9C40.7,105.2,40.3,104.9,40.3,104.3z M41.6,112.1c0.4,0,0.9,0.4,0.9,0.9
		s-0.4,0.9-0.9,0.9c-0.4,0-0.9-0.4-0.9-0.9S41.2,112.1,41.6,112.1z M41.7,123.5c-0.4,0-0.9-0.4-0.9-0.9c0-0.4,0.4-0.9,0.9-0.9
		c0.4,0,0.9,0.4,0.9,0.9C42.6,123.1,42.2,123.5,41.7,123.5z M42.2,118.1c-0.4,0-0.9-0.4-0.9-0.9c0-0.4,0.4-0.9,0.9-0.9
		c0.4,0,0.9,0.4,0.9,0.9C43.1,117.7,42.8,118.1,42.2,118.1z M44.8,107.8c-0.4,0-0.9-0.4-0.9-0.9c0-0.4,0.4-0.9,0.9-0.9
		c0.4,0,0.9,0.4,0.9,0.9C45.7,107.3,45.4,107.8,44.8,107.8z M46.6,120.3c-0.4,0-0.9-0.4-0.9-0.9c0-0.4,0.4-0.9,0.9-0.9
		c0.4,0,0.9,0.4,0.9,0.9C47.4,119.8,47.1,120.3,46.6,120.3z M47.6,117c-0.4,0-0.9-0.4-0.9-0.9s0.4-0.9,0.9-0.9
		c0.4,0,0.9,0.4,0.9,0.9S48.2,117,47.6,117z M48.9,105.4c0-0.4,0.4-0.9,0.9-0.9c0.4,0,0.9,0.4,0.9,0.9c0,0.4-0.4,0.9-0.9,0.9
		C49.4,106.3,48.9,105.9,48.9,105.4z M50.5,109.4c0,0.3-0.2,0.5-0.5,0.5c-0.3,0-0.5-0.2-0.5-0.5c0-0.3,0.2-0.5,0.5-0.5
		C50.3,108.8,50.5,109.2,50.5,109.4z M50.2,114.7c0.4,0,0.9,0.4,0.9,0.9c0,0.4-0.4,0.9-0.9,0.9s-0.9-0.4-0.9-0.9
		C49.4,115.1,49.8,114.7,50.2,114.7z M50.3,123.4c-0.4,0-0.9-0.4-0.9-0.9c0-0.4,0.4-0.9,0.9-0.9s0.9,0.4,0.9,0.9
		C51.2,123,50.9,123.4,50.3,123.4z M53,112.7c-0.4,0-0.9-0.4-0.9-0.9s0.4-0.9,0.9-0.9s0.9,0.4,0.9,0.9S53.6,112.7,53,112.7z
		 M53,109.9c-0.4,0-0.9-0.4-0.9-0.9s0.4-0.9,0.9-0.9s0.9,0.4,0.9,0.9S53.6,109.9,53,109.9z M55.6,115.3c-0.4,0-0.9-0.4-0.9-0.9
		s0.4-0.9,0.9-0.9c0.4,0,0.9,0.4,0.9,0.9S56.1,115.3,55.6,115.3z M57.5,107.8c-0.3,0-0.5-0.2-0.5-0.5c0-0.3,0.2-0.5,0.5-0.5
		c0.3,0,0.5,0.2,0.5,0.5C58.1,107.5,57.9,107.8,57.5,107.8z M57.3,105.6c-0.4,0-0.9-0.4-0.9-0.9c0-0.4,0.4-0.9,0.9-0.9
		s0.9,0.4,0.9,0.9C58.2,105.2,57.9,105.6,57.3,105.6z M59.7,123.9c-0.6,0-1.1-0.4-1.1-1.1c0-0.6,0.4-1.1,1.1-1.1s1.1,0.4,1.1,1.1
		C60.8,123.5,60.3,123.9,59.7,123.9z M61.3,112.6c-0.3,0-0.5-0.2-0.5-0.5c0-0.3,0.2-0.5,0.5-0.5c0.3,0,0.5,0.2,0.5,0.5
		S61.6,112.6,61.3,112.6z M61.9,110.5c-0.3,0-0.5-0.2-0.5-0.5c0-0.3,0.2-0.5,0.5-0.5c0.3,0,0.5,0.2,0.5,0.5
		C62.4,110.2,62.2,110.5,61.9,110.5z M62.4,102.4c0-0.3,0.2-0.5,0.5-0.5s0.5,0.2,0.5,0.5c0,0.3-0.2,0.5-0.5,0.5
		S62.4,102.7,62.4,102.4z M62.8,129.6c4.3,0.5,8.8,1.2,13.4,1.7c-0.2,5.6-0.9,24.7-0.9,26.7c0,0.9,0.1,1.8,0.3,2.8
		c-0.2,0-0.4,0.1-0.8,0.1c-1.8,0.3-4.6,0.8-6.5,0.8c-0.8,0-1.3-0.6-1.3-0.6l-0.1,0.1v-3.4L62.8,129.6z M77.7,176.1H77
		c-1-5.1-1.2-5.2-1.8-5.4l-0.6-0.2l-0.4,0.4c-0.1,0.1-0.2,0.2-0.2,0.3c-0.4,0.2-1.6,1-5,2.6c-5.7,2.9-12.4,0.4-14.1-0.6
		c0.8-0.3,2-0.9,3.3-1.3l1.5-0.5c0.1,0,0.1,0,0.2,0c0.3-0.1,0.9-0.2,1.3-0.5c2.2-1.8,5.6-6.9,5.8-7.1l0.2-0.2
		c0.4,0.2,0.9,0.3,1.4,0.3c2,0,5-0.5,6.8-0.8c0.3-0.1,0.6-0.1,1-0.2c0.1,0.4,0.3,0.9,0.4,1.3c0.1,0.3,0.2,0.6,0.3,1
		C78.7,170.8,78,174.7,77.7,176.1z M77.5,123.9c-0.6,0-1.1-0.4-1.1-1.1c0-0.6,0.4-1.1,1.1-1.1c0.6,0,1.1,0.4,1.1,1.1
		C78.6,123.5,78.1,123.9,77.5,123.9z M80,109.5c-0.4,0-0.9-0.4-0.9-0.9c0-0.4,0.4-0.9,0.9-0.9c0.4,0,0.9,0.4,0.9,0.9
		C80.8,109.1,80.5,109.5,80,109.5z M82.1,114.9c-0.4,0-0.9-0.4-0.9-0.9c0-0.4,0.4-0.9,0.9-0.9c0.4,0,0.9,0.4,0.9,0.9
		C83,114.4,82.6,114.9,82.1,114.9z M84.7,127.2c-0.4,0-0.9-0.4-0.9-0.9c0-0.4,0.4-0.9,0.9-0.9c0.4,0,0.9,0.4,0.9,0.9
		C85.6,126.7,85.2,127.2,84.7,127.2z M85,119.1c-0.3,0-0.5-0.2-0.5-0.5s0.2-0.5,0.5-0.5s0.5,0.2,0.5,0.5S85.3,119.1,85,119.1z
		 M86.6,110.5c-0.6,0-1.1-0.4-1.1-1.1c0-0.6,0.4-1.1,1.1-1.1c0.6,0,1.1,0.4,1.1,1.1C87.7,110,87.3,110.5,86.6,110.5z M77,80.3
		c-0.5-0.2-0.8-0.9-0.5-1.4c0.2-0.5,0.9-0.8,1.4-0.5c0.1,0,7.8,3.6,12.6,2.9c1.5-0.2,5-1.2,6.7-2.9c0.4-0.4,1.1-0.4,1.5,0
		c0.4,0.4,0.4,1.1,0,1.5c-2.3,2.2-6.2,3.2-7.9,3.4c-0.5,0.2-1.1,0.2-1.5,0.2C84,83.5,77.4,80.5,77,80.3z M103.9,107.8
		c-0.3,0-0.5-0.2-0.5-0.5c0-0.3,0.2-0.5,0.5-0.5c0.3,0,0.5,0.2,0.5,0.5C104.4,107.5,104.2,107.8,103.9,107.8z M104.7,109.3
		c0.4,0,0.9,0.4,0.9,0.9c0,0.4-0.4,0.9-0.9,0.9c-0.4,0-0.9-0.4-0.9-0.9C103.9,109.7,104.3,109.3,104.7,109.3z M104.4,113.7
		c0,0.6-0.4,1.1-1.1,1.1c-0.6,0-1.1-0.4-1.1-1.1c0-0.6,0.4-1.1,1.1-1.1C104,112.6,104.4,113.2,104.4,113.7z M101.7,105.6
		c-0.3,0-0.5-0.2-0.5-0.5c0-0.3,0.2-0.5,0.5-0.5c0.3,0,0.5,0.2,0.5,0.5C102.3,105.4,102,105.6,101.7,105.6z M101.7,108.3
		c0,0.3-0.2,0.5-0.5,0.5c-0.3,0-0.5-0.2-0.5-0.5c0-0.3,0.2-0.5,0.5-0.5C101.5,107.8,101.7,108.1,101.7,108.3z M101.7,130.9
		c0,0.3-0.2,0.5-0.5,0.5c-0.3,0-0.5-0.2-0.5-0.5s0.2-0.5,0.5-0.5C101.5,130.4,101.7,130.7,101.7,130.9z M101.3,126.3
		c0,0.4-0.4,0.9-0.9,0.9s-0.9-0.4-0.9-0.9c0-0.4,0.4-0.9,0.9-0.9S101.3,125.9,101.3,126.3z M99.3,111.6c-0.4,0-0.9-0.4-0.9-0.9
		c0-0.4,0.4-0.9,0.9-0.9c0.4,0,0.9,0.4,0.9,0.9C100.2,111.2,99.9,111.6,99.3,111.6z M96.1,117.5c0.4,0,0.9,0.4,0.9,0.9
		c0,0.4-0.4,0.9-0.9,0.9s-0.9-0.4-0.9-0.9C95.3,117.9,95.7,117.5,96.1,117.5z M95.3,105.6c0-0.3,0.2-0.5,0.5-0.5s0.5,0.2,0.5,0.5
		c0,0.3-0.2,0.5-0.5,0.5S95.3,105.9,95.3,105.6z M97.9,122.8c0.6,0,1.1,0.4,1.1,1.1c0,0.6-0.4,1.1-1.1,1.1c-0.6,0-1.1-0.4-1.1-1.1
		C96.9,123.4,97.4,122.8,97.9,122.8z M97.4,102.9c0-0.3,0.2-0.5,0.5-0.5c0.3,0,0.5,0.2,0.5,0.5s-0.2,0.5-0.5,0.5
		C97.6,103.5,97.4,103.2,97.4,102.9z M91.8,116.8c0.4,0,0.9,0.4,0.9,0.9c0,0.4-0.4,0.9-0.9,0.9c-0.4,0-0.9-0.4-0.9-0.9
		C90.9,117.2,91.4,116.8,91.8,116.8z M90.4,105.6c-0.3,0-0.5-0.2-0.5-0.5c0-0.3,0.2-0.5,0.5-0.5s0.5,0.2,0.5,0.5
		C90.9,105.4,90.7,105.6,90.4,105.6z M92.6,108.3c0-0.3,0.2-0.5,0.5-0.5s0.5,0.2,0.5,0.5c0,0.3-0.2,0.5-0.5,0.5
		S92.6,108.6,92.6,108.3z M89.9,123.7c0-0.4,0.4-0.9,0.9-0.9c0.4,0,0.9,0.4,0.9,0.9c0,0.4-0.4,0.9-0.9,0.9
		C90.3,124.6,89.9,124.2,89.9,123.7z M108,173.2c1.4,1.4,2.6,3.2,2.6,3.9c-1.1,0.6-6.6-1.3-9.6-2.5c-1.8-0.6-3.6-1.4-5-2
		c-3.2-1.4-3.9-1.6-4.5-1.2l-0.5,0.4v0.4l-1.1,4.4h-0.8c-0.4-1.4-1-5.1,0.8-10.5c0.1-0.4,0.4-1.1,0.8-1.7c0.4,0.2,0.9,0.3,1.4,0.3
		c1.8,0,5.2,0.4,7.3,0.8c1.3,0.2,1.9,0.3,2.3,0.3C103.3,168.1,106.6,171.8,108,173.2z M100.1,163.6c-0.2,0-0.3,0-0.5-0.1
		c-2.3-0.3-5.6-0.8-7.6-0.8c-0.2,0-0.3,0-0.5-0.1c0.5-1.3,1-2.6,1-3.7c0-1.9-1.4-21.7-1.7-25.8c4.4,0.5,8.8,1.2,12.9,1.7
		L100.1,163.6z M103.9,121.8c-0.6,0-1.1-0.4-1.1-1.1c0-0.6,0.4-1.1,1.1-1.1c0.6,0,1.1,0.4,1.1,1.1
		C105,121.3,104.5,121.8,103.9,121.8z M106,127.7c-0.6,0-1.1-0.4-1.1-1.1c0-0.6,0.4-1.1,1.1-1.1c0.6,0,1.1,0.4,1.1,1.1
		C107.1,127.3,106.7,127.7,106,127.7z M106.2,116c-0.4,0-0.9-0.4-0.9-0.9c0-0.4,0.4-0.9,0.9-0.9c0.4,0,0.9,0.4,0.9,0.9
		C107.1,115.5,106.8,116,106.2,116z M107.1,108.3c-0.3,0-0.5-0.2-0.5-0.5s0.2-0.5,0.5-0.5c0.3,0,0.5,0.2,0.5,0.5
		S107.4,108.3,107.1,108.3z M106.9,105.2c-0.4,0-0.9-0.4-0.9-0.9c0-0.4,0.4-0.9,0.9-0.9c0.4,0,0.9,0.4,0.9,0.9
		C107.8,104.7,107.4,105.2,106.9,105.2z M108.1,59.5c-0.1,0.1-1.9,2.9-7.3,3.3c-0.3,0.1-0.6,0.1-0.9,0.1c-5,0-7.4-3.9-7.5-4
		c-0.3-0.5-0.1-1.2,0.3-1.5c0.5-0.3,1.2-0.1,1.5,0.3c0.1,0.1,2.2,3.2,6.4,2.9c4.2-0.3,5.6-2.3,5.7-2.4c0.3-0.4,1-0.6,1.5-0.3
		C108.3,58.3,108.4,59,108.1,59.5z M109.3,110.1c0-0.4,0.4-0.9,0.9-0.9s0.9,0.4,0.9,0.9c0,0.4-0.4,0.9-0.9,0.9
		S109.3,110.7,109.3,110.1z M109.8,116.9c0-0.6,0.4-1.1,1.1-1.1c0.6,0,1.1,0.4,1.1,1.1c0,0.6-0.4,1.1-1.1,1.1
		C110.3,118,109.8,117.6,109.8,116.9z M111.4,131.5c-0.3,0-0.5-0.2-0.5-0.5s0.2-0.5,0.5-0.5s0.5,0.2,0.5,0.5
		S111.7,131.5,111.4,131.5z M111.2,124.6c-0.4,0-0.9-0.4-0.9-0.9c0-0.4,0.4-0.9,0.9-0.9s0.9,0.4,0.9,0.9
		C112.1,124.1,111.7,124.6,111.2,124.6z M113.4,119.6c-0.4,0-0.9-0.4-0.9-0.9s0.4-0.9,0.9-0.9c0.4,0,0.9,0.4,0.9,0.9
		S113.9,119.6,113.4,119.6z M114.1,109.9c-0.3,0-0.5-0.2-0.5-0.5c0-0.3,0.2-0.5,0.5-0.5s0.5,0.2,0.5,0.5
		C114.6,109.7,114.4,109.9,114.1,109.9z M115.7,128.8c-0.6,0-1.1-0.4-1.1-1.1c0-0.6,0.4-1.1,1.1-1.1c0.6,0,1.1,0.4,1.1,1.1
		C116.8,128.3,116.4,128.8,115.7,128.8z M116.6,109.9c-0.4,0-0.9-0.4-0.9-0.9s0.4-0.9,0.9-0.9c0.4,0,0.9,0.4,0.9,0.9
		S117.1,109.9,116.6,109.9z M117.9,105.6c-0.3,0-0.5-0.2-0.5-0.5c0-0.3,0.2-0.5,0.5-0.5c0.3,0,0.5,0.2,0.5,0.5
		C118.4,105.4,118.2,105.6,117.9,105.6z M119.2,113.8c-0.4,0-0.9-0.4-0.9-0.9c0-0.4,0.4-0.9,0.9-0.9c0.4,0,0.9,0.4,0.9,0.9
		C120,113.4,119.7,113.8,119.2,113.8z M121.1,131.5c-0.6,0-1.1-0.4-1.1-1.1c0-0.6,0.4-1.1,1.1-1.1c0.6,0,1.1,0.4,1.1,1.1
		C122.2,131,121.8,131.5,121.1,131.5z M122,124.6c-0.4,0-0.9-0.4-0.9-0.9c0-0.4,0.4-0.9,0.9-0.9c0.4,0,0.9,0.4,0.9,0.9
		C122.8,124.1,122.5,124.6,122,124.6z M122,109.9c-0.4,0-0.9-0.4-0.9-0.9s0.4-0.9,0.9-0.9c0.4,0,0.9,0.4,0.9,0.9
		S122.5,109.9,122,109.9z M123.7,105.8c0-0.4,0.4-0.9,0.9-0.9c0.4,0,0.9,0.4,0.9,0.9s-0.4,0.9-0.9,0.9
		C124.1,106.7,123.7,106.4,123.7,105.8z M125.2,134.3c-0.4,0-0.9-0.4-0.9-0.9c0-0.4,0.4-0.9,0.9-0.9c0.4,0,0.9,0.4,0.9,0.9
		C126.1,133.8,125.7,134.3,125.2,134.3z M125.4,126.1c-0.6,0-1.1-0.4-1.1-1.1c0-0.6,0.4-1.1,1.1-1.1c0.6,0,1.1,0.4,1.1,1.1
		C126.5,125.6,126.1,126.1,125.4,126.1z M155.6,87.3c-0.4,3.1-7,14-12.9,14.9c-4.7,0.3-10-3.1-12.2-5l1.5-11.3
		c1.2,1.7,2.7,3.6,4.7,5.4c1.3,1,2.6,1.5,4,1.5c0.5,0,1-0.1,1.5-0.2c4.5-1.1,8.2-7.2,9.9-10.5c1.3,2,2.5,3.8,3.6,4.6
		C155.6,87,155.6,87.1,155.6,87.3z M167.8,79.1c-2,1.1-3.9,2-4.8,3.3c-1.7,2.2-3.7,3.2-5.6,2.9c-1.1-0.2-3.7-4.6-4.4-6
		c-0.3-0.5-0.5-1-0.8-1.3c-1.3-3.1-0.4-5.8,0.6-7.6l0.3-0.5c0.4-0.8,1-1.8,1.4-1.8c0.1,0,0.2,0,0.4,0.1c0.3,1.1,0,2.4-0.3,3.7
		c-0.4,1.6-0.9,3.4,0.8,4.2c1,0.4,1.9,2.6,2.3,3.6c0.2,0.5,0.8,0.9,1.3,0.8c0.5-0.2,0.9-0.8,0.8-1.3c-0.1-0.3-0.8-2.5-2.2-3.9
		c1-0.8,3.1-2.4,4.4-3.1c0.2-0.1,0.4-0.2,0.6-0.4c1.3-0.8,3.4-2,5.3-2.2c0.2,0,0.3,0,0.4,0c0.1,0.1,0,0.9-0.4,1.6
		c-0.2,0.2-1.5,1.3-2.5,2.2c-3.6,3-3.8,3.2-3.3,4.1c0.2,0.4,0.6,0.8,1.4,0.5c5.3-1.4,7.6-1.7,8.3-1.7c0.3,0.2,0.3,0.4,0.3,0.4
		C171.9,76.9,169.2,78.5,167.8,79.1z"/>
</g>
</svg>
