<?xml version="1.0" encoding="utf-8"?>
<!-- Generator: Adobe Illustrator 25.2.1, SVG Export Plug-In . SVG Version: 6.00 Build 0)  -->
<svg version="1.1" xmlns="http://www.w3.org/2000/svg" xmlns:xlink="http://www.w3.org/1999/xlink" x="0px" y="0px"
	 viewBox="0 0 180 180" style="enable-background:new 0 0 180 180;" xml:space="preserve">
<style type="text/css">
	.st0{fill:none;}
	.st1{fill:#3E4FF7;}
	.st2{fill:#FFFFFF;}
	.st3{fill:none;stroke:#3E4FF7;stroke-width:2;stroke-linecap:round;}
	.st4{fill:none;stroke:#3E4FF7;stroke-width:2;}
	.st5{fill:none;stroke:#3E4FF7;stroke-width:2;stroke-miterlimit:10;}
	.st6{fill:none;stroke:#FFFFFF;stroke-width:2;stroke-linecap:round;}
	.st7{fill:none;stroke:#FFFFFF;stroke-linecap:round;}
	.st8{fill:none;stroke:#FFFFFF;}
	.st9{fill:#FFFFFF;stroke:#3E4FF7;stroke-width:2;stroke-linecap:round;}
	.st10{fill:none;stroke:#3E4FF7;stroke-miterlimit:10;}
	.st11{fill:none;stroke:#3E4FF7;stroke-linecap:round;stroke-miterlimit:10;}
	.st12{fill:none;stroke:#3E4FF7;stroke-linecap:round;stroke-linejoin:round;stroke-miterlimit:10;}
	.st13{fill:#1F2342;}
	.st14{fill:none;stroke:#3E4FF7;stroke-width:13;stroke-miterlimit:10;}
	.st15{fill:none;stroke:#3E4FF7;stroke-width:2;stroke-linecap:round;stroke-miterlimit:10;}
</style>
<g id="Ebene_1">
</g>
<g id="Ebene_2">
</g>
<g id="Ebene_3">
	<g>
		<g>
			<path class="st1" d="M72.1,73.7c-2.2,0-4.5-0.6-6.8-1.9c-0.5-0.3-0.6-0.9-0.3-1.3c0.3-0.5,0.9-0.6,1.3-0.3
				c5.4,3.2,11.5,1.1,13.1-1.6c0.3-0.5,0.9-0.6,1.3-0.3c0.5,0.3,0.6,0.9,0.3,1.3C79.7,71.8,76.2,73.7,72.1,73.7z"/>
		</g>
		<g>
			<path class="st1" d="M101.2,72.3c-2.2,0-4.7-0.6-6.8-2.5c-0.4-0.4-0.5-1-0.1-1.4c0.4-0.4,1-0.5,1.4-0.1c5.2,4.5,12.6,0,12.7-0.1
				c0.5-0.3,1.1-0.1,1.4,0.3c0.3,0.5,0.1,1.1-0.3,1.4C109.2,70,105.5,72.3,101.2,72.3z"/>
		</g>
		<path class="st1" d="M151.4,119.9c-0.9-0.4-3.4-1.4-4.5-1.6l-0.8-0.1c-2.4-0.5-5.7-1.1-8.4-3.6c-4-3.8-8.8-14.8-11.3-20.9
			c4.1-4.8,7.4-10.4,9.5-16.7l-12.1-4.1c-5.1,15.1-19.2,25.3-35.2,25.3c-20.5,0-37.1-16.7-37.1-37.1s16.7-37.1,37.1-37.1
			c13.9,0,26.3,7.7,32.7,19.5H96.4v12.8h40.9V13.8h-12.8v12.4c-9.1-9.5-21.9-15.2-35.9-15.2c-27.5,0-49.9,22.4-49.9,49.9
			c0,11.6,4,22.2,10.6,30.7c-3.9,13.9-9.6,23.9-11.8,26.7c-1.3,1.5-3.8,2-6.5,2.5c-2.7,0.5-5.6,1.1-7.5,2.8
			c-0.8,0.6-4.5,4.8-4.4,8.2c0.1,1.2,0.6,2.3,1.7,2.9c0.5,0.3,1.1,0.5,1.6,0.5c0.2,0,0.4,0,0.6-0.1c0.7-0.2,1.3-0.6,1.9-1.2
			c-1,1.6-1.2,3.3-0.5,5.1c3.6,9.5,30.3,18.5,33.8,19.3l0.3,0.1c0,0,0.1,0,0.1,0c-0.2,1.6-0.6,3.7-1,5.4c-1,4.6-1.5,7.3-0.3,8.5
			c0.2,0.2,0.6,0.5,1.2,0.5c0.2,0,0.4,0,0.6-0.1c2.8-0.7,6.1-6.1,9.4-12.2c5.8,1,13,1.8,19.1,1.1c3.3-0.3,5.5-0.6,6.9-0.8
			c3.2-0.4,3.2-0.4,5,0c0.8,0.1,1.9,0.3,3.6,0.6c0.5,0.1,1,0.2,1.6,0.3c4.2,0.7,8.7,1.3,12.3,1.3c2.5,0,4.6-0.3,5.9-1.1
			c1-0.6,1.6-1.5,1.4-2.5c-0.3-2.1-3.3-3.9-9.2-5.5c-2.1-0.6-3.3-1.4-4.4-2.1c-0.1-0.1-0.2-0.1-0.2-0.2c1.8-0.2,3.5-0.4,4.9-0.6
			c13.6-2.1,35.2-8.1,39.1-16c0.8-1.6,0.8-3.2,0.1-4.8c0.7,0.3,1.9,0.8,3,0.8c0.4,0,0.8-0.1,1.2-0.2c0.8-0.3,1.4-0.8,1.7-1.6
			C161.8,126.7,158.7,123.5,151.4,119.9z M98.3,51c-0.3,0-0.6-0.2-0.6-0.5s0.2-0.6,0.5-0.6c0.3,0,0.6,0.2,0.6,0.5
			C98.8,50.7,98.6,51,98.3,51z M103.2,48.5c-0.5,0-0.9-0.3-0.9-0.8c0-0.5,0.3-0.9,0.8-0.9c0.5,0,0.9,0.3,0.9,0.8
			C104.1,48,103.7,48.4,103.2,48.5z M105.1,54.1c-0.3,0-0.6-0.2-0.6-0.5s0.2-0.6,0.5-0.6c0.3,0,0.6,0.2,0.6,0.5
			C105.6,53.9,105.4,54.1,105.1,54.1z M109,47.3c-0.5,0-0.9-0.3-0.9-0.8c0-0.5,0.3-0.9,0.8-0.9c0.5,0,0.9,0.3,0.9,0.8
			C109.8,46.8,109.5,47.2,109,47.3z M110.2,50.9c-0.3,0-0.6-0.2-0.6-0.5s0.2-0.6,0.5-0.6c0.3,0,0.6,0.2,0.6,0.5
			C110.7,50.6,110.5,50.9,110.2,50.9z M113.9,54.9c-0.3,0-0.6-0.2-0.6-0.5c0-0.3,0.2-0.6,0.5-0.6c0.3,0,0.6,0.2,0.6,0.5
			C114.4,54.6,114.2,54.9,113.9,54.9z M115,44.5c0.3,0,0.6,0.2,0.6,0.5s-0.2,0.6-0.5,0.6c-0.3,0-0.6-0.2-0.6-0.5
			C114.5,44.8,114.7,44.5,115,44.5z M115.6,48.3c-0.5,0-0.9-0.3-0.9-0.8c0-0.5,0.3-0.9,0.8-0.9c0.5,0,0.9,0.3,0.9,0.8
			C116.4,47.9,116.1,48.3,115.6,48.3z M117.8,51.3c-0.3,0-0.6-0.2-0.6-0.5c0-0.3,0.2-0.6,0.5-0.6c0.3,0,0.6,0.2,0.6,0.5
			S118.1,51.2,117.8,51.3z M123.1,51.3c-0.5,0-0.9-0.3-0.9-0.8s0.3-0.9,0.8-0.9c0.5,0,0.9,0.3,0.9,0.8
			C123.9,50.8,123.5,51.2,123.1,51.3z M123.1,46.9c-0.5,0-0.9-0.3-0.9-0.8c0-0.5,0.3-0.9,0.8-0.9c0.5,0,0.9,0.3,0.9,0.8
			C123.9,46.5,123.5,46.9,123.1,46.9z M127.4,48.7c-0.3,0-0.6-0.2-0.6-0.5c0-0.3,0.2-0.6,0.5-0.6c0.3,0,0.6,0.2,0.6,0.5
			S127.7,48.7,127.4,48.7z M127.7,43.2c0.5,0,0.9,0.3,0.9,0.8c0,0.5-0.3,0.9-0.8,0.9c-0.5,0-0.9-0.3-0.9-0.8
			C126.9,43.7,127.2,43.3,127.7,43.2z M127.5,31c-0.1-0.5,0.3-0.9,0.8-1c0.5-0.1,0.9,0.3,1,0.8c0.1,0.5-0.3,0.9-0.8,1
			C128,31.8,127.6,31.5,127.5,31z M128.4,54c-0.3,0-0.6-0.2-0.6-0.5c0-0.3,0.2-0.6,0.5-0.6c0.3,0,0.6,0.2,0.6,0.5S128.7,54,128.4,54
			z M128.8,37.7c-0.5,0.1-0.9-0.3-1-0.8c-0.1-0.5,0.3-0.9,0.8-1c0.5-0.1,0.9,0.3,1,0.8C129.6,37.2,129.2,37.7,128.8,37.7z
			 M132.9,52.8c-0.4,0-0.7-0.2-0.7-0.6c0-0.4,0.2-0.7,0.6-0.7c0.4,0,0.7,0.2,0.7,0.6C133.6,52.4,133.3,52.7,132.9,52.8z M134,41.7
			c-0.6,0.1-1.1-0.4-1.2-1c-0.1-0.6,0.4-1.1,1-1.2c0.6-0.1,1.1,0.4,1.2,1C135,41.1,134.6,41.6,134,41.7z M134.2,35.9
			c-0.5,0.1-1-0.3-1.1-0.8c-0.1-0.5,0.3-1,0.8-1.1c0.5-0.1,1,0.3,1.1,0.8C135.1,35.4,134.7,35.9,134.2,35.9z M136,15
			c0.3,0,0.7,0.2,0.7,0.6c0,0.3-0.2,0.7-0.5,0.7c-0.3,0-0.7-0.2-0.7-0.6C135.4,15.3,135.7,15,136,15z M135.6,28.8
			c0.1,0.5-0.3,0.9-0.8,1c-0.5,0.1-0.9-0.3-1-0.8c-0.1-0.5,0.3-0.9,0.8-1C135.1,27.9,135.5,28.3,135.6,28.8z M133.9,16.5
			c0.3,0,0.6,0.2,0.6,0.5c0,0.3-0.2,0.6-0.5,0.6c-0.3,0-0.6-0.2-0.6-0.5C133.4,16.8,133.6,16.5,133.9,16.5z M133.8,18.7
			c0.5-0.1,0.9,0.3,1,0.8c0.1,0.5-0.3,0.9-0.8,1c-0.5,0.1-0.9-0.3-1-0.8C133,19.1,133.4,18.7,133.8,18.7z M133.2,22.2
			c0.4,0,0.7,0.2,0.8,0.6c0,0.4-0.2,0.7-0.6,0.8c-0.4,0-0.7-0.2-0.8-0.6C132.5,22.6,132.8,22.3,133.2,22.2z M131.5,15.3
			c0.3,0,0.6,0.2,0.6,0.5c0,0.3-0.2,0.6-0.5,0.6c-0.3,0-0.6-0.2-0.6-0.5S131.2,15.3,131.5,15.3z M131.6,45.4c0.5,0,0.9,0.3,0.9,0.8
			c0,0.5-0.3,0.9-0.8,0.9c-0.5,0-0.9-0.3-0.9-0.8C130.8,45.9,131.1,45.5,131.6,45.4z M129.7,25.9c0.5-0.1,0.9,0.3,1,0.8
			c0.1,0.5-0.3,0.9-0.8,1c-0.5,0.1-0.9-0.3-1-0.8C128.9,26.4,129.2,25.9,129.7,25.9z M128.4,16c0.3,0,0.6,0.2,0.6,0.5
			c0,0.3-0.2,0.6-0.5,0.6c-0.3,0-0.6-0.2-0.6-0.5C127.9,16.3,128.1,16,128.4,16z M127.5,18.8c0.5-0.1,0.9,0.3,1,0.8
			c0.1,0.5-0.3,0.9-0.8,1c-0.5,0.1-0.9-0.3-1-0.8C126.7,19.3,127.1,18.9,127.5,18.8z M126.8,24.5c0.1,0.5-0.3,0.9-0.8,1
			c-0.5,0.1-0.9-0.3-1-0.8c-0.1-0.5,0.3-0.9,0.8-1C126.3,23.7,126.8,24.1,126.8,24.5z M125.5,14.2c0.3,0,0.6,0.2,0.6,0.5
			c0,0.3-0.2,0.6-0.5,0.6c-0.3,0-0.6-0.2-0.6-0.5C125,14.5,125.2,14.2,125.5,14.2z M125.4,39.4c0.1,0.5-0.3,0.9-0.8,1
			c-0.5,0.1-0.9-0.3-1-0.8c-0.1-0.5,0.3-0.9,0.8-1C124.9,38.6,125.3,38.9,125.4,39.4z M123.4,27.8c0.5-0.1,0.9,0.3,1,0.8
			c0.1,0.5-0.3,0.9-0.8,1c-0.5,0.1-0.9-0.3-1-0.8C122.5,28.3,122.9,27.8,123.4,27.8z M122.3,33.6c0.6-0.1,1.1,0.4,1.2,1
			c0.1,0.6-0.4,1.1-1,1.2c-0.6,0.1-1.1-0.4-1.2-1C121.3,34.2,121.7,33.6,122.3,33.6z M50,56c-0.3,0-0.6-0.2-0.6-0.5
			c0-0.3,0.2-0.6,0.5-0.6c0.3,0,0.6,0.2,0.6,0.5S50.3,55.9,50,56z M51.6,47.4c-0.3,0-0.6-0.2-0.6-0.5c0-0.3,0.2-0.6,0.5-0.6
			c0.3,0,0.6,0.2,0.6,0.5C52.1,47.1,51.8,47.4,51.6,47.4z M61.3,34.8c-0.5,0.1-0.9-0.3-1-0.8c-0.1-0.5,0.3-0.9,0.8-1
			c0.5-0.1,0.9,0.3,1,0.8C62.2,34.3,61.8,34.8,61.3,34.8z M68,26.8c-0.5,0.1-0.9-0.3-1-0.8c-0.1-0.5,0.3-0.9,0.8-1
			c0.5-0.1,0.9,0.3,1,0.8C68.8,26.3,68.5,26.7,68,26.8z M119.5,27.9c0.6-0.1,1.1,0.4,1.2,1c0.1,0.6-0.4,1.1-1,1.2
			c-0.6,0.1-1.1-0.4-1.2-1C118.4,28.5,118.9,28,119.5,27.9z M117.7,34c0.1,0.5-0.3,0.9-0.8,1c-0.5,0.1-0.9-0.3-1-0.8
			c-0.1-0.5,0.3-0.9,0.8-1C117.2,33.2,117.7,33.6,117.7,34z M116,21.5c0.6-0.1,1.1,0.4,1.2,1c0.1,0.6-0.4,1.1-1,1.2
			c-0.6,0.1-1.1-0.4-1.2-1C114.9,22.1,115.4,21.6,116,21.5z M114.9,29c0.4,0,0.8,0.3,0.8,0.7c0,0.4-0.3,0.8-0.7,0.9
			c-0.4,0-0.8-0.3-0.8-0.7C114.2,29.5,114.5,29.1,114.9,29z M112.4,27.4c0.1,0.5-0.3,0.9-0.8,1c-0.5,0.1-0.9-0.3-1-0.8
			c-0.1-0.5,0.3-0.9,0.8-1C112,26.6,112.4,26.9,112.4,27.4z M110.6,20.7c0.5-0.1,0.9,0.3,1,0.8c0.1,0.5-0.3,0.9-0.8,1
			c-0.5,0.1-0.9-0.3-1-0.8C109.8,21.2,110.1,20.8,110.6,20.7z M108.7,26.1c0.1,0.5-0.3,0.9-0.8,1c-0.5,0.1-0.9-0.3-1-0.8
			c-0.1-0.5,0.3-0.9,0.8-1C108.2,25.2,108.7,25.6,108.7,26.1z M107.4,17.3c0.3,0,0.6,0.2,0.6,0.5c0,0.3-0.2,0.6-0.5,0.6
			c-0.3,0-0.6-0.2-0.6-0.5C106.9,17.6,107.1,17.4,107.4,17.3z M104.3,14.4c0.3,0,0.6,0.2,0.6,0.5c0,0.3-0.2,0.6-0.5,0.6
			c-0.3,0-0.6-0.2-0.6-0.5C103.8,14.7,104,14.4,104.3,14.4z M103.1,23.1c0.5-0.1,0.9,0.3,1,0.8c0.1,0.5-0.3,0.9-0.8,1
			c-0.5,0.1-0.9-0.3-1-0.8C102.3,23.5,102.6,23.1,103.1,23.1z M101,18.6c0.6-0.1,1.1,0.4,1.2,1c0.1,0.6-0.4,1.1-1,1.2
			s-1.1-0.4-1.2-1C100,19.2,100.4,18.7,101,18.6z M98.8,14.4c0.5-0.1,0.9,0.3,1,0.8c0.1,0.5-0.3,0.9-0.8,1c-0.5,0.1-0.9-0.3-1-0.8
			C98,14.8,98.4,14.4,98.8,14.4z M95.2,19.6c0.1,0.5-0.3,0.9-0.8,1c-0.5,0.1-0.9-0.3-1-0.8c-0.1-0.5,0.3-0.9,0.8-1
			C94.8,18.8,95.2,19.1,95.2,19.6z M93.2,12.7c0.3,0,0.6,0.2,0.6,0.5c0,0.3-0.2,0.6-0.5,0.6c-0.3,0-0.6-0.2-0.6-0.5
			S92.9,12.8,93.2,12.7z M92.5,15.8c0.4,0,0.8,0.3,0.9,0.7c0,0.4-0.3,0.8-0.7,0.9c-0.4,0-0.8-0.3-0.9-0.7
			C91.8,16.2,92.1,15.8,92.5,15.8z M88.6,14.6c0.3,0,0.6,0.2,0.6,0.5c0,0.3-0.2,0.6-0.5,0.6c-0.3,0-0.6-0.2-0.6-0.5
			C88.1,14.9,88.3,14.6,88.6,14.6z M88.6,20c0.5-0.1,0.9,0.3,1,0.8c0.1,0.5-0.3,0.9-0.8,1c-0.5,0.1-0.9-0.3-1-0.8
			C87.8,20.5,88.1,20,88.6,20z M85.5,13c0.3,0,0.6,0.2,0.6,0.5c0,0.3-0.2,0.6-0.5,0.6c-0.3,0-0.6-0.2-0.6-0.5
			C85,13.4,85.2,13.1,85.5,13z M83.7,17.2c0.5-0.1,0.9,0.3,1,0.8c0.1,0.5-0.3,0.9-0.8,1c-0.5,0.1-0.9-0.3-1-0.8
			C82.8,17.7,83.2,17.2,83.7,17.2z M83.1,22.1c0.1,0.6-0.4,1.1-1,1.2c-0.6,0.1-1.1-0.4-1.2-1c-0.1-0.6,0.4-1.1,1-1.2
			C82.5,21.1,83,21.5,83.1,22.1z M80.8,14.4c0.3,0,0.6,0.2,0.6,0.5c0,0.3-0.2,0.6-0.5,0.6c-0.3,0-0.6-0.2-0.6-0.5
			C80.3,14.7,80.5,14.4,80.8,14.4z M79.2,22.7c0,0.3-0.2,0.6-0.5,0.6c-0.3,0-0.6-0.2-0.6-0.5c0-0.3,0.2-0.6,0.5-0.6
			C78.9,22.2,79.1,22.4,79.2,22.7z M77.9,18.5c0.5-0.1,0.9,0.3,1,0.8c0.1,0.5-0.3,0.9-0.8,1c-0.5,0.1-0.9-0.3-1-0.8
			C77.1,19,77.5,18.5,77.9,18.5z M76.7,14.8c0.3,0,0.6,0.2,0.6,0.5c0,0.3-0.2,0.6-0.5,0.6c-0.3,0-0.6-0.2-0.6-0.5
			C76.1,15.1,76.4,14.9,76.7,14.8z M76.4,22.5c0.3,0,0.6,0.2,0.6,0.5c0,0.3-0.2,0.6-0.5,0.6c-0.3,0-0.6-0.2-0.6-0.5
			C75.9,22.8,76.1,22.5,76.4,22.5z M75.6,24.4c0.3,0,0.6,0.2,0.6,0.5c0,0.3-0.2,0.6-0.5,0.6c-0.3,0-0.6-0.2-0.6-0.5
			C75.1,24.7,75.3,24.4,75.6,24.4z M73.6,14.7c0.3,0,0.6,0.2,0.6,0.5c0,0.3-0.2,0.6-0.5,0.6c-0.3,0-0.6-0.2-0.6-0.5
			C73.1,15,73.3,14.7,73.6,14.7z M71.7,25.8c-0.5,0.1-0.9-0.3-1-0.8c-0.1-0.5,0.3-0.9,0.8-1c0.5-0.1,0.9,0.3,1,0.8
			C72.6,25.4,72.2,25.8,71.7,25.8z M72,21.3c-0.3,0-0.6-0.2-0.6-0.5c0-0.3,0.2-0.6,0.5-0.6c0.3,0,0.6,0.2,0.6,0.5S72.3,21.3,72,21.3
			z M71.3,17.5c0.5-0.1,0.9,0.3,1,0.8c0.1,0.5-0.3,0.9-0.8,1c-0.5,0.1-0.9-0.3-1-0.8C70.5,18,70.8,17.6,71.3,17.5z M69.2,16.1
			c0.3,0,0.6,0.2,0.6,0.5c0,0.3-0.2,0.6-0.5,0.6c-0.3,0-0.6-0.2-0.6-0.5C68.7,16.4,68.9,16.2,69.2,16.1z M68.3,18.2
			c0.5-0.1,0.9,0.3,1,0.8c0.1,0.5-0.3,0.9-0.8,1c-0.5,0.1-0.9-0.3-1-0.8C67.5,18.7,67.9,18.3,68.3,18.2z M67.5,22.3
			c0.5-0.1,0.9,0.3,1,0.8c0.1,0.5-0.3,0.9-0.8,1c-0.5,0.1-0.9-0.3-1-0.8C66.7,22.8,67,22.3,67.5,22.3z M66.4,29.8
			c0.1,0.5-0.3,0.9-0.8,1c-0.5,0.1-0.9-0.3-1-0.8c-0.1-0.5,0.3-0.9,0.8-1C65.9,29,66.3,29.3,66.4,29.8z M65.2,23.7
			c0,0.3-0.2,0.6-0.5,0.6c-0.3,0-0.6-0.2-0.6-0.5c0-0.3,0.2-0.6,0.5-0.6C64.9,23.2,65.1,23.5,65.2,23.7z M63.9,19
			c0.5-0.1,0.9,0.3,1,0.8c0.1,0.5-0.3,0.9-0.8,1c-0.5,0.1-0.9-0.3-1-0.8C63,19.5,63.4,19.1,63.9,19z M63.9,30.7
			c0.1,0.5-0.3,0.9-0.8,1c-0.5,0.1-0.9-0.3-1-0.8c-0.1-0.5,0.3-0.9,0.8-1C63.4,29.9,63.8,30.3,63.9,30.7z M62.7,26.2
			c0.1,0.6-0.4,1.1-1,1.2c-0.6,0.1-1.1-0.4-1.2-1c-0.1-0.6,0.4-1.1,1-1.2C62.1,25.2,62.7,25.6,62.7,26.2z M60.2,21.3
			c0.5-0.1,0.9,0.3,1,0.8c0.1,0.5-0.3,0.9-0.8,1c-0.5,0.1-0.9-0.3-1-0.8C59.4,21.8,59.7,21.3,60.2,21.3z M58,38.8
			c-0.5,0.1-0.9-0.3-1-0.8c-0.1-0.5,0.3-0.9,0.8-1c0.5-0.1,0.9,0.3,1,0.8C58.8,38.3,58.4,38.8,58,38.8z M58.6,32.4
			c0.1,0.5-0.3,0.9-0.8,1c-0.5,0.1-0.9-0.3-1-0.8c-0.1-0.5,0.3-0.9,0.8-1C58.2,31.6,58.6,32,58.6,32.4z M56.5,24.3
			c0.3,0,0.6,0.2,0.6,0.5c0,0.3-0.2,0.6-0.5,0.6c-0.3,0-0.6-0.2-0.6-0.5C56,24.6,56.2,24.4,56.5,24.3z M56.6,27.4
			c0.5-0.1,0.9,0.3,1,0.8c0.1,0.5-0.3,0.9-0.8,1c-0.5,0.1-0.9-0.3-1-0.8C55.7,27.9,56.1,27.5,56.6,27.4z M54.3,41.7
			c-0.5,0-0.9-0.3-0.9-0.8c0-0.5,0.3-0.9,0.8-0.9c0.5,0,0.9,0.3,0.9,0.8C55.1,41.2,54.7,41.6,54.3,41.7z M54,34.7
			c0.5-0.1,0.9,0.3,1,0.8c0.1,0.5-0.3,0.9-0.8,1c-0.5,0.1-0.9-0.3-1-0.8C53.2,35.2,53.6,34.8,54,34.7z M51.9,30.3
			c0.5-0.1,0.9,0.3,1,0.8c0.1,0.5-0.3,0.9-0.8,1s-0.9-0.3-1-0.8C51.1,30.8,51.4,30.4,51.9,30.3z M51.4,42.2c0,0.5-0.3,0.9-0.8,0.9
			c-0.5,0-0.9-0.3-0.9-0.8c0-0.5,0.3-0.9,0.8-0.9C50.9,41.4,51.3,41.7,51.4,42.2z M50.1,33.3c0.5-0.1,0.9,0.3,1,0.8
			c0.1,0.5-0.3,0.9-0.8,1c-0.5,0.1-0.9-0.3-1-0.8C49.3,33.8,49.6,33.3,50.1,33.3z M42.1,57.5c-0.3,0-0.6-0.2-0.6-0.5
			c0-0.3,0.2-0.6,0.5-0.6s0.6,0.2,0.6,0.5C42.6,57.2,42.4,57.5,42.1,57.5z M42.3,47c-0.3,0-0.6-0.2-0.6-0.5c0-0.3,0.2-0.6,0.5-0.6
			c0.3,0,0.6,0.2,0.6,0.5S42.6,46.9,42.3,47z M44.5,53.3c-0.3,0-0.6-0.2-0.6-0.5c0-0.3,0.2-0.6,0.5-0.6s0.6,0.2,0.6,0.5
			C45,53,44.8,53.3,44.5,53.3z M45.5,45.8c-0.5,0-0.9-0.3-0.9-0.8c0-0.5,0.3-0.9,0.8-0.9c0.5,0,0.9,0.3,0.9,0.8
			C46.4,45.3,46,45.8,45.5,45.8z M45.6,41.5c-0.5,0-0.9-0.3-0.9-0.8c0-0.5,0.3-0.9,0.8-0.9c0.5,0,0.9,0.3,0.9,0.8
			C46.4,41,46,41.4,45.6,41.5z M47,49.1c-0.3,0-0.6-0.2-0.6-0.5c0-0.3,0.2-0.6,0.5-0.6c0.3,0,0.6,0.2,0.6,0.5
			C47.5,48.8,47.3,49.1,47,49.1z M47.1,37.1c-0.3,0-0.6-0.2-0.6-0.5c0-0.3,0.2-0.6,0.5-0.6c0.3,0,0.6,0.2,0.6,0.5
			C47.6,36.8,47.4,37,47.1,37.1z M48.8,62.9c-0.3,0-0.6-0.2-0.6-0.5c0-0.3,0.2-0.6,0.5-0.6c0.3,0,0.6,0.2,0.6,0.5
			C49.3,62.6,49.1,62.9,48.8,62.9z M26.2,138.5c-0.5-1.3-0.3-2.5,0.4-3.6c0.3-0.4,0.6-0.6,1-0.9c1,0,2.1-0.3,3.3-0.8
			c4,0,9.4,2,11.8,3.2l12.1,5.6c4.5,2.4,9,4.3,11.8,5.4c0,0,0,0-0.1,0c-4.1,0.6-6.7,1.8-7.8,3.7c-0.8,1.4-0.9,3-0.3,4.9
			c0.1,0.2,0.1,0.4,0.1,0.6C53.6,155.3,29.2,146.5,26.2,138.5z M68.8,155.8c-0.2,0.4-0.5,0.9-0.8,1.6c-0.2,0.3-0.4,0.7-0.6,1.1
			c-0.3,0.5-0.6,1.2-1,1.8c-2.2,4-5.7,9.9-7.9,10.7c-0.3-0.9,0.4-4.3,0.9-6.5c0.4-1.9,0.8-3.8,1-5.4c0.1-0.7,0.1-1.4,0.1-2
			c0-0.6-0.1-1.2-0.2-1.7c-0.4-1.3-0.4-2.4,0.1-3.2c0.9-1.4,3-2.3,6.4-2.8c1.6-0.2,3.1-0.4,4.6-0.5c1.8-0.1,3.4-0.2,5-0.2
			c0.6,0,1.3,0,1.9-0.1c0.1,0.3,0.2,0.6,0.3,1c0.3,1.1,0.8,2.5,1.1,3.4C72.3,153.9,69.4,154.7,68.8,155.8z M94.3,159.1
			c-1.5,0.2-3.6,0.4-6.9,0.8c-5.7,0.6-12.3-0.1-17.9-1c0.1-0.2,0.2-0.3,0.3-0.5c0.3-0.6,0.6-1.1,0.8-1.5c1.5-1.2,14.1-2.5,24.4-3.5
			c0.2,0.7,0.7,3.1,1.1,5.5C95.5,158.9,94.9,159,94.3,159.1z M114.7,156c7.5,2,7.8,3.8,7.8,3.9c0,0.2-0.3,0.5-0.5,0.5
			c-3,1.7-12.4,0.3-17-0.5c-0.6-0.1-1.2-0.2-1.6-0.3c-1.7-0.3-2.8-0.5-3.6-0.6c-0.8-0.2-1.4-0.2-1.9-0.3c-0.5-3.1-0.8-4.7-1.1-5.6
			c0.1,0,0.2,0,0.3,0c3.2-0.3,6.3-0.6,9.2-0.9c0.2,0,0.4,0.1,0.6,0.1c1,0.2,1.7,0.6,2.7,1.3C110.9,154.4,112.3,155.3,114.7,156z
			 M152.9,134.3c-3.2,6.3-21.8,12.4-37.7,14.9c-2.3,0.4-5.3,0.7-8.7,1.1c-2.8,0.3-5.8,0.6-8.9,0.9c-0.2,0-0.4,0-0.5,0.1
			c-6.4,0.6-11.4,1.1-15.3,1.6c-0.2-0.7-0.6-1.9-1-3c-0.1-0.4-0.3-0.9-0.4-1.3c-0.1-0.3-0.1-0.5-0.2-0.7c0,0,0,0,0-0.1l0,0
			c0,0,0,0,0,0.1c0,0.2,0.1,0.4,0.2,0.7c1.4-0.1,2.8-0.2,4.2-0.5c-0.3,0-0.6,0-0.9-0.1c0.3,0,0.6,0,0.9,0.1c1.4-0.2,2.8-0.5,4.3-1
			c7.3-2.2,32.4-10.7,33-10.9c13.9-4.3,29.7-7.5,31.1-5.1C153.5,132.1,153.5,133.2,152.9,134.3z M121.6,109.3
			c2,3.5,5.1,8.6,8.1,11.1c3.2,2.6,7,5.2,11.1,7.5c0.5,0.4,1.4,0.7,2.3,1c-7.3,1.1-16.2,3.6-20.8,5l-1.3-8L121.6,109.3z
			 M151.2,128.1c0.3,0.2,0.6,0.4,0.9,0.5c-0.3-0.1-0.5-0.1-0.8-0.1C151.2,128.4,151.2,128.3,151.2,128.1z M158.9,128.6
			c-0.1,0.3-0.3,0.5-0.5,0.5c-0.8,0.3-2.2-0.2-3-0.6c-0.1,0-0.1-0.1-0.1-0.1c-0.5-0.4-2.6-1.9-6.2-3.7l-0.9-0.5
			c-0.5-0.2-1.1-0.1-1.3,0.4c-0.2,0.5-0.1,1.1,0.4,1.3l0.6,0.3c0.1,0.1,0.7,0.3,0.9,0.4c1.1,0.5,1.3,1.6,0.4,1.8c-0.1,0-0.3,0-0.4,0
			c-2.7-0.3-5.4-1.4-6.6-2.2c-4.1-2.3-7.7-4.8-10.9-7.4c-4.5-3.6-9.5-14.1-9.6-14.2c-0.2-0.5-0.8-0.7-1.3-0.5
			c-0.5,0.2-0.7,0.7-0.5,1.2l-0.6,20.6l0,0.1l1.4,8.5c-4.4,1.5-25.6,8.6-32.2,10.6c-4.3,1.3-7.8,1.4-11.9,1.5
			c-1.5,0-3.1,0.1-4.9,0.2c-0.8-0.1-1.4-0.3-1.8-0.4l-0.4-0.2c-1.9-0.7-7.8-2.9-13.6-6.1l-12.2-5.6c-0.2-0.1-3.6-1.7-7.4-2.6
			c-0.6-0.2-1.2-0.3-1.8-0.4c1.4-0.7,2.5-1.5,3.2-1.9c1.6-1,6.8-4.5,9.2-7.9c4-5.8,6.6-10.3,8-12.8c1.1,3.6,3.5,11.2,3.9,12.3
			c0.1,0.6-0.6,3.3-1.2,5.4c-1.1,4.1-2.3,8.8-1.9,11c0.1,0.5,0.5,0.8,1,0.8c0.1,0,0.1,0,0.2,0c0.5-0.1,0.9-0.6,0.8-1.2
			c-0.4-1.8,0.9-6.6,1.8-10.2c1.1-4.1,1.4-5.6,1.2-6.5c-0.5-1.4-4.5-14.1-4.5-14.2c0-0.1-0.1-0.1-0.1-0.2c-0.1-0.3-0.2-0.5-0.5-0.6
			c-0.5-0.2-1.1,0-1.3,0.4c0,0.1-3,5.9-8.9,14.6c-2.2,3.2-7.6,6.7-8.7,7.4c-5.8,3.8-9.1,4.4-9.5,4c0,0,0,0,0,0c0,0,0,0,0,0
			c-0.2-0.2-0.2-0.3-0.2-0.3c0-0.6,1.3-1.6,2-2.2l0.2-0.2c0,0,0,0,0,0c0.1-0.1,0.2-0.1,0.2-0.1c0,0,0.4-0.3,0.5-0.8
			c0.1-0.4-0.2-0.7-0.2-0.7c-0.6-0.7-1.3-0.2-1.6,0.1c-0.5,0.3-1.4,1.1-2.6,2.2c-0.2,0.2-0.3,0.5-0.6,0.9c-0.5,0.8-1.3,2.3-2.2,2.5
			c-0.1,0-0.4,0.1-0.7-0.2c-0.5-0.3-0.8-0.8-0.8-1.4c-0.1-2.3,2.9-6,3.7-6.6c1.6-1.4,4.2-1.9,6.7-2.4c2.9-0.6,5.9-1.2,7.6-3.2
			c2.3-2.8,7.9-12.5,11.8-26.1c9.2,10.6,22.7,17.4,37.8,17.4c14.1,0,27.1-5.9,36.4-15.7c2.6,6.4,7.3,16.8,11.4,20.7
			c3,3,6.8,3.7,9.4,4.1l0.8,0.1c0.8,0.2,3.1,1.1,4.1,1.5C157,124.9,159.3,127.5,158.9,128.6z"/>
	</g>
</g>
</svg>
