<?xml version="1.0" encoding="utf-8"?>
<!-- Generator: Adobe Illustrator 25.2.1, SVG Export Plug-In . SVG Version: 6.00 Build 0)  -->
<svg version="1.1" id="screenshot-209433a5-705b-80d2-8004-2361bf0a678f"
	 xmlns="http://www.w3.org/2000/svg" xmlns:xlink="http://www.w3.org/1999/xlink" x="0px" y="0px" viewBox="0 0 180 180"
	 style="enable-background:new 0 0 180 180;" xml:space="preserve">
<style type="text/css">
	.st0{fill:none;}
	.st1{fill:#3E4FF7;}
</style>
<g id="shape-209433a5-705b-80d2-8004-2361bf0a6791">
	<g id="shape-209433a5-705b-80d2-8004-2361bf0a6796">
		<g id="shape-209433a5-705b-80d2-8004-2361bf0a67df">
			<g id="strokes-209433a5-705b-80d2-8004-2361bf0a67df">
				<g>
					<path class="st0" d="M-246.7,3.6"/>
					<path class="st1" d="M-390.6,671.9"/>
				</g>
			</g>
		</g>
	</g>
	<g id="shape-209433a5-705b-80d2-8004-2361bf0a6799">
		<g id="shape-209433a5-705b-80d2-8004-2361bf0a67e2">
			<g id="strokes-209433a5-705b-80d2-8004-2361bf0a67e2">
				<g>
					<path class="st1" d="M-246.7,3.6"/>
					<path class="st1" d="M-288.5,684.3"/>
				</g>
			</g>
		</g>
	</g>
</g>
<g>
	<path class="st1" d="M80.6,61.5c2.6-0.6,4.6-2.1,5.2-3.6c0.3-0.8,0.2-1.5-0.3-2.4c-1.9-2.8-3.4-3.2-6.4-1.8
		c-0.8,0.4-1.2,0.5-1.5,0.6c-0.2,0.1-0.2,0.1-1.5,1.3c-0.6,0.5-0.4,2.1,0.3,3.4C77.2,60.5,78.7,61.9,80.6,61.5z"/>
	<path class="st1" d="M101.7,64.6c2.9,0,6.5-0.9,6.5-4.9c0-3.9-2.7-7-5.9-7c-1.7,0-3.4,0.9-4.4,2.4c-1,1.3-1.5,2.9-1.5,4.6
		c0.1,2.3,0.4,2.7,1.8,4.1C99,64.6,100.2,64.6,101.7,64.6z"/>
	<path class="st1" d="M165.5,109.4c-0.8-3.4-5.7-6.8-5.7-6.9c-1.4-1-4.1-2.7-5.4-3.5c0.2-0.4,0.5-0.9,1.2-1.5
		c0.5-0.5,1.3-1.3,2.1-2.4c1.1-1.6,1.5-2.9,1.3-4c-0.2-0.9-0.8-1.5-1.6-1.9c-2.3-1.2-8.8,5.3-9.6,6.7c-0.1,0.2-0.3,0.5-0.5,1
		c-4.6-1.5-14.1-9.3-18.3-15.9c5.4-6.6,26.8-21.8,26.8-30.6c0-9.1-35.5-11.1-36.2-11.9C117,36.1,101.5,1.6,92,0.9
		c-7.8-0.5-24.4,34-26.8,36.4c-2.8,2.8-42.2,4.2-39.8,16.1c2.2,11.2,25,26.5,26.7,31c0.1,0.2,0.1,0.4,0.1,0.6
		c-1.1,1.6-4.5,5.6-9.2,9.4c-3.2,2.6-6.3,4.3-9.1,5.3c-0.3-0.5-0.5-0.9-0.6-1c-1.2-1.7-7.6-6.2-9.7-5.2c-0.9,0.4-1.5,1.1-1.6,1.9
		c-0.2,1.1,0.1,2.4,1.3,3.9c0.8,1,1.5,1.7,2.1,2.3c0.6,0.6,1,1,1.2,1.3c-1.3,0.8-4,2.3-5.3,3.2c0,0-5,3.4-5.8,6.6
		c-0.8,3,2.7,6.5,4.9,7.2c0.2,0.1,0.4,0.1,0.6,0.1c1.3,0,2.8-1,4.6-2.2c1.7-1.1,3.7-2.4,5.3-2.7c3.5-0.5,5.8-2.3,6.7-4.8
		c1.5-0.3,6.8-1.4,11.1-4.2c-2.4,13-3.9,26.9,2.8,27.6c2.2,0.2,6.4-1.3,11.2-3.5c0.2,2.9,0.9,13.3,1.2,20.6c0.2,5.6,0.1,7.1,0,7.6
		c-0.3,1.8-2.7,4-5.3,6.3c-1,0.9-1.9,1.7-2.9,2.7c-2.6,2.5-3.7,6.3-2.6,8.9c0.6,1.6,2.1,2.6,3.9,2.6h0.2c0.1,0,0.1,0,0.2,0
		c1.8,0,4.5,0,8.2-1.6c5.4-2.2,8.6-5,9.8-8.1c1.6-4.5,1.6-11.6,1.6-17.2c0-2.8,0-5.3,0.2-7c0.6-5.4-0.5-21.1-0.6-21.7
		c0-0.1,0-0.2-0.1-0.3c5.9-3.4,10.8-6.3,11.6-6.6c1.7-0.9,6.8,2.2,12.9,5.8c0.2,2.3,1,13,1,22.6c0,1.6-0.2,4.5-0.3,6.9
		c-0.1,1.8-0.2,3.4-0.2,4c0,1.9,0,8,0.6,11c1,4.1,5.7,6.5,9.3,8c3.6,1.5,7.7,1.5,9.6,1.5c0.1,0,0.1,0,0.2,0h0.4c1.8,0,3.4-1,4.1-2.6
		c1-2.4,0.1-5.4-2.1-7.8c-2.1-2.1-4.6-2.5-6.5-2.9c-0.8-0.1-1.8-0.3-2.1-0.6c0-0.3,0.1-1.4,0.1-2.8c0.2-3.9,0.5-10.3,0.4-16.1
		c-0.1-6.1-0.5-11.3-0.8-13.9c7.1,3.2,13.5,4.6,16.3-0.1c3.2-5.6,1.4-17.7-0.8-28.3c2.1,1.4,4.6,2.8,6.5,3.6c0.5,0.2,1,0.4,1.5,0.6
		c1.6,0.8,3.2,1.5,5,1.6c0,0,0,0,0.1,0c1,2.4,3.4,4.1,6.6,4.6c1.5,0.3,3.5,1.6,5.3,2.8c1.8,1.3,3.4,2.3,4.6,2.3c0.2,0,0.4,0,0.6-0.1
		C162.8,116.2,166.2,112.6,165.5,109.4z M35.7,109.8c-0.5,1.7-2.5,3-5.1,3.5c-1.9,0.3-4.2,1.7-6.1,2.9c-1.2,0.8-3,1.9-3.5,1.8
		c-0.5-0.2-1.2-0.6-1.8-1.2l1.8-1.7l5.5-3.6c0.5-0.3,0.6-1,0.3-1.5c-0.3-0.5-1-0.6-1.5-0.3l-5.5,3.6l-2.1,1.8
		c-0.3-0.6-0.4-1.2-0.3-1.7c0.4-1.8,3.6-4.4,4.9-5.3c1.1-0.8,3.2-2.1,4.6-2.8c0.6,1.8,1.9,3.8,2.3,4.3c0.3,0.5,1,0.6,1.5,0.3
		c0.5-0.3,0.6-1,0.3-1.5c-0.9-1.4-2.2-3.8-2.2-4.8c0-1.5-1-2.5-1.9-3.5c-0.5-0.5-1.2-1.2-1.8-1.9c-1-1.3-1-1.9-0.9-2.1
		c0-0.1,0.1-0.2,0.4-0.4c1.2,0,6.1,2.9,7,4.3C33.2,102.2,36,108.6,35.7,109.8z M48.3,120.3c-0.3,0-0.5-0.2-0.5-0.5
		c0-0.3,0.2-0.5,0.5-0.5c0.3,0,0.5,0.2,0.5,0.5C48.9,120.1,48.5,120.3,48.3,120.3z M48.9,115.2c0-0.4,0.3-0.9,0.8-0.9
		c0.4,0,0.9,0.3,0.9,0.9c0,0.5-0.3,0.9-0.9,0.9C49.2,116,48.9,115.7,48.9,115.2z M49.4,123.9c0-0.4,0.3-0.9,0.9-0.9
		c0.5,0,0.9,0.3,0.9,0.9s-0.3,0.9-0.9,0.9C49.7,124.7,49.4,124.3,49.4,123.9z M50.7,128.9c-0.4,0-0.9-0.3-0.9-0.9
		c0-0.5,0.3-0.9,0.9-0.9c0.5,0,0.9,0.3,0.9,0.9C51.6,128.6,51.1,128.9,50.7,128.9z M49.3,103.2c-3.7,3.4-9.6,4.8-11.7,5.2
		c-0.4-1.9-1.6-4.6-2.6-6.7c2.9-1.1,6.1-2.9,9.4-5.6c2.6-2.1,5.5-4.9,7.6-7.2C51.5,92.5,50.4,97.6,49.3,103.2z M56.4,122.5
		c0,0.6-0.4,1.1-1.1,1.1s-1.1-0.4-1.1-1.1c0-0.6,0.4-1.1,1.1-1.1S56.4,121.9,56.4,122.5z M54.8,113.8c0,0.3-0.2,0.5-0.5,0.5
		c-0.3,0-0.5-0.2-0.5-0.5c0-0.3,0.2-0.5,0.5-0.5C54.6,113.3,54.8,113.5,54.8,113.8z M53.7,107.9c0.3,0,0.5,0.2,0.5,0.5
		c0,0.3-0.2,0.5-0.5,0.5c-0.3,0-0.5-0.2-0.5-0.5C53.2,108.1,53.4,107.9,53.7,107.9z M53.4,118.7c-0.4,0-0.9-0.3-0.9-0.9
		s0.3-0.9,0.9-0.9c0.5,0,0.9,0.3,0.9,0.9S53.8,118.7,53.4,118.7z M55,131.1c-0.4,0-0.9-0.3-0.9-0.9s0.3-0.9,0.9-0.9
		c0.5,0,0.9,0.3,0.9,0.9S55.5,131.1,55,131.1z M56.1,127.9c-0.4,0-0.9-0.3-0.9-0.9c0-0.5,0.3-0.9,0.9-0.9c0.5,0,0.9,0.3,0.9,0.9
		C57,127.5,56.5,127.9,56.1,127.9z M57.5,116.3c0-0.4,0.3-0.9,0.9-0.9c0.5,0,0.9,0.3,0.9,0.9s-0.3,0.9-0.9,0.9
		C57.8,117.2,57.5,116.7,57.5,116.3z M59.1,120.3c0,0.3-0.2,0.5-0.5,0.5c-0.3,0-0.5-0.2-0.5-0.5c0-0.3,0.2-0.5,0.5-0.5
		C58.9,119.8,59.1,120,59.1,120.3z M58.8,127.3c-0.4,0-0.9-0.3-0.9-0.9s0.3-0.9,0.9-0.9c0.5,0,0.9,0.3,0.9,0.9
		S59.2,127.3,58.8,127.3z M58.8,112.7c-0.4,0-0.9-0.3-0.9-0.9s0.3-0.9,0.9-0.9c0.5,0,0.9,0.3,0.9,0.9S59.2,112.7,58.8,112.7z
		 M61.5,123.5c-0.4,0-0.9-0.3-0.9-0.9c0-0.5,0.3-0.9,0.9-0.9c0.5,0,0.9,0.3,0.9,0.9C62.4,123.2,61.9,123.5,61.5,123.5z M61.5,120.8
		c-0.4,0-0.9-0.3-0.9-0.9s0.3-0.9,0.9-0.9c0.5,0,0.9,0.3,0.9,0.9S61.9,120.8,61.5,120.8z M127.8,110.6c0.3,0,0.5,0.2,0.5,0.5
		s-0.2,0.5-0.5,0.5c-0.3,0-0.5-0.2-0.5-0.5S127.4,110.6,127.8,110.6z M128.3,114.9c-0.3,0-0.5-0.2-0.5-0.5c0-0.3,0.2-0.5,0.5-0.5
		c0.3,0,0.5,0.2,0.5,0.5C128.9,114.7,128.5,114.9,128.3,114.9z M129.4,118.1c0,0.3-0.2,0.5-0.5,0.5s-0.5-0.2-0.5-0.5
		c0-0.3,0.2-0.5,0.5-0.5S129.4,117.8,129.4,118.1z M126.7,115.4c0.3,0,0.5,0.2,0.5,0.5c0,0.3-0.2,0.5-0.5,0.5
		c-0.3,0-0.5-0.2-0.5-0.5C126.1,115.7,126.4,115.4,126.7,115.4z M125.1,113.3c0.3,0,0.5,0.2,0.5,0.5c0,0.3-0.2,0.5-0.5,0.5
		s-0.5-0.2-0.5-0.5C124.5,113.5,124.7,113.3,125.1,113.3z M122.9,119.8c0.3,0,0.5,0.2,0.5,0.5c0,0.3-0.2,0.5-0.5,0.5
		c-0.3,0-0.5-0.2-0.5-0.5C122.4,120,122.6,119.8,122.9,119.8z M118.8,120.3c0.4,0,0.9,0.3,0.9,0.9c0,0.5-0.3,0.9-0.9,0.9
		s-0.9-0.3-0.9-0.9C117.9,120.6,118.4,120.3,118.8,120.3z M115.6,114.4c0.4,0,0.9,0.3,0.9,0.9c0,0.5-0.3,0.9-0.9,0.9
		c-0.5,0-0.9-0.3-0.9-0.9C114.7,114.7,115.1,114.4,115.6,114.4z M114.3,121.2c0,0.4-0.3,0.9-0.9,0.9c-0.5,0-0.9-0.3-0.9-0.9
		c0-0.5,0.3-0.9,0.9-0.9C113.9,120.3,114.3,120.7,114.3,121.2z M112.6,117.6c0.3,0,0.5,0.2,0.5,0.5c0,0.3-0.2,0.5-0.5,0.5
		c-0.3,0-0.5-0.2-0.5-0.5C112.1,117.8,112.3,117.6,112.6,117.6z M112.1,123.5c0.6,0,1.1,0.4,1.1,1.1c0,0.6-0.4,1.1-1.1,1.1
		c-0.6,0-1.1-0.4-1.1-1.1C111,124,111.4,123.5,112.1,123.5z M111,116c0,0.3-0.2,0.5-0.5,0.5c-0.3,0-0.5-0.2-0.5-0.5
		c0-0.3,0.2-0.5,0.5-0.5C110.8,115.4,111,115.7,111,116z M110.5,119.2c0,0.3-0.2,0.5-0.5,0.5s-0.5-0.2-0.5-0.5s0.2-0.5,0.5-0.5
		S110.5,118.9,110.5,119.2z M96.1,53.8c1.5-2.1,3.8-3.2,6.2-3.2c4.4,0,8.1,4.1,8.1,9.2c0,4.4-3.2,7-8.6,7c-1.7,0-3.6,0-5.1-1.4
		c-1.8-1.7-2.5-2.8-2.5-5.6C94.3,57.6,94.9,55.4,96.1,53.8z M108,120.8c0.4,0,0.9,0.3,0.9,0.9s-0.3,0.9-0.9,0.9
		c-0.5,0-0.9-0.3-0.9-0.9S107.6,120.8,108,120.8z M106.7,114.4c-0.3,0-0.5-0.2-0.5-0.5c0-0.3,0.2-0.5,0.5-0.5c0.3,0,0.5,0.2,0.5,0.5
		C107.2,114.1,106.9,114.4,106.7,114.4z M105.1,116.5c0,0.3-0.2,0.5-0.5,0.5c-0.3,0-0.5-0.2-0.5-0.5c0-0.3,0.2-0.5,0.5-0.5
		C104.9,116,105.1,116.2,105.1,116.5z M74.6,54.1c1.5-1.5,1.6-1.6,2.4-1.8c0.2-0.1,0.5-0.2,1.2-0.5c4-1.9,6.5-1.3,9.1,2.5
		c1,1.4,1.2,2.9,0.5,4.3c-0.9,2.2-3.5,4.1-6.7,4.9c-0.4,0.1-0.9,0.1-1.2,0.1c-2.2,0-4.1-1.3-5.4-3.6C73.2,57.9,73.3,55.6,74.6,54.1z
		 M73.2,117.4c0,0.4-0.3,0.9-0.9,0.9c-0.5,0-0.9-0.3-0.9-0.9c0-0.5,0.3-0.9,0.9-0.9C72.9,116.5,73.2,116.9,73.2,117.4z M73.2,120.8
		c0,0.3-0.2,0.5-0.5,0.5c-0.3,0-0.5-0.2-0.5-0.5s0.2-0.5,0.5-0.5C73,120.3,73.2,120.5,73.2,120.8z M71.6,112.7
		c0.3,0,0.5,0.2,0.5,0.5s-0.2,0.5-0.5,0.5c-0.3,0-0.5-0.2-0.5-0.5S71.2,112.7,71.6,112.7z M70.5,120.3c0.3,0,0.5,0.2,0.5,0.5
		s-0.2,0.5-0.5,0.5s-0.5-0.2-0.5-0.5S70.2,120.3,70.5,120.3z M69.9,122.5c0.3,0,0.5,0.2,0.5,0.5s-0.2,0.5-0.5,0.5s-0.5-0.2-0.5-0.5
		S69.6,122.5,69.9,122.5z M68.3,108.4c0.3,0,0.5,0.2,0.5,0.5s-0.2,0.5-0.5,0.5s-0.5-0.2-0.5-0.5S68,108.4,68.3,108.4z M67.5,120.3
		c0.4,0,0.9,0.3,0.9,0.9c0,0.5-0.3,0.9-0.9,0.9s-0.9-0.3-0.9-0.9C66.6,120.6,67,120.3,67.5,120.3z M66.2,118.7
		c-0.3,0-0.5-0.2-0.5-0.5c0-0.3,0.2-0.5,0.5-0.5s0.5,0.2,0.5,0.5C66.7,118.5,66.4,118.7,66.2,118.7z M65.8,114.9
		c0.4,0,0.9,0.3,0.9,0.9s-0.3,0.9-0.9,0.9c-0.5,0-0.9-0.3-0.9-0.9S65.4,114.9,65.8,114.9z M64,111.7c0.3,0,0.5,0.2,0.5,0.5
		c0,0.3-0.2,0.5-0.5,0.5s-0.5-0.2-0.5-0.5C63.5,111.9,63.7,111.7,64,111.7z M63.5,125.5c0-0.4,0.3-0.9,0.9-0.9
		c0.5,0,0.9,0.3,0.9,0.9s-0.3,0.9-0.9,0.9C63.8,126.4,63.5,125.9,63.5,125.5z M65,175.6c-3.5,1.4-5.8,1.4-7.7,1.4h-0.2
		c-1,0-1.6-0.4-1.9-1.2c-0.6-1.5,0-4.4,2.1-6.5c0.9-0.9,1.8-1.8,2.8-2.6c1.3-1.2,2.5-2.3,3.5-3.4c0.2,0,0.3,0.1,0.5,0.1
		c2.8,0.5,8.2,1.7,9.6,5.3C72.6,171.4,69.7,173.8,65,175.6z M75.3,145.2c-0.2,1.8-0.2,4.3-0.2,7.2c0,4.3,0,9.5-0.8,13.5
		c-2.4-2.8-6.7-3.9-9.3-4.4c0.4-0.8,0.9-1.5,1-2.3c0.1-0.5,0.2-2.1,0-8.1c-0.3-8.6-1.2-21.4-1.2-21.5c3.2-1.6,6.7-3.4,9.9-5.2
		C75,127.4,75.9,140.5,75.3,145.2z M77,111.1c-0.3,0-0.5-0.2-0.5-0.5c0-0.3,0.2-0.5,0.5-0.5c0.3,0,0.5,0.2,0.5,0.5
		C77.5,110.9,77.2,111.1,77,111.1z M78.3,117.6c-0.4,0-0.9-0.3-0.9-0.9c0-0.5,0.3-0.9,0.9-0.9c0.5,0,0.9,0.3,0.9,0.9
		C79.1,117.3,78.7,117.6,78.3,117.6z M83.5,114.9c-0.3,0-0.5-0.2-0.5-0.5c0-0.3,0.2-0.5,0.5-0.5c0.3,0,0.5,0.2,0.5,0.5
		C84,114.7,83.7,114.9,83.5,114.9z M99.1,116.5c-0.3,0-0.5-0.2-0.5-0.5c0-0.3,0.2-0.5,0.5-0.5c0.3,0,0.5,0.2,0.5,0.5
		C99.7,116.3,99.3,116.5,99.1,116.5z M101.8,119.8c-0.3,0-0.5-0.2-0.5-0.5s0.2-0.5,0.5-0.5s0.5,0.2,0.5,0.5S102,119.8,101.8,119.8z
		 M102.2,79.9c-2.7,2.4-7.6,3.6-9.5,3.9c-0.5,0.1-1.2,0.1-1.8,0.1c-6.4,0-14.5-3.5-14.8-3.6c-0.5-0.2-0.8-0.9-0.5-1.4
		c0.2-0.5,0.9-0.8,1.4-0.5c0.1,0,9.5,4,15.5,3.4c1.8-0.2,6.2-1.4,8.3-3.4c0.4-0.4,1.1-0.3,1.5,0.1C102.7,78.8,102.6,79.4,102.2,79.9
		z M104.3,165.2c-0.2-1.9-0.4-5.1-0.4-9.2c0-0.5,0.1-2.2,0.2-3.9c0.2-2.5,0.3-5.4,0.3-7c0-8.3-0.6-17.3-0.9-21.2
		c2.9,1.7,5.9,3.5,9,5c0.2,1.5,0.9,7.7,1,15c0.1,5.7-0.2,12.1-0.4,16c-0.1,1.5-0.1,2.5-0.1,2.9c0,0.3,0,0.5,0.1,0.8
		c-2.1,0.1-4.3,0.2-5,0.3C106.2,164.1,105,164.5,104.3,165.2z M115.1,165.3l1.7,0.2c1.8,0.3,3.7,0.6,5.2,2.3
		c1.9,1.9,2.2,4.2,1.6,5.4c-0.3,0.9-1.1,1.3-2.1,1.3h-0.2c-1.7,0-5.7,0-9-1.4c-2.7-1.2-6.4-2.9-7.7-5.5c0,0,0-0.1,0-0.2
		c0-0.1,0.2-1.2,3.5-1.6C109.1,165.6,112.9,165.2,115.1,165.3z M115,126.8c-0.4,0-0.9-0.3-0.9-0.9s0.3-0.9,0.9-0.9s0.9,0.3,0.9,0.9
		S115.4,126.8,115,126.8z M115.9,119.2c-0.3,0-0.5-0.2-0.5-0.5c0-0.3,0.2-0.5,0.5-0.5s0.5,0.2,0.5,0.5
		C116.4,119,116.1,119.2,115.9,119.2z M117.5,125.7c-0.6,0-1.1-0.4-1.1-1.1c0-0.6,0.4-1.1,1.1-1.1s1.1,0.4,1.1,1.1
		C118.6,125.3,118,125.7,117.5,125.7z M119.7,128.9c-0.6,0-1.1-0.4-1.1-1.1s0.4-1.1,1.1-1.1s1.1,0.4,1.1,1.1
		S120.2,128.9,119.7,128.9z M120.2,118.7c-0.3,0-0.5-0.2-0.5-0.5c0-0.3,0.2-0.5,0.5-0.5c0.3,0,0.5,0.2,0.5,0.5
		C120.7,118.5,120.4,118.7,120.2,118.7z M120.2,112.7c-0.3,0-0.5-0.2-0.5-0.5c0-0.3,0.2-0.5,0.5-0.5c0.3,0,0.5,0.2,0.5,0.5
		C120.7,112.5,120.4,112.7,120.2,112.7z M121.8,131.2c-0.4,0-0.9-0.3-0.9-0.9s0.3-0.9,0.9-0.9s0.9,0.3,0.9,0.9
		S122.3,131.2,121.8,131.2z M122.9,128.9c-0.6,0-1.1-0.4-1.1-1.1s0.4-1.1,1.1-1.1c0.6,0,1.1,0.4,1.1,1.1S123.4,128.9,122.9,128.9z
		 M122.9,124.6c-0.6,0-1.1-0.4-1.1-1.1c0-0.6,0.4-1.1,1.1-1.1c0.6,0,1.1,0.4,1.1,1.1C124,124.2,123.4,124.6,122.9,124.6z
		 M123.4,117.6c-0.3,0-0.5-0.2-0.5-0.5s0.2-0.5,0.5-0.5s0.5,0.2,0.5,0.5S123.7,117.6,123.4,117.6z M124.5,120.1
		c0-0.4,0.3-0.9,0.9-0.9c0.5,0,0.9,0.3,0.9,0.9s-0.3,0.9-0.9,0.9C124.9,120.9,124.5,120.5,124.5,120.1z M125.8,130.6
		c-0.4,0-0.9-0.3-0.9-0.9c0-0.5,0.3-0.9,0.9-0.9c0.5,0,0.9,0.3,0.9,0.9C126.7,130.2,126.3,130.6,125.8,130.6z M126.7,125.3
		c-0.4,0-0.9-0.3-0.9-0.9c0-0.5,0.3-0.9,0.9-0.9c0.5,0,0.9,0.3,0.9,0.9C127.6,124.9,127.1,125.3,126.7,125.3z M127.8,121.4
		c0-0.3,0.2-0.5,0.5-0.5c0.3,0,0.5,0.2,0.5,0.5s-0.2,0.5-0.5,0.5C128,121.9,127.8,121.7,127.8,121.4z M129.1,128
		c-0.6,0-1.1-0.4-1.1-1.1c0-0.6,0.4-1.1,1.1-1.1c0.6,0,1.1,0.4,1.1,1.1C130.1,127.5,129.7,128,129.1,128z M130.7,119.2
		c0.4,0,0.9,0.3,0.9,0.9s-0.3,0.9-0.9,0.9c-0.5,0-0.9-0.3-0.9-0.9S130.3,119.2,130.7,119.2z M143.2,105.2c-1.2-0.1-2.6-0.8-3.9-1.4
		c-0.5-0.2-1.1-0.5-1.5-0.8c-3.6-1.5-6.7-3.7-8-4.8c-1.4-6.8-2.8-12.9-2.3-15.1c4.3,6.3,13.1,13.7,18.4,15.7
		C144.8,100.7,143.6,103.2,143.2,105.2z M163,111.8l-1.8-1.6l-2.7-1.8l-2.4-1.4c-0.5-0.3-1.2-0.1-1.5,0.4c-0.3,0.5-0.1,1.2,0.4,1.5
		l2.3,1.3l2.5,1.6l1.9,1.8c-0.6,0.6-1.3,1.2-1.8,1.3c-0.5,0-2.3-1.2-3.5-1.9c-1.9-1.3-4.1-2.8-6.1-3.1c-3.7-0.6-4.8-2.6-5.1-3.7
		c-0.3-1,1.6-5.3,4.1-9.1c1.1-1.6,5.7-5.5,7-5.8c0.3,0.2,0.3,0.4,0.4,0.4c0,0.2,0.1,0.9-0.9,2.3c-0.6,0.9-1.3,1.5-1.8,2.1
		c-1,1-1.9,1.9-1.9,3.6c0,1.2-1.4,3.7-2.2,5.1c-0.3,0.5-0.2,1.2,0.3,1.5c0.5,0.3,1.2,0.2,1.5-0.3c0.2-0.3,1.5-2.5,2.2-4.5
		c1.4,0.9,3.5,2.2,4.5,2.9c1.3,1,4.4,3.7,4.9,5.6C163.4,110.5,163.3,111.1,163,111.8z"/>
</g>
</svg>
