<?xml version="1.0" encoding="utf-8"?>
<!-- Generator: Adobe Illustrator 25.2.1, SVG Export Plug-In . SVG Version: 6.00 Build 0)  -->
<svg version="1.1" xmlns="http://www.w3.org/2000/svg" xmlns:xlink="http://www.w3.org/1999/xlink" x="0px" y="0px"
	 viewBox="0 0 180 180" style="enable-background:new 0 0 180 180;" xml:space="preserve">
<style type="text/css">
	.st0{fill:none;}
	.st1{fill:#3E4FF7;}
	.st2{fill:#FFFFFF;}
	.st3{fill:none;stroke:#3E4FF7;stroke-width:2;stroke-linecap:round;}
	.st4{fill:none;stroke:#3E4FF7;stroke-width:2;}
	.st5{fill:none;stroke:#3E4FF7;stroke-width:2;stroke-miterlimit:10;}
	.st6{fill:none;stroke:#FFFFFF;stroke-width:2;stroke-linecap:round;}
	.st7{fill:none;stroke:#FFFFFF;stroke-linecap:round;}
	.st8{fill:none;stroke:#FFFFFF;}
	.st9{fill:#FFFFFF;stroke:#3E4FF7;stroke-width:2;stroke-linecap:round;}
	.st10{fill:none;stroke:#3E4FF7;stroke-miterlimit:10;}
	.st11{fill:none;stroke:#3E4FF7;stroke-linecap:round;stroke-miterlimit:10;}
	.st12{fill:none;stroke:#3E4FF7;stroke-linecap:round;stroke-linejoin:round;stroke-miterlimit:10;}
	.st13{fill:none;stroke:#3E4FF7;stroke-width:2;stroke-linecap:round;stroke-miterlimit:10;}
	.st14{fill:none;stroke:#3E4FF7;stroke-width:2;stroke-linecap:round;stroke-linejoin:round;stroke-miterlimit:10;}
	.st15{fill:none;stroke:#FFFFFF;stroke-width:2;stroke-miterlimit:10;}
	.st16{fill:none;stroke:#FFFFFF;stroke-width:2;stroke-linecap:round;stroke-miterlimit:10;}
	.st17{fill:none;stroke:#FFFFFF;stroke-linecap:round;stroke-miterlimit:10;}
	.st18{fill:#FFFFFF;stroke:#3E4FF7;stroke-width:2;stroke-miterlimit:10;}
</style>
<g id="Ebene_1">
</g>
<g id="Ebene_2">
	<g>
		<path class="st1" d="M79.2,16.8c-0.3-0.3-0.9-0.6-1.6-0.6c-0.2,0-0.4,0-0.6,0.1c-0.9,0.2-2,1.8-2,2.9c0,0.9,0.7,1.7,1.6,1.7
			c1.1,0,3.5-1.8,3.5-2.5C80.1,18,79.8,17.3,79.2,16.8z"/>
		<path class="st1" d="M96,16.4c-0.6,0-1.6,0.1-1.6,1.1c0,0.9,0.7,1.7,1.6,1.7c0.9,0,2-0.6,2-1.4C97.9,16.9,97,16.4,96,16.4z"/>
		<g>
			<path class="st1" d="M94.1,28.2c-0.5,0.2-1,0.4-1.4,0.5c0.6,0.5,1.1,0.8,1.5,0.8c0.4-0.1,0.6-0.1,0.6-0.2
				C94.8,29,94.5,28.6,94.1,28.2z"/>
		</g>
		<path class="st1" d="M135.6,55.4c-0.5-1.6-1.8-2.5-3.7-2.7c-0.9-0.1-2.2-0.2-7.7,2l-1.8,0.8c0.2-1.6,0.1-3.3-0.8-4.1
			c-0.9-0.8-1.8-0.8-2.3-0.6c-1.8,0.5-2.6,3.2-3.5,6c-0.2,0.8-0.5,1.6-0.7,2.2c-1.2,3.2-0.3,6.6-0.2,6.8c0,0.2,0.1,0.3,0.2,0.4
			c-0.2,0.6-0.8,2.5-3,6.5c-2.2,4-7.9,6.8-9.8,7.7l0.7-28.1c0,0,0-0.1,0-0.1c0-0.1,0.2-0.3,0.3-0.5l0-0.1l0.1-0.1
			c0-0.1,0.2-0.5,0.5-1.1c1.2-2.6,4-9,4.7-11.4c0.2-0.6,0.3-1.2,0.4-1.9c0.1-0.4,0.1-0.8,0.2-1.2c0.1-0.6,0.1-1.3,0.1-1.8l0,0
			c0,0,0-0.2,0-0.5c0-1,0-1.8,0-2.1c-0.1-3.3-0.3-9-1-13.8c-1.8-11.1-8.9-14.5-10-14.9c-1-0.6-8.9-4.9-21.1-0.5
			c-6.8,2.5-11.2,9.1-12.7,19.1c-1.1,7.4-0.3,14-0.2,14.2l0.1,0.7c0.1,0.5,0.4,2.1,0.6,2.5c0.7,2.3,4.2,8.7,6.2,12.1
			c0.3,0.5,0.5,0.9,0.7,1.2c0.3,0.5,0.5,0.9,0.5,1l0.2,0.5l2.2,27.1c-2-1.1-6.4-3.9-8.4-7.6c-2.2-4.1-2.4-5.4-2.4-5.6
			c0-0.1,0-0.2,0-0.3c0.3-1,1.3-4.1,0.2-6.9L64,59.5c-1-2.7-2.2-5.8-4.2-6.3c-0.6-0.2-1.5-0.1-2.5,0.7c-0.8,0.7-0.9,2-0.8,3.1
			l-1.7-0.7c-5.5-2.2-6.8-2.1-7.8-2c-1.8,0.2-3.1,1.1-3.6,2.7c-0.7,2.2,0.3,5.3,1.6,6.4c1.5,1.3,2.6,1.7,4.3,2.3
			c1,0.3,2.3,0.8,4.2,1.6c0.1,0,0.4,0.1,0.8,0.3c2.6,0.8,3.5,1.2,3.8,1.5c0.2,0.5,2.2,7,5.1,10.9c3,4.1,11.7,8.3,12,8.4
			c0.2,0.1,0.3,0.1,0.5,0.1l5.7,49.4c0,0.5,0.3,0.9,0.6,1.1c0.6,0.4,1.7,1.1,3.1,1.6l1.3,0.4l1.5,20.6L61.7,169
			c-0.4,0.1-2.2,0.9-2.5,2.4c-0.1,0.5-0.1,1.4,0.8,2.2c2.1,2,14.6,5.9,30.1,5.9c0.4,0,0.8,0,1.2,0c18.7-0.2,29-5.9,29.1-6
			c0.8-0.5,1.3-1.4,1.1-2.3c-0.2-1.1-1.1-1.9-2.3-2.2l-24.2-7c0.3-3.7,0.7-10,1.4-21.2l0.1,0c1.4-0.4,2.5-0.9,3.1-1.2
			c0.5-0.3,0.8-0.7,0.8-1.3l1.9-49.9c0.1,0,0.3,0,0.4-0.1c0.4-0.2,10.1-5.1,13.1-9.2c2.9-4,5.1-10.9,5.2-11.2c0,0,0-0.1,0-0.1
			c0.1-0.1,0.1-0.2,0.2-0.3c0.3-0.2,1.2-0.7,3.8-1.5c0.4-0.1,0.7-0.2,0.8-0.3c1.9-0.8,3.1-1.2,4.2-1.6c1.7-0.6,2.7-0.9,4.3-2.3
			C135.2,60.7,136.3,57.6,135.6,55.4z M103.1,43.3c-0.3,0-0.6-0.3-0.6-0.6c0-0.3,0.3-0.6,0.6-0.6c0.3,0,0.6,0.3,0.6,0.6
			C103.7,43,103.4,43.3,103.1,43.3z M105.8,40c-0.1,0-0.1,0-0.2,0c-0.3,0-0.6-0.3-0.6-0.6c0-0.3,0.3-0.6,0.6-0.6
			c0.2,0,0.4,0.1,0.5,0.3C106.1,39.4,106,39.7,105.8,40z M107.1,32.6c-0.1,0-0.1,0-0.2,0c-0.3,0-0.6-0.3-0.6-0.6
			c0-0.3,0.3-0.6,0.6-0.6c0,0,0.1,0,0.1,0C107.1,31.9,107.1,32.3,107.1,32.6z M106.9,26.9c0,0.4,0,0.7,0.1,1.1c-0.1,0-0.1,0-0.2,0
			c-0.3,0-0.6-0.3-0.6-0.6c0-0.3,0.3-0.6,0.6-0.6C106.9,26.9,106.9,26.9,106.9,26.9z M106.3,19.8c0,0.3,0.1,0.6,0.1,0.9
			c-0.2-0.1-0.3-0.3-0.3-0.5C106.1,20.1,106.2,19.9,106.3,19.8z M105.9,24.5c0,0.3-0.3,0.6-0.6,0.6c-0.3,0-0.6-0.3-0.6-0.6
			c0-0.3,0.3-0.6,0.6-0.6C105.6,23.9,105.9,24.2,105.9,24.5z M105.3,30.3c0,0.4-0.3,0.7-0.7,0.7c-0.4,0-0.7-0.3-0.7-0.7
			c0-0.4,0.3-0.7,0.7-0.7C105,29.6,105.3,29.9,105.3,30.3z M104.6,12.7c0.1,0.3,0.2,0.5,0.3,0.8c-0.1,0.1-0.2,0.1-0.3,0.1
			c-0.3,0-0.5-0.2-0.5-0.5C104.1,12.9,104.3,12.7,104.6,12.7z M104.3,15.8c0.3,0,0.6,0.3,0.6,0.6c0,0.3-0.3,0.6-0.6,0.6
			c-0.3,0-0.6-0.3-0.6-0.6C103.7,16.1,104,15.8,104.3,15.8z M103.3,19.3c0.3,0,0.5,0.2,0.5,0.5c0,0.3-0.2,0.5-0.5,0.5
			c-0.3,0-0.5-0.2-0.5-0.5C102.8,19.5,103,19.3,103.3,19.3z M102.4,8.8c0.2,0.2,0.4,0.5,0.6,0.8c-0.1,0.1-0.2,0.1-0.3,0.1
			c-0.3,0-0.5-0.2-0.5-0.5C102.2,9.1,102.3,8.9,102.4,8.8z M102.7,26.5c0.3,0,0.5,0.2,0.5,0.5c0,0.3-0.2,0.5-0.5,0.5
			c-0.3,0-0.5-0.2-0.5-0.5C102.2,26.7,102.4,26.5,102.7,26.5z M102.7,32.5c0.3,0,0.5,0.2,0.5,0.5c0,0.3-0.2,0.5-0.5,0.5
			c-0.3,0-0.5-0.2-0.5-0.5C102.2,32.7,102.4,32.5,102.7,32.5z M101.8,14.9c0,0.3-0.2,0.5-0.5,0.5c-0.3,0-0.5-0.2-0.5-0.5
			c0-0.3,0.2-0.5,0.5-0.5S101.8,14.6,101.8,14.9z M99.9,30.9c0.3,0,0.5,0.2,0.5,0.5c0,0.3-0.2,0.5-0.5,0.5c-0.3,0-0.5-0.2-0.5-0.5
			C99.4,31.1,99.6,30.9,99.9,30.9z M98.9,27.3c0-0.3,0.3-0.6,0.6-0.6c0.3,0,0.6,0.3,0.6,0.6c0,0.3-0.3,0.6-0.6,0.6
			C99.1,27.8,98.9,27.6,98.9,27.3z M100.1,33.3c0.3,0,0.6,0.3,0.6,0.6c0,0.3-0.3,0.6-0.6,0.6c-0.3,0-0.6-0.3-0.6-0.6
			C99.5,33.6,99.8,33.3,100.1,33.3z M100.5,22.9c0-0.3,0.2-0.5,0.5-0.5c0.3,0,0.5,0.2,0.5,0.5c0,0.3-0.2,0.5-0.5,0.5
			C100.7,23.4,100.5,23.2,100.5,22.9z M101.2,12.1c0,0.3-0.2,0.5-0.5,0.5c-0.3,0-0.5-0.2-0.5-0.5c0-0.3,0.2-0.5,0.5-0.5
			C101,11.6,101.2,11.9,101.2,12.1z M99.8,8.4c0.3,0,0.6,0.3,0.6,0.6c0,0.3-0.3,0.6-0.6,0.6c-0.3,0-0.6-0.3-0.6-0.6
			C99.2,8.7,99.5,8.4,99.8,8.4z M97.9,5c0.2,0.1,0.5,0.3,0.9,0.5c0,0,0,0,0,0c0,0.3-0.3,0.6-0.6,0.6c-0.3,0-0.6-0.3-0.6-0.6
			C97.6,5.3,97.7,5.1,97.9,5z M96.8,8c0,0.3-0.3,0.6-0.6,0.6c-0.3,0-0.6-0.3-0.6-0.6c0-0.3,0.3-0.6,0.6-0.6
			C96.6,7.4,96.8,7.7,96.8,8z M96.3,4.3c-0.1,0.1-0.3,0.2-0.4,0.2c-0.3,0-0.6-0.3-0.7-0.6C95.7,4,96,4.1,96.3,4.3z M94.6,11
			c0,0.3-0.2,0.5-0.5,0.5c-0.3,0-0.5-0.2-0.5-0.5c0-0.3,0.2-0.5,0.5-0.5C94.4,10.6,94.6,10.8,94.6,11z M93.9,5.9
			c0.3,0,0.5,0.2,0.5,0.5c0,0.3-0.2,0.5-0.5,0.5c-0.3,0-0.5-0.2-0.5-0.5C93.4,6.1,93.7,5.9,93.9,5.9z M96.1,14c2,0,4.2,1.4,4.2,3.7
			c0,2.3-2.2,3.7-4.3,3.7c-2.1,0-3.9-1.8-3.9-4C92.2,15.4,93.7,14,96.1,14z M97.2,26.7c-0.3,0.2-0.6,0.3-1,0.4
			c0.5,0.8,1,1.7,0.7,2.7c-0.2,0.7-0.8,1.5-2.5,1.8c-0.1,0-0.3,0-0.4,0c-1.7,0-3.3-1.6-3.9-2.4c-2,0.5-3.7,0.7-5,0.7
			c-2.6,0-3.9-0.7-4.1-0.8c-0.6-0.3-0.7-1-0.4-1.6c0.3-0.5,1-0.7,1.6-0.4c0.1,0.1,3.5,1.7,11.7-1.5c0,0,0.1,0,0.1,0
			c0.7-0.3,1.5-0.6,2.4-1c0.6-0.3,1.3,0,1.5,0.6C98,25.7,97.8,26.4,97.2,26.7z M97.6,33.5c0,0.3-0.3,0.6-0.6,0.6
			c-0.3,0-0.6-0.3-0.6-0.6c0-0.3,0.3-0.6,0.6-0.6C97.4,33,97.6,33.2,97.6,33.5z M94.4,34.4c0,0.3-0.3,0.6-0.6,0.6
			c-0.3,0-0.6-0.3-0.6-0.6c0-0.3,0.3-0.6,0.6-0.6C94.1,33.8,94.4,34.1,94.4,34.4z M90.3,33c0,0.3-0.3,0.6-0.6,0.6
			c-0.3,0-0.6-0.3-0.6-0.6c0-0.3,0.3-0.6,0.6-0.6C90.1,32.4,90.3,32.7,90.3,33z M86.8,32.4c0,0.3-0.3,0.6-0.6,0.6
			c-0.3,0-0.6-0.3-0.6-0.6c0-0.3,0.3-0.6,0.6-0.6C86.5,31.8,86.8,32.1,86.8,32.4z M84.5,33.9c0,0.3-0.2,0.5-0.5,0.5
			c-0.3,0-0.5-0.2-0.5-0.5c0-0.3,0.2-0.5,0.5-0.5C84.3,33.4,84.5,33.6,84.5,33.9z M82.7,32.2c0,0.3-0.3,0.6-0.6,0.6
			c-0.3,0-0.6-0.3-0.6-0.6c0-0.3,0.3-0.6,0.6-0.6C82.5,31.6,82.7,31.8,82.7,32.2z M86.9,20.5c-0.3-0.1-0.4-0.4-0.3-0.7
			c0.1-0.3,0.4-0.4,0.7-0.3c0.3,0.1,0.4,0.4,0.3,0.7C87.5,20.5,87.2,20.6,86.9,20.5z M88.4,17.2c0-0.3,0.2-0.5,0.5-0.5
			c0.3,0,0.5,0.2,0.5,0.5c0,0.3-0.2,0.5-0.5,0.5C88.6,17.7,88.4,17.4,88.4,17.2z M89.8,21.6c0-0.3,0.3-0.6,0.6-0.6
			c0.3,0,0.6,0.3,0.6,0.6c0,0.3-0.3,0.6-0.6,0.6C90,22.2,89.8,21.9,89.8,21.6z M92.9,23c0-0.3,0.2-0.5,0.5-0.5
			c0.3,0,0.5,0.2,0.5,0.5c0,0.3-0.2,0.5-0.5,0.5C93.1,23.5,92.8,23.3,92.9,23z M92.3,7.8c0.3,0,0.6,0.3,0.6,0.6
			c0,0.3-0.3,0.6-0.6,0.6s-0.6-0.3-0.6-0.6C91.7,8,92,7.8,92.3,7.8z M91.1,4.4c0.3,0,0.5,0.2,0.5,0.5c0,0.3-0.2,0.5-0.5,0.5
			c-0.3,0-0.5-0.2-0.5-0.5C90.6,4.6,90.8,4.3,91.1,4.4z M90.9,14.3c0,0.3-0.3,0.6-0.6,0.6c-0.3,0-0.6-0.3-0.6-0.6
			c0-0.3,0.3-0.6,0.6-0.6C90.6,13.7,90.9,14,90.9,14.3z M90.1,10.7c0,0.3-0.3,0.6-0.6,0.6c-0.3,0-0.6-0.3-0.6-0.6
			c0-0.3,0.3-0.6,0.6-0.6C89.9,10.2,90.1,10.4,90.1,10.7z M88.1,2.6c0.4,0,0.8,0,1.2,0c0.1,0.1,0.1,0.2,0.1,0.3
			c0,0.4-0.3,0.7-0.7,0.7C88.3,3.7,88,3.4,88,3C88,2.8,88,2.7,88.1,2.6z M88.3,6.4c0.3,0,0.6,0.3,0.6,0.6c0,0.3-0.3,0.6-0.6,0.6
			c-0.3,0-0.6-0.3-0.6-0.6C87.7,6.7,88,6.4,88.3,6.4z M87.2,13.1c0.3,0,0.6,0.3,0.6,0.6c0,0.3-0.3,0.6-0.6,0.6
			c-0.3,0-0.6-0.3-0.6-0.6C86.6,13.4,86.9,13.1,87.2,13.1z M87,23.6c0.2,0.1,0.4,0.4,0.2,0.6c-0.1,0.2-0.4,0.4-0.6,0.2
			c-0.2-0.1-0.4-0.4-0.2-0.6C86.5,23.6,86.7,23.5,87,23.6z M86.3,16.7c-0.1,0.3-0.5,0.4-0.8,0.3c-0.3-0.1-0.4-0.5-0.3-0.8
			c0.1-0.3,0.5-0.4,0.8-0.3C86.3,16.1,86.4,16.4,86.3,16.7z M85.4,9.3c-0.3,0-0.6-0.3-0.6-0.6c0-0.3,0.3-0.6,0.6-0.6
			c0.3,0,0.6,0.3,0.6,0.6C86,9.1,85.7,9.3,85.4,9.3z M84.8,2.8c0.4,0,0.8-0.1,1.1-0.1c0,0.1,0,0.1,0,0.2c0,0.3-0.3,0.6-0.6,0.6
			C85,3.4,84.8,3.2,84.8,2.8C84.8,2.8,84.8,2.8,84.8,2.8z M84.5,5.3c0.3,0,0.6,0.3,0.6,0.6c0,0.3-0.3,0.6-0.6,0.6
			c-0.3,0-0.6-0.3-0.6-0.6C83.9,5.6,84.1,5.3,84.5,5.3z M83.8,12.4c0.3,0,0.6,0.3,0.6,0.6c0,0.3-0.3,0.6-0.6,0.6
			c-0.3,0-0.6-0.3-0.6-0.6C83.2,12.7,83.5,12.4,83.8,12.4z M82.8,24c-0.1,0.3-0.5,0.4-0.8,0.3c-0.3-0.1-0.4-0.5-0.3-0.8
			c0.1-0.3,0.5-0.4,0.8-0.3C82.7,23.3,82.9,23.7,82.8,24z M82,10.7c-0.3,0-0.6-0.3-0.6-0.6c0-0.3,0.3-0.6,0.6-0.6
			c0.3,0,0.6,0.3,0.6,0.6C82.5,10.5,82.3,10.7,82,10.7z M81.1,3.5c0.4-0.1,0.7-0.2,1-0.3c0.2,0.1,0.4,0.4,0.4,0.6
			c0,0.4-0.4,0.7-0.8,0.7c-0.4,0-0.7-0.4-0.7-0.8C81,3.7,81,3.6,81.1,3.5z M80.5,6.1c0.3,0,0.6,0.3,0.6,0.6c0,0.3-0.3,0.6-0.6,0.6
			S79.9,7,79.9,6.7C79.9,6.4,80.1,6.1,80.5,6.1z M77.4,5.2c0.3,0,0.6,0.3,0.6,0.6c0,0.3-0.3,0.6-0.6,0.6s-0.6-0.3-0.6-0.6
			C76.9,5.5,77.1,5.2,77.4,5.2z M77.3,10.3c0.3,0,0.6,0.3,0.6,0.6c0,0.3-0.3,0.6-0.6,0.6c-0.3,0-0.6-0.3-0.6-0.6
			C76.7,10.6,77,10.3,77.3,10.3z M75.9,8c0.3,0,0.5,0.2,0.5,0.5c0,0.3-0.2,0.5-0.5,0.5c-0.3,0-0.5-0.2-0.5-0.5
			C75.4,8.2,75.6,8,75.9,8z M76.5,14c1.5-0.3,2.9,0,4.1,1c1.1,0.9,1.8,2.2,1.8,3.4c0,2.3-3.8,4.8-5.8,4.8c-2.1,0-3.9-1.8-3.9-4
			C72.7,17.2,74.4,14.5,76.5,14z M78.2,27.6c0.3,0,0.5,0.2,0.5,0.5s-0.2,0.5-0.5,0.5c-0.3,0-0.5-0.2-0.5-0.5
			C77.7,27.8,77.9,27.6,78.2,27.6z M77.7,25.9c-0.3,0-0.6-0.3-0.6-0.6c0-0.3,0.3-0.6,0.6-0.6c0.3,0,0.6,0.3,0.6,0.6
			C78.3,25.7,78,25.9,77.7,25.9z M78.6,33.4c0.2,0,0.4,0.2,0.4,0.5c0,0.2-0.2,0.4-0.5,0.4c-0.2,0-0.4-0.2-0.4-0.5
			C78.2,33.6,78.4,33.4,78.6,33.4z M79,31.1c0-0.3,0.2-0.5,0.5-0.5c0.3,0,0.5,0.2,0.5,0.5c0,0.3-0.2,0.5-0.5,0.5
			C79.2,31.6,79,31.4,79,31.1z M76.2,32.4c0.3,0,0.5,0.2,0.5,0.5c0,0.3-0.2,0.5-0.5,0.5c-0.3,0-0.5-0.2-0.5-0.5
			C75.7,32.6,75.9,32.4,76.2,32.4z M75.6,30.6c-0.3,0-0.5-0.2-0.5-0.5c0-0.3,0.2-0.5,0.5-0.5c0.3,0,0.5,0.2,0.5,0.5
			C76.1,30.4,75.8,30.6,75.6,30.6z M73,25.1c-0.3,0-0.5-0.2-0.5-0.5c0-0.3,0.2-0.5,0.5-0.5s0.5,0.2,0.5,0.5
			C73.5,24.9,73.3,25.1,73,25.1z M73.5,31.3c0,0.3-0.3,0.6-0.6,0.6c-0.3,0-0.6-0.3-0.6-0.6c0-0.3,0.3-0.6,0.6-0.6
			C73.3,30.7,73.5,31,73.5,31.3z M73.2,7.5c0.1,0.1,0.2,0.3,0.2,0.4c0,0.3-0.3,0.6-0.6,0.6c-0.1,0-0.3-0.1-0.4-0.2
			C72.6,8,72.9,7.8,73.2,7.5z M72.9,11.1c0.3,0,0.6,0.3,0.6,0.6c0,0.3-0.3,0.6-0.6,0.6c-0.3,0-0.6-0.3-0.6-0.6
			C72.3,11.3,72.5,11.1,72.9,11.1z M72.4,27.4c0.3,0,0.6,0.3,0.6,0.6c0,0.3-0.3,0.6-0.6,0.6c-0.3,0-0.6-0.3-0.6-0.6
			C71.9,27.6,72.1,27.4,72.4,27.4z M71.4,15.4c0.3,0,0.6,0.3,0.6,0.6c0,0.3-0.3,0.6-0.6,0.6c-0.3,0-0.6-0.3-0.6-0.6
			C70.8,15.6,71.1,15.4,71.4,15.4z M71,34.5c0,0.3-0.3,0.6-0.6,0.6c-0.3,0-0.6-0.3-0.6-0.6c0-0.3,0.3-0.6,0.6-0.6
			C70.7,33.9,71,34.2,71,34.5z M69.3,30.9c0.3,0,0.6,0.3,0.6,0.6c0,0.3-0.3,0.6-0.6,0.6c-0.3,0-0.6-0.3-0.6-0.6
			C68.7,31.1,69,30.8,69.3,30.9z M69.1,28.8c0-0.3,0.2-0.5,0.5-0.5c0.3,0,0.5,0.2,0.5,0.5c0,0.3-0.2,0.5-0.5,0.5
			C69.3,29.2,69.1,29,69.1,28.8z M70.4,24.8c0,0.3-0.2,0.5-0.5,0.5c-0.3,0-0.5-0.2-0.5-0.5c0-0.3,0.2-0.5,0.5-0.5
			C70.2,24.3,70.4,24.5,70.4,24.8z M68.9,13.9C69,13.9,69,13.9,68.9,13.9c0.3,0,0.5,0.2,0.5,0.5c0,0.3-0.2,0.5-0.5,0.5
			c-0.1,0-0.3-0.1-0.3-0.2C68.7,14.4,68.8,14.1,68.9,13.9z M69.1,18.5c0.3,0,0.6,0.3,0.6,0.6c0,0.3-0.3,0.6-0.6,0.6
			c-0.3,0-0.6-0.3-0.6-0.6C68.6,18.8,68.8,18.5,69.1,18.5z M67.9,25.7c0,0.3-0.3,0.6-0.6,0.6c-0.3,0-0.6-0.3-0.6-0.6
			c0-0.3,0.3-0.6,0.6-0.6C67.7,25.2,67.9,25.4,67.9,25.7z M66.7,23c0.1-0.1,0.2-0.3,0.4-0.2c0.3,0,0.5,0.2,0.5,0.5
			c0,0.3-0.2,0.5-0.5,0.5c-0.2,0-0.4-0.1-0.4-0.3C66.7,23.2,66.7,23.1,66.7,23z M66.4,30.5c0-0.3,0-0.6,0-0.9c0,0,0,0,0.1,0
			c0.3,0,0.5,0.2,0.5,0.5C66.9,30.3,66.7,30.5,66.4,30.5C66.4,30.5,66.4,30.5,66.4,30.5z M66.6,34.3c0-0.3,0.2-0.5,0.5-0.5
			c0.3,0,0.5,0.2,0.5,0.5c0,0.3-0.2,0.5-0.5,0.5C66.8,34.8,66.6,34.5,66.6,34.3z M70.1,40.5c-0.3,0-0.6-0.3-0.6-0.6
			c0-0.3,0.3-0.6,0.6-0.6c0.3,0,0.6,0.3,0.6,0.6C70.6,40.2,70.4,40.5,70.1,40.5z M71.3,44.7c-0.3,0-0.5-0.2-0.5-0.5
			c0-0.3,0.2-0.5,0.5-0.5c0.3,0,0.5,0.2,0.5,0.5C71.8,44.5,71.6,44.7,71.3,44.7z M70.2,37.7l-2.2,0c0,0-1,0-1,0l-0.1-1.4l1.1,0
			l2.1,0l36.9-0.3c0,0.4-0.2,1-0.3,1.4L70.2,37.7z M97.7,40.1c-0.3,0-0.6-0.3-0.6-0.6c0-0.3,0.3-0.6,0.6-0.6c0.3,0,0.6,0.3,0.6,0.6
			C98.3,39.8,98,40.1,97.7,40.1z M97.9,45.2c0,0.3-0.2,0.5-0.5,0.5c-0.3,0-0.5-0.2-0.5-0.5c0-0.3,0.2-0.5,0.5-0.5
			C97.7,44.7,97.9,44.9,97.9,45.2z M98.7,41.8c0.3,0,0.6,0.3,0.6,0.6c0,0.3-0.3,0.6-0.6,0.6c-0.3,0-0.6-0.3-0.6-0.6
			C98.1,42,98.4,41.8,98.7,41.8z M99.1,47.6c0.3,0,0.6,0.3,0.6,0.6c0,0.3-0.3,0.6-0.6,0.6c-0.3,0-0.6-0.3-0.6-0.6
			C98.5,47.8,98.8,47.5,99.1,47.6z M95.5,43c0-0.3,0.3-0.6,0.6-0.6c0.3,0,0.6,0.3,0.6,0.6c0,0.3-0.3,0.6-0.6,0.6
			C95.8,43.6,95.5,43.3,95.5,43z M95.7,48.3c0,0.3-0.2,0.5-0.5,0.5c-0.3,0-0.5-0.2-0.5-0.5c0-0.3,0.2-0.5,0.5-0.5
			C95.5,47.8,95.8,48.1,95.7,48.3z M94,40.8c-0.4,0-0.7-0.4-0.7-0.8c0-0.4,0.4-0.7,0.8-0.7c0.4,0,0.7,0.4,0.7,0.8
			C94.7,40.5,94.4,40.8,94,40.8z M94.2,44.3c0,0.3-0.3,0.6-0.6,0.6c-0.3,0-0.6-0.3-0.6-0.6c0-0.3,0.3-0.6,0.6-0.6
			C93.9,43.8,94.2,44,94.2,44.3z M92.4,49.3c0,0.3-0.2,0.5-0.5,0.5c-0.3,0-0.5-0.2-0.5-0.5c0-0.3,0.2-0.5,0.5-0.5S92.5,49,92.4,49.3
			z M90.4,46.8c0.3,0,0.6,0.3,0.6,0.6c0,0.3-0.3,0.6-0.6,0.6c-0.3,0-0.6-0.3-0.6-0.6C89.8,47.1,90.1,46.8,90.4,46.8z M89.3,41.6
			c0-0.3,0.3-0.6,0.6-0.6s0.6,0.3,0.6,0.6c0,0.3-0.3,0.6-0.6,0.6C89.5,42.2,89.3,41.9,89.3,41.6z M88.5,39.4c-0.3,0-0.5-0.2-0.5-0.5
			c0-0.3,0.2-0.5,0.5-0.5c0.3,0,0.5,0.2,0.5,0.5C89,39.2,88.8,39.4,88.5,39.4z M88.8,43.9c0,0.3-0.3,0.6-0.6,0.6s-0.6-0.3-0.6-0.6
			c0-0.3,0.3-0.6,0.6-0.6C88.6,43.3,88.8,43.5,88.8,43.9z M86.9,49c0.3,0,0.5,0.2,0.5,0.5c0,0.3-0.2,0.5-0.5,0.5
			c-0.3,0-0.5-0.2-0.5-0.5C86.4,49.2,86.6,49,86.9,49z M86.2,46.2c0-0.3,0.2-0.5,0.5-0.5c0.3,0,0.5,0.2,0.5,0.5
			c0,0.3-0.2,0.5-0.5,0.5C86.4,46.7,86.2,46.5,86.2,46.2z M85.3,41.1c-0.3,0-0.6-0.3-0.6-0.6c0-0.3,0.3-0.6,0.6-0.6
			c0.3,0,0.6,0.3,0.6,0.6C85.9,40.9,85.6,41.1,85.3,41.1z M85.8,43.7c0,0.3-0.3,0.6-0.6,0.6c-0.3,0-0.6-0.3-0.6-0.6
			c0-0.3,0.3-0.6,0.6-0.6C85.6,43.1,85.8,43.4,85.8,43.7z M84.1,47.2c0,0.3-0.3,0.6-0.6,0.6c-0.3,0-0.6-0.3-0.6-0.6
			c0-0.3,0.3-0.6,0.6-0.6C83.9,46.6,84.1,46.9,84.1,47.2z M81.6,44c0.3,0,0.5,0.2,0.5,0.5c0,0.3-0.2,0.5-0.5,0.5
			c-0.3,0-0.5-0.2-0.5-0.5C81.1,44.2,81.3,44,81.6,44z M80.8,39.9c0-0.3,0.3-0.6,0.6-0.6c0.3,0,0.6,0.3,0.6,0.6
			c0,0.3-0.3,0.6-0.6,0.6C81.1,40.5,80.8,40.2,80.8,39.9z M80.2,43.1c-0.3,0-0.6-0.3-0.6-0.6c0-0.3,0.3-0.6,0.6-0.6
			c0.3,0,0.6,0.3,0.6,0.6C80.7,42.8,80.5,43.1,80.2,43.1z M80.6,49.3c0,0.3-0.2,0.5-0.5,0.5c-0.3,0-0.5-0.2-0.5-0.5
			c0-0.3,0.2-0.5,0.5-0.5C80.4,48.8,80.6,49.1,80.6,49.3z M79.5,46.7c0,0.3-0.3,0.6-0.6,0.6c-0.3,0-0.6-0.3-0.6-0.6
			c0-0.3,0.3-0.6,0.6-0.6C79.3,46.1,79.5,46.3,79.5,46.7z M78.2,40.9c0,0.3-0.2,0.5-0.5,0.5c-0.3,0-0.5-0.2-0.5-0.5
			c0-0.3,0.2-0.5,0.5-0.5C78,40.4,78.2,40.6,78.2,40.9z M75,39.6c0-0.3,0.2-0.5,0.5-0.5c0.3,0,0.5,0.2,0.5,0.5
			c0,0.3-0.2,0.5-0.5,0.5C75.2,40,75,39.8,75,39.6z M75.3,48.5c0,0.3-0.2,0.5-0.5,0.5c-0.3,0-0.5-0.2-0.5-0.5c0-0.3,0.2-0.5,0.5-0.5
			C75.1,48,75.3,48.2,75.3,48.5z M73.2,43c-0.3,0-0.6-0.3-0.6-0.6c0-0.3,0.3-0.6,0.6-0.6c0.3,0,0.6,0.3,0.6,0.6
			C73.7,42.7,73.5,43,73.2,43z M74.3,44.7c0.3,0,0.6,0.3,0.6,0.6c0,0.3-0.3,0.6-0.6,0.6c-0.3,0-0.6-0.3-0.6-0.6
			C73.8,44.9,74,44.7,74.3,44.7z M64.9,78.6c-2.7-3.7-4.7-10.2-4.7-10.3c0,0,0,0,0,0c-0.3-1.2-2.1-2-5.3-2.9
			c-0.3-0.1-0.4-0.1-0.5-0.2c-1.9-0.8-3.3-1.3-4.3-1.7c-1.6-0.5-2.3-0.8-3.5-1.8c-0.2-0.2-0.5-0.7-0.7-1.2l7.3,2.4
			c0.1,0,0.2,0.1,0.4,0.1c0.5,0,0.9-0.3,1.1-0.8c0.2-0.6-0.1-1.3-0.7-1.5l-8.3-2.8c0-0.1,0-0.1,0-0.2c0.1-0.5,0.5-1,1.6-1.1
			c0,0,0.1,0,0.1,0c0.5-0.1,1.7-0.2,6.6,1.8l3.8,1.6c0.4,0.2,0.9,0.1,1.2-0.2c0.3-0.3,0.5-0.8,0.3-1.2c-0.4-1.2-0.6-2.7-0.4-3
			c0.1-0.1,0.3-0.3,0.4-0.2c0.9,0.2,2.1,3.5,2.6,4.9l0.3,0.8c0.9,2.4-0.3,5.4-0.3,5.5c-0.1,0.2-0.1,0.5,0,0.7
			c-0.1,1.5,1.3,4.5,2.6,6.8c3,5.5,10.1,9,10.4,9.1c0.1,0,0.2,0,0.2,0.1l0.2,2.6C73.2,84.9,67,81.6,64.9,78.6z M118.6,170.9
			c0.5,0.1,0.8,0.4,0.9,0.6c0,0.1,0,0.2-0.2,0.3c-1.9,1.2-12.2,5.5-28,5.7c-16.5,0.2-28.6-4-29.9-5.3c-0.3-0.2-0.3-0.4-0.3-0.4
			c0-0.2,0.6-0.6,1.2-0.9l25.6-7.3l0.2,2.7c0,0.2,0.4,1.8,3.2,1.9c0.1,0,0.1,0,0.2,0c1.2,0,2.2-0.8,2.6-1.2c0.2-0.2,0.4-0.3,0.7-3.1
			L118.6,170.9z M92.5,165.8c-0.4,0.3-0.7,0.5-1.1,0.5c-0.8,0-1.2-0.2-1.3-0.4l-1.7-24.5c0.8,0.1,1.7,0.2,2.7,0.1
			c1.1,0,2.1-0.1,3-0.3l0.2,0C93.7,150.4,92.9,163.7,92.5,165.8z M100.7,52C100.7,52,100.7,52.1,100.7,52c-3.1,0.3-7.7,0.6-13.5,0.7
			c-1.1,0-2.1,0-3,0c-4.1,0-7.3-0.1-9.6-0.2l-0.1-0.3c-0.1-0.3-0.3-0.9-0.4-1.2c2.8,0.1,7.3,0.3,13.3,0.2c6.2-0.1,11-0.4,14-0.6
			C101.1,50.9,100.8,51.6,100.7,52z M101.3,45.3c-0.3,0-0.6-0.3-0.6-0.6c0-0.3,0.3-0.6,0.6-0.6c0.3,0,0.6,0.3,0.6,0.6
			C101.9,45.1,101.6,45.4,101.3,45.3z M102,40.2c-0.3,0-0.6-0.3-0.6-0.6c0-0.3,0.3-0.6,0.6-0.6c0.3,0,0.6,0.3,0.6,0.6
			C102.6,39.9,102.3,40.2,102,40.2z M132.4,60c-1.2,1-1.9,1.3-3.5,1.8c-1.1,0.4-2.4,0.8-4.3,1.6c-0.1,0-0.3,0.1-0.5,0.2
			c-3.4,1-5.1,1.8-5.3,3.1c-0.1,0.1-0.1,0.2-0.2,0.3c0,0.1-2.2,6.8-4.9,10.6c-2.2,3.1-9.3,6.9-11.5,8.1l0.1-3c0.1,0,0.2,0,0.2,0
			c0.4-0.1,8.7-3.5,11.7-9c2.8-5.3,3.2-7.2,3.3-7.5c0.1-0.4-0.1-0.7-0.3-1c0-0.1,0-0.2,0-0.3c0,0-0.8-2.8,0.2-5.3
			c0.3-0.7,0.5-1.5,0.8-2.3c0.4-1.4,1.3-4.2,1.8-4.5c0,0,0.1,0,0.2,0.1c0.2,0.4,0.1,2.3-0.3,4c-0.1,0.4,0,0.9,0.4,1.1
			c0.3,0.3,0.8,0.4,1.2,0.2l3.8-1.6c4.9-2,6.1-1.9,6.6-1.9c0,0,0.1,0,0.1,0c0.7,0.1,1.1,0.3,1.4,0.6l-8.4,3.2
			c-0.6,0.2-0.9,0.9-0.7,1.5c0.2,0.5,0.6,0.7,1.1,0.7c0.1,0,0.3,0,0.4-0.1l7.9-3C133.2,58.9,132.8,59.7,132.4,60z"/>
	</g>
</g>
</svg>
