<?xml version="1.0" encoding="utf-8"?>
<!-- Generator: Adobe Illustrator 25.2.1, SVG Export Plug-In . SVG Version: 6.00 Build 0)  -->
<svg version="1.1" xmlns="http://www.w3.org/2000/svg" xmlns:xlink="http://www.w3.org/1999/xlink" x="0px" y="0px"
	 viewBox="0 0 180 180" style="enable-background:new 0 0 180 180;" xml:space="preserve">
<style type="text/css">
	.st0{fill:none;}
	.st1{fill:#3E4FF7;}
	.st2{fill:#FFFFFF;}
	.st3{fill:none;stroke:#3E4FF7;stroke-width:2;stroke-linecap:round;}
	.st4{fill:none;stroke:#3E4FF7;stroke-width:2;}
	.st5{fill:none;stroke:#3E4FF7;stroke-width:2;stroke-miterlimit:10;}
	.st6{fill:none;stroke:#FFFFFF;stroke-width:2;stroke-linecap:round;}
	.st7{fill:none;stroke:#FFFFFF;stroke-linecap:round;}
	.st8{fill:none;stroke:#FFFFFF;}
	.st9{fill:#FFFFFF;stroke:#3E4FF7;stroke-width:2;stroke-linecap:round;}
	.st10{fill:none;stroke:#3E4FF7;stroke-miterlimit:10;}
	.st11{fill:none;stroke:#3E4FF7;stroke-linecap:round;stroke-miterlimit:10;}
	.st12{fill:none;stroke:#3E4FF7;stroke-linecap:round;stroke-linejoin:round;stroke-miterlimit:10;}
	.st13{fill:none;stroke:#3E4FF7;stroke-width:2;stroke-linecap:round;stroke-miterlimit:10;}
	.st14{fill:none;stroke:#3E4FF7;stroke-width:2;stroke-linecap:round;stroke-linejoin:round;stroke-miterlimit:10;}
	.st15{fill:none;stroke:#FFFFFF;stroke-width:2;stroke-miterlimit:10;}
	.st16{fill:none;stroke:#FFFFFF;stroke-width:2;stroke-linecap:round;stroke-miterlimit:10;}
	.st17{fill:none;stroke:#FFFFFF;stroke-linecap:round;stroke-miterlimit:10;}
	.st18{fill:#FFFFFF;stroke:#3E4FF7;stroke-width:2;stroke-miterlimit:10;}
	.st19{fill:none;stroke:#3E4FF7;stroke-width:2;stroke-linecap:square;stroke-miterlimit:10;}
	.st20{fill:none;stroke:#3E4FF7;stroke-width:2;stroke-linejoin:round;stroke-miterlimit:10;}
	.st21{fill:none;stroke:#FFFFFF;stroke-miterlimit:10;}
</style>
<g id="Ebene_1">
</g>
<g id="Ebene_2">
	<g>
		<ellipse class="st1" cx="91.5" cy="65.6" rx="0.4" ry="0.8"/>
	</g>
	<g>
		<ellipse class="st1" cx="88.8" cy="74.3" rx="0.8" ry="0.8"/>
		<path class="st1" d="M91.2,73.2c-0.5,0-1,0.4-1,1c0,0.5,0.4,1,1,1c0.5,0,1-0.4,1-1C92.1,73.6,91.7,73.2,91.2,73.2z"/>
		<path class="st1" d="M91.2,72.5c0.6,0,1-0.4,1-0.9s-0.4-0.9-1-0.9c-0.6,0-1,0.4-1,0.9S90.6,72.5,91.2,72.5z"/>
		<path class="st1" d="M89.4,77.6c0,0.4,0.4,0.8,0.8,0.8S91,78,91,77.6s-0.4-0.8-0.8-0.8S89.4,77.1,89.4,77.6z"/>
		<ellipse class="st1" cx="89.1" cy="69.6" rx="0.8" ry="0.9"/>
		<path class="st1" d="M93.7,44.8c0.1,0.2,0.5,0.5,1.9,0.5c2.6,0.1,5.3-1.4,5.6-1.6c-0.3-0.1-0.8-0.4-1.7-0.7
			C96.6,42.1,94.2,44.3,93.7,44.8z"/>
		<path class="st1" d="M113.9,5.9l0.1-3.1L66.2,2.4l0,3.2l2,0l0,0.8c0,1-0.4,25.5,0.3,29c1.5,8.4,6.1,13.6,10.6,18.6
			c0.6,0.6,1.1,1.3,1.7,1.9c1.8,2.1,3.1,3.2,3.9,4c0.4,0.4,0.7,0.6,0.9,0.8c0.1,0.1,0.2,0.3,0.4,0.6c0.2,0.4,0.2,0.9,0.3,2
			c0.1,0.7,0.1,1.3,0.1,1.6l0,0c0,0.1,0,0.3-0.1,0.9c-0.2,2.1-0.2,2.1-1.5,3.4c-0.8,0.7-2,1.9-3.9,4c-0.5,0.5-0.9,1.1-1.4,1.6
			c-0.8,0-2.6,0.1-5.3,1c-3.1,1-6.9,2.9-8.1,3.6l-0.2,0.1c-7.8,5-12.2,10.2-13,15.3c-0.7,4.4,6.7,11.6,8.6,13
			c0.1,0.2,0.4,0.9,0.6,1.5c0.7,1.8,1.6,4.2,3,5.8c0.2,0.2,1.1,1.3,2,1.3c0,0,0.1,0,0.1,0c0.4-0.1,0.8-0.2,1.1-0.3
			c0,3.8,0.1,6.6,0.1,6.6l0,0.7l-3.8,0l0.1,3.6l8.4-0.1c0.2,1.7,0.4,4,0.6,7.4c0.5,7.6,0.3,12.7,0.2,16c-0.1,1.5-0.1,2.6-0.1,3.5
			c0,0.1-0.4,7.6-0.8,11c0,0.3,0,0.6,0.2,0.9c-2.7,1.2-7.3,3.5-7.7,5.3c-0.2,1.2,0.6,1.3,2.1,1.6c1.9,0.4,4.5-0.2,7.2-1.3
			c2.2-0.9,3.7-1.4,5.1-2.1c1.5-0.8,0.9-2.1,0.9-2.2c0,0,0.1,0,0.1,0c0.5,0,0.9-0.5,0.9-1l0.3-14.4l0.3-16.9l0.3-7.9l15.8-0.1
			c-0.4,9.8-1.5,35.8-1.1,40.2c0,0.5,0.3,1,0.7,1.4c0.2,0.2,0.4,0.3,0.7,0.4c-0.4,1.3-0.9,4.2,1.2,5.1c2.8,1.2,12.1,4.5,11.8,1.3
			c-0.2-2.2-4-4.6-6.3-5.9c0.2,0,0.4,0,0.5,0c0.5,0,0.9-0.5,0.9-1c0-0.3,0.6-25.1,0.8-30.6c0-1.3,0.3-7.3,0.4-11l6.2-0.1l-0.1-3.3
			l-1.9,0v-1.1c0-0.1,0.1-10.3,0.1-18.3c2,0.6,3.7,0.9,4.8,1.1c0.5,0.1,0.9,0.1,1.4,0.1c2.8,0,5.8-1,6.6-3.4c1.1-3.4-0.2-7-1.6-9.5
			c-2-3.5-4.5-6.8-7.7-10c-6.3-6.2-13-7.8-14.8-8.1c-0.4-0.5-0.8-0.9-1.3-1.4c-1.8-2.1-3.1-3.2-3.9-4c-1.4-1.3-1.4-1.3-1.5-3.4
			c0-0.3,0-0.5,0-0.7l0-0.7c0.1-2.2,0.1-2.2,1.7-3.7c0.8-0.8,2-1.9,3.7-3.9c0.6-0.6,1.1-1.3,1.7-1.9c4.5-5,9.2-10.2,10.6-18.6
			c0.6-3.5,0.3-28,0.2-29l0-1 M101.7,44.6c-0.5,0.3-3.1,1.8-5.8,1.8c-0.1,0-0.3,0-0.4,0c-1.5-0.1-2.4-0.4-2.8-1
			c-0.2-0.4-0.2-0.7-0.1-0.9l0.1-0.1c0.1-0.1,3.1-3.5,7.1-2.2c2,0.7,2.7,1.1,2.6,1.8C102.5,44.4,102,44.6,101.7,44.6z M70.3,32.4
			c-0.2-5.6-0.1-19.5,0-26.8l39.9,0.5c0.1,9,0.1,26.9-0.4,29.5c-0.4,2.4-1.1,4.4-2,6.3c-1.2-2.9-5.3-4.1-8.5-6.1
			c-3.7-2.4-15.8-2.4-21.1-3.8C73.6,30.7,71,32,70.3,32.4z M90.3,67.1c0-0.1,0-0.2-0.1-0.2c0.2,0,0.4-0.2,0.5-0.3
			c0,0,0.1,0.1,0.1,0.1C90.6,66.7,90.4,66.8,90.3,67.1z M88.2,66.3c0.1,0.1,0.1,0.1,0.2,0.2c-0.2,0.2-0.3,0.4-0.3,0.6
			C88.1,66.8,88.2,66.6,88.2,66.3z M89.4,66.2C89.4,66.2,89.4,66.2,89.4,66.2C89.4,66.2,89.4,66.2,89.4,66.2
			C89.4,66.2,89.4,66.2,89.4,66.2z M83.1,46.9c-1,0-2.1-0.1-3.2-0.5c-1.4-0.5-2.1-1.1-2.3-1.8c-0.1-0.4,0-0.8,0.2-1l0.1-0.1
			c0,0,4-2.6,7.5,0c1.7,1.3,2.2,2,2,2.6c-0.2,0.4-0.6,0.5-1,0.5C86,46.6,84.7,46.9,83.1,46.9z M61.4,107.8c0.2,0.1,0.3,0.2,0.3,0.2
			C61.5,108,61.4,107.9,61.4,107.8z M69,107.3c-0.4-0.4-1-0.5-1.4-0.1c-0.3,0.3-0.4,0.7-0.3,1.1c0,0.6,0.1,1.4,0.1,2.2
			c0.1,1,0.2,2.1,0.2,2.9l0,0.3c0,0.1,0,0.3,0,0.4c-0.1,0-0.3,0.1-0.6,0.1c-0.2-0.1-0.5-0.4-0.6-0.6c-1.1-1.3-2-3.6-2.6-5.2
			c-0.6-1.6-0.8-2.2-1.4-2.4c-1.2-0.8-8.2-7.8-7.7-11c0.8-4.6,4.8-9.3,12.2-14l0.2-0.1c1.1-0.7,4.9-2.5,7.7-3.4
			c1.1-0.4,2-0.6,2.7-0.7c-1.7,1.9-3.3,3.9-4.7,6.1c-2.9,0.7-6.7,2.7-8.4,4.2c-4.1,3.5-6.7,5.9-6.3,8c0.3,1.3,2.6,4.7,5.7,7.1
			l3.3,1.6l0.1,0c1.6,0.5,2.9,3.7,3,4.5C69.8,108.1,69.4,107.8,69,107.3z M71.3,85.6c-1.2,2.4-2.2,5-2.8,8.1
			c-0.3,1.5-0.3,4.4-0.3,8.4c-0.1,0-0.2-0.1-0.3-0.1l-2.9-1.4c-2.8-2.3-4.7-5.3-4.8-5.9c-0.2-1.1,3.9-4.5,5.6-6
			C66.8,87.8,69.1,86.5,71.3,85.6z M72,120.3c-0.4,0-0.7-0.2-0.8-0.6s0.2-0.7,0.6-0.8c0.4,0,0.7,0.2,0.8,0.6
			C72.7,119.9,72.4,120.3,72,120.3z M74,121.6c-0.3,0-0.5-0.2-0.5-0.5c0-0.3,0.2-0.5,0.5-0.5c0.3,0,0.5,0.2,0.5,0.5
			C74.5,121.3,74.3,121.5,74,121.6z M74.6,117.1c0-0.2,0.2-0.5,0.4-0.5c0.2,0,0.5,0.2,0.5,0.4c0,0.2-0.2,0.5-0.4,0.5
			C74.9,117.5,74.6,117.3,74.6,117.1z M80.2,134.8l-0.3,16.9l-0.3,13.5c-2.1,0.1-4.1,0-4.8-0.3c0.4-3.5,0.8-10.5,0.8-10.9
			c0-0.9,0-2,0.1-3.5c0.1-3.4,0.3-8.5-0.2-16.2c-0.2-3.2-0.4-5.5-0.5-7.3l5.5,0L80.2,134.8z M77.3,118.8c0,0.3-0.2,0.7-0.6,0.7
			c-0.3,0-0.7-0.2-0.7-0.6c0-0.3,0.2-0.7,0.6-0.7C77,118.2,77.3,118.5,77.3,118.8z M76.8,115.3c0-0.2,0.2-0.5,0.4-0.5
			s0.5,0.2,0.5,0.4c0,0.2-0.2,0.5-0.4,0.5S76.8,115.6,76.8,115.3z M78.4,120.6c0-0.2,0.2-0.5,0.4-0.5c0.2,0,0.5,0.2,0.5,0.4
			c0,0.2-0.2,0.5-0.4,0.5S78.4,120.8,78.4,120.6z M79.7,118.8c-0.5,0-0.9-0.3-0.9-0.8s0.3-0.9,0.8-0.9c0.5,0,0.9,0.3,0.9,0.8
			S80.2,118.7,79.7,118.8z M79.1,113.3c0-0.2,0.2-0.5,0.4-0.5s0.5,0.2,0.5,0.4c0,0.2-0.2,0.5-0.4,0.5S79.1,113.5,79.1,113.3z
			 M81.1,121.3c-0.2,0-0.5-0.2-0.5-0.4s0.2-0.5,0.4-0.5s0.5,0.2,0.5,0.4C81.5,121,81.3,121.2,81.1,121.3z M81.7,116.9
			c-0.2,0-0.5-0.2-0.5-0.4c0-0.2,0.2-0.5,0.4-0.5s0.5,0.2,0.5,0.4C82.1,116.7,81.9,116.9,81.7,116.9z M81.9,114.2
			c0-0.2,0.2-0.5,0.4-0.5s0.5,0.2,0.5,0.4c0,0.2-0.2,0.5-0.4,0.5C82.2,114.6,82,114.5,81.9,114.2z M82.6,120c-0.2,0-0.5-0.2-0.5-0.4
			s0.2-0.5,0.4-0.5s0.5,0.2,0.5,0.4C83,119.8,82.9,120,82.6,120z M83.3,111.7c-0.2,0-0.5-0.2-0.5-0.4c0-0.2,0.2-0.5,0.4-0.5
			c0.2,0,0.5,0.2,0.5,0.4C83.7,111.4,83.5,111.6,83.3,111.7z M83.8,114.2c0-0.2,0.2-0.5,0.4-0.5c0.2,0,0.5,0.2,0.5,0.4
			c0,0.2-0.2,0.5-0.4,0.5S83.8,114.4,83.8,114.2z M84.7,116.1c0.2,0,0.5,0.2,0.5,0.4c0,0.2-0.2,0.5-0.4,0.5s-0.5-0.2-0.5-0.4
			C84.3,116.4,84.5,116.2,84.7,116.1z M84.8,121.3c-0.4,0-0.7-0.2-0.8-0.6c0-0.4,0.2-0.7,0.6-0.8c0.4,0,0.7,0.2,0.8,0.6
			C85.5,120.9,85.2,121.2,84.8,121.3z M85.7,112.8c-0.2,0-0.5-0.2-0.5-0.4c0-0.2,0.2-0.5,0.4-0.5s0.5,0.2,0.5,0.4
			C86.2,112.5,86,112.7,85.7,112.8z M86.3,114.2c0-0.2,0.2-0.5,0.4-0.5s0.5,0.2,0.5,0.4s-0.2,0.5-0.4,0.5S86.3,114.5,86.3,114.2z
			 M87.1,119.7c-0.2,0-0.5-0.2-0.5-0.4c0-0.2,0.2-0.5,0.4-0.5s0.5,0.2,0.5,0.4C87.6,119.5,87.4,119.7,87.1,119.7z M88.4,116.4
			c-0.4,0-0.7-0.2-0.8-0.6s0.2-0.7,0.6-0.8c0.4,0,0.7,0.2,0.8,0.6S88.8,116.4,88.4,116.4z M87.9,111.9c0-0.2,0.2-0.5,0.4-0.5
			c0.2,0,0.5,0.2,0.5,0.4c0,0.2-0.2,0.5-0.4,0.5S87.9,112.2,87.9,111.9z M89.5,121.2c-0.2,0-0.5-0.2-0.5-0.4c0-0.2,0.2-0.5,0.4-0.5
			c0.2,0,0.5,0.2,0.5,0.4C89.9,121,89.8,121.2,89.5,121.2z M90.1,118.8c-0.4,0-0.7-0.2-0.8-0.6s0.2-0.7,0.6-0.8
			c0.4,0,0.7,0.2,0.8,0.6C90.7,118.4,90.4,118.8,90.1,118.8z M91.3,116.4c-0.2,0-0.5-0.2-0.5-0.4c0-0.2,0.2-0.5,0.4-0.5
			s0.5,0.2,0.5,0.4S91.6,116.4,91.3,116.4z M91.5,113.8c-0.2,0-0.5-0.2-0.5-0.4c0-0.2,0.2-0.5,0.4-0.5s0.5,0.2,0.5,0.4
			C91.9,113.5,91.8,113.7,91.5,113.8z M92.9,111.7c-0.2,0-0.5-0.2-0.5-0.4c0-0.2,0.2-0.5,0.4-0.5s0.5,0.2,0.5,0.4
			C93.3,111.5,93.1,111.7,92.9,111.7z M93.3,114.5c0.2,0,0.5,0.2,0.5,0.4c0,0.2-0.2,0.5-0.4,0.5s-0.5-0.2-0.5-0.4
			C92.9,114.7,93.1,114.5,93.3,114.5z M93.5,121c-0.5,0-0.9-0.3-0.9-0.8s0.3-0.9,0.8-0.9c0.5,0,0.9,0.3,0.9,0.8S94,121,93.5,121z
			 M94.4,117.9c-0.4,0-0.7-0.2-0.8-0.6c0-0.4,0.2-0.7,0.6-0.8c0.4,0,0.7,0.2,0.8,0.6C95,117.5,94.7,117.8,94.4,117.9z M94.7,109.2
			c0-0.2,0.2-0.5,0.4-0.5s0.5,0.2,0.5,0.4s-0.2,0.5-0.4,0.5C95,109.6,94.8,109.4,94.7,109.2z M94.9,112.4c0-0.4,0.2-0.7,0.6-0.8
			c0.4,0,0.7,0.2,0.8,0.6S96,113,95.7,113C95.3,113.1,94.9,112.8,94.9,112.4z M95.6,115.1c0-0.2,0.2-0.5,0.4-0.5s0.5,0.2,0.5,0.4
			c0,0.2-0.2,0.5-0.4,0.5S95.6,115.4,95.6,115.1z M96.4,118.4c-0.2,0-0.5-0.2-0.5-0.4c0-0.2,0.2-0.5,0.4-0.5s0.5,0.2,0.5,0.4
			C96.8,118.2,96.7,118.4,96.4,118.4z M97.9,119.8c-0.2,0-0.5-0.2-0.5-0.4c0-0.2,0.2-0.5,0.4-0.5s0.5,0.2,0.5,0.4
			C98.3,119.5,98.2,119.7,97.9,119.8z M97.9,116.8c0-0.4,0.2-0.7,0.6-0.8c0.4,0,0.7,0.2,0.8,0.6c0,0.4-0.2,0.7-0.6,0.8
			C98.3,117.5,98,117.2,97.9,116.8z M99.5,114.8c-0.2,0-0.5-0.2-0.5-0.4c0-0.2,0.2-0.5,0.4-0.5c0.2,0,0.5,0.2,0.5,0.4
			C99.9,114.5,99.7,114.8,99.5,114.8z M100.4,120.7c0,0.4-0.2,0.7-0.6,0.8c-0.4,0-0.7-0.2-0.8-0.6c0-0.4,0.2-0.7,0.6-0.8
			C100.1,120,100.4,120.3,100.4,120.7z M98.7,110.1c-0.2,0-0.5-0.2-0.5-0.4s0.2-0.5,0.4-0.5c0.2,0,0.5,0.2,0.5,0.4
			C99.1,109.8,98.9,110,98.7,110.1z M98.4,111.5c0.2,0,0.5,0.2,0.5,0.4s-0.2,0.5-0.4,0.5c-0.2,0-0.5-0.2-0.5-0.4
			C98,111.7,98.2,111.5,98.4,111.5z M105.4,137.7c-0.2,4.9-0.7,25.2-0.8,29.7c-2.6,0.2-5.2-0.1-5.5-0.6c-0.4-4.3,0.7-30.4,1.1-40.1
			l5.7-0.1C105.7,130.5,105.4,136.4,105.4,137.7z M102,113.7c-0.2,0-0.5-0.2-0.5-0.4c0-0.2,0.2-0.5,0.4-0.5c0.2,0,0.5,0.2,0.5,0.4
			C102.4,113.4,102.3,113.6,102,113.7z M102.8,119.6c0,0.4-0.2,0.7-0.6,0.8c-0.4,0-0.7-0.2-0.8-0.6s0.2-0.7,0.6-0.8
			C102.4,118.9,102.7,119.2,102.8,119.6z M101.7,115.4c0.2,0,0.5,0.2,0.5,0.4c0,0.2-0.2,0.5-0.4,0.5s-0.5-0.2-0.5-0.4
			C101.3,115.7,101.5,115.5,101.7,115.4z M103.8,116.1c-0.4,0-0.7-0.2-0.8-0.6s0.2-0.7,0.6-0.8c0.4,0,0.7,0.2,0.8,0.6
			C104.5,115.7,104.2,116.1,103.8,116.1z M104.3,117.6c0,0.2-0.2,0.5-0.4,0.5c-0.2,0-0.5-0.2-0.5-0.4c0-0.2,0.2-0.5,0.4-0.5
			S104.3,117.4,104.3,117.6z M106.1,117.7c0.4,0,0.7,0.2,0.8,0.6s-0.2,0.7-0.6,0.8c-0.4,0-0.7-0.2-0.8-0.6S105.7,117.7,106.1,117.7z
			 M105.8,116.4c0-0.2,0.2-0.5,0.4-0.5c0.2,0,0.5,0.2,0.5,0.4c0,0.2-0.2,0.5-0.4,0.5C106,116.8,105.8,116.6,105.8,116.4z
			 M106.8,121.6c-0.4,0-0.7-0.2-0.8-0.6s0.2-0.7,0.6-0.8c0.4,0,0.7,0.2,0.8,0.6C107.4,121.2,107.1,121.5,106.8,121.6z M108.4,118.6
			c0-0.2,0.2-0.5,0.4-0.5c0.2,0,0.5,0.2,0.5,0.4c0,0.2-0.2,0.5-0.4,0.5S108.4,118.8,108.4,118.6z M109.5,121.5
			c-0.2,0-0.5-0.2-0.5-0.4c0-0.2,0.2-0.5,0.4-0.5s0.5,0.2,0.5,0.4C109.9,121.3,109.7,121.5,109.5,121.5z M110.1,117.9l0-0.2
			l-2.3-1.7c0,0-6.9-5.1-7.6-6.3c-0.7-1.1-3.9-2.7-5-4s-1-1.5-3.3-2c-2.2-0.6-1.8,0.8-4.3,3.3c-2.5,2.5-2.5,1.7-9.7,6.2
			c-5.4,3.5-7.1,5.1-7.6,5.8c0-2.2-0.1-5.2-0.1-8.3c0.1,0.1,0.2,0.1,0.3,0.2c0.2,0.1,0.5,0.2,0.9,0.2c0.3,0,0.5-0.1,0.8-0.3
			c0.6-0.5,0.4-1.2,0.3-1.8c-0.1-0.2-0.1-0.5-0.1-0.7c0-0.5-0.7-2.8-2.1-4.5c0-3.8,0-8,0.3-9.7c1.4-7.8,5.6-12.6,10.2-17.7
			c0.6-0.6,1.1-1.3,1.7-1.9c1.8-2,2.9-3.1,3.7-3.8c1.4-1.3,1.8-1.8,2.1-3.6c0,0.5,0.5,1,1.1,1c0.5,0,0.9-0.3,1-0.6
			c0,0.5,0.4,0.8,0.8,0.8c0.5,0,0.8-0.4,0.8-0.9c0-0.3-0.1-0.5-0.4-0.7c0.2-0.1,0.4-0.3,0.5-0.5c0.2,2.1,0.6,2.6,2.1,4.1
			c0.8,0.7,2,1.8,3.7,3.8c0.6,0.6,1.1,1.3,1.7,1.9c4.5,5.1,8.8,9.8,10.2,17.7l0,0.2c0,0.2,0.1,0.4,0.1,0.6l-5.9-1.4l-3.7-0.9
			c0.2-0.2,0.3-0.4,0.4-0.5c0.6-1.2,0.4-2.7-0.5-3.8c-1.4-1.6-7.5-5.3-10.5-2.8c-0.9,0.7-1.1,1.5-1.2,2.1c-1.3,0.1-3.5,0.4-6.1,1.8
			c-0.7,0.4-1.4,0.8-2,1.1c-3.2,1.7-4.7,2.5-5.2,5.4c-0.3,2.2-0.1,3.7,0.8,4.7c0.7,0.7,1.6,0.9,2.3,0.9c0.3,0,0.6,0,0.8-0.1l0.6-0.1
			c7.9-0.8,9-1.1,9.4-1.4c0.7-0.5,0.9-1.2,1-1.7c0-0.2,0.1-0.4,0.2-0.5c0.2-0.3,0.3-0.7,0.3-1.1c0.1,0.2,0.3,0.3,0.4,0.4
			c0.7,0.5,11.3,4.6,19.1,6.9C110.2,108.3,110.1,114.1,110.1,117.9z M93.8,90.2c-0.7-0.3-1.5-0.8-1.9-1L91.7,89
			c-0.5-0.4-1.1-1.2-1.1-1.8c0-0.2,0-0.4,0.4-0.7c1.7-1.3,6.6,1.2,7.8,2.5c0.4,0.5,0.5,1.1,0.3,1.6c-0.3,0.6-1.2,0.6-1.7,0.5
			C96,90.9,94.7,90.5,93.8,90.2z M95.2,92.7l-0.3,3.2c-1.2-0.5-2.1-0.8-2.5-1c0-0.5,0.1-1.7,0.3-3c0.2,0.1,0.3,0.1,0.5,0.2
			C93.7,92.3,94.4,92.5,95.2,92.7z M88.4,95.1c0.2,0.3,0.3,0.9,0.3,1c-0.3,0.4-0.4,0.8-0.4,1.1c-1.6-0.7-1.6-1-1.7-2.3
			c0-0.3,0-0.5,0-0.9c0-0.5-0.5-1-1.1-0.9c-0.6,0-1,0.5-0.9,1.1c0,0.3,0,0.6,0,0.8c0.1,1.4,0.2,2.3,1.3,3.2
			c-0.5,0.1-1.2,0.2-1.9,0.2c0,0,0,0,0,0c-2-0.3-2-1.7-1.9-2.1c0.1-0.5-0.3-1-0.8-1.1C80.6,95,80.1,95.4,80,96
			c0,0.2-0.2,1.5,0.7,2.7c-0.3,0-0.7,0.1-1.1,0.1L79,98.9c-0.5,0.1-1.2,0.1-1.5-0.2c-0.2-0.2-0.6-0.9-0.2-3c0.3-1.9,0.9-2.3,4.1-4
			c0.6-0.3,1.3-0.7,2-1.1c2.7-1.5,4.9-1.6,5.7-1.6c0.5,0.9,1.2,1.4,1.4,1.5l0,0c0.1,0.1,0.2,0.2,0.3,0.3c-0.2,1.2-0.4,2.2-0.4,2.9
			l-0.9-0.2c-0.4-0.1-0.8,0.1-1,0.4C88.2,94.3,88.2,94.7,88.4,95.1z M123,101.1c-0.5,1.6-3.4,2.2-5.9,2c-3.9-0.5-14.3-4.1-20.4-6.4
			l0.4-3.3l6.5,1.7l10.9,2.6c0,0,0.1,0,0.1,0c0.2,0,0.3,0,0.5,0c1,0,1.7-0.3,2.1-1c0.9-1.7-1-4.5-4.7-9.1c-1.6-1.9-4-3.6-4.2-3.8
			c-1.5-2.5-3.3-4.7-5.1-6.8c2.8,0.9,7,2.9,11,6.8c3.1,3.1,5.5,6.2,7.4,9.5C122.7,95.3,123.9,98.4,123,101.1z M110.4,88.2
			c0.2,0.2,0.4,0.4,0.5,0.6c3.7,4.5,4.5,6.2,4.5,6.8c-0.1,0-0.3,0-0.6,0l-2.9-0.7c0-0.8-0.1-1.1-0.2-1.5l0-0.2
			C111.5,91.4,111,89.8,110.4,88.2z"/>
		<path class="st1" d="M84.8,44.2c-2.6-2-5.6-0.4-6.2,0c0,0,0,0,0,0.1c0,0.1,0.3,0.6,1.7,1.1c2.5,1,5.9,0.1,5.9,0.1l0,0
			C86.1,45.2,85.7,44.8,84.8,44.2z"/>
	</g>
</g>
</svg>
