<?xml version="1.0" encoding="utf-8"?>
<!-- Generator: Adobe Illustrator 25.2.1, SVG Export Plug-In . SVG Version: 6.00 Build 0)  -->
<svg version="1.1" xmlns="http://www.w3.org/2000/svg" xmlns:xlink="http://www.w3.org/1999/xlink" x="0px" y="0px"
	 viewBox="0 0 180 180" style="enable-background:new 0 0 180 180;" xml:space="preserve">
<style type="text/css">
	.st0{fill:none;}
	.st1{fill:#3E4FF7;}
	.st2{fill:#FFFFFF;}
	.st3{fill:none;stroke:#3E4FF7;stroke-width:2;stroke-linecap:round;}
	.st4{fill:none;stroke:#3E4FF7;stroke-width:2;}
	.st5{fill:none;stroke:#3E4FF7;stroke-width:2;stroke-miterlimit:10;}
	.st6{fill:none;stroke:#FFFFFF;stroke-width:2;stroke-linecap:round;}
	.st7{fill:none;stroke:#FFFFFF;stroke-linecap:round;}
	.st8{fill:none;stroke:#FFFFFF;}
	.st9{fill:#FFFFFF;stroke:#3E4FF7;stroke-width:2;stroke-linecap:round;}
	.st10{fill:none;stroke:#3E4FF7;stroke-miterlimit:10;}
	.st11{fill:none;stroke:#3E4FF7;stroke-linecap:round;stroke-miterlimit:10;}
	.st12{fill:none;stroke:#3E4FF7;stroke-linecap:round;stroke-linejoin:round;stroke-miterlimit:10;}
	.st13{fill:none;stroke:#3E4FF7;stroke-width:2;stroke-linecap:round;stroke-miterlimit:10;}
	.st14{fill:none;stroke:#3E4FF7;stroke-width:2;stroke-linecap:round;stroke-linejoin:round;stroke-miterlimit:10;}
	.st15{fill:none;stroke:#FFFFFF;stroke-width:2;stroke-miterlimit:10;}
	.st16{fill:none;stroke:#FFFFFF;stroke-width:2;stroke-linecap:round;stroke-miterlimit:10;}
	.st17{fill:none;stroke:#FFFFFF;stroke-linecap:round;stroke-miterlimit:10;}
	.st18{fill:#FFFFFF;stroke:#3E4FF7;stroke-width:2;stroke-miterlimit:10;}
	.st19{fill:none;stroke:#3E4FF7;stroke-width:2;stroke-linecap:square;stroke-miterlimit:10;}
	.st20{fill:none;stroke:#3E4FF7;stroke-width:2;stroke-linejoin:round;stroke-miterlimit:10;}
</style>
<g id="Ebene_1">
</g>
<g id="Ebene_2">
	<g>
		<path class="st1" d="M87.1,25.6c-6.8-4.3-13.3,2.4-15.2,4.5l-0.1,0.1c-0.2,0.2-0.4,0.5-0.6,0.8c-3.3,4.5-12.1,16.6-0.9,27.5
			c2.9,2.8,6,4.3,9.2,4.3c0.4,0,0.7,0,1.1-0.1c7.1-0.7,12.9-8.1,15-11.2c1.4-2.1,1.8-5,1-8.7C95.2,35.7,89.8,27.3,87.1,25.6z
			 M94,50.3c-2,2.9-7.2,9.7-13.5,10.3c-3,0.3-6-0.9-8.7-3.6c-9.9-9.7-2.5-20,1.1-24.9c0.2-0.3,0.4-0.5,0.6-0.8
			c2-2.4,7.3-7.4,12.5-4.1c2.1,1.3,7.3,9.1,8.7,16C95.3,46.3,95.1,48.7,94,50.3z"/>
		<path class="st1" d="M76.7,39.9c-1.2,0-2.2,1-2.2,2.2c0,1.2,1,2.2,2.2,2.2s2.2-1,2.2-2.2C78.9,40.8,77.9,39.9,76.7,39.9z M76.5,42
			c0-0.1,0.1-0.2,0.2-0.2s0.2,0.1,0.2,0.2C76.8,42.2,76.5,42.2,76.5,42z"/>
		<path class="st1" d="M128.2,60.1c0.6-1.2,1.1-2.4,1.6-3.7c7.5-20.7-4-43.9-25.6-51.7c-10.4-3.8-21.7-3.4-31.6,1
			c-10,4.4-17.5,12.4-21.1,22.4c-2.9,8.1-3,17.1-0.3,25.4c-0.6,0-1.1,0-1.6,0.1c-3.6,0.9-9.4,5-11,8.5c-0.6,1.5-0.4,2.5,0,3.1
			c1.6,2.9,4.7,4.3,7.4,5.6c2.5,1.2,4.7,2.2,5.3,4c-0.1,0-0.2,0.1-0.3,0.1c-1,0.3-2,0.6-2.1,1.5c-0.1,1.2,1.1,1.8,2,2.3
			c-5.3,18.3-6.7,30.7-4.2,36.7c0.5,1.2,1.5,2,2.7,2.1c0.1,0,0.3,0,0.4,0c5.1,0,14.3-8.9,25-24.1c3.1-4.4,6.6-4,6.7-4l0.6,0.1
			c0.2,3.9,0.5,8.5,0.7,13.7c0.5,8.9,1,13.7,0.9,15.8l-14.3,40.8c-0.4,0-0.6,0-0.8,0c-0.9,0-1.3,0.4-1.4,0.8
			c-0.2,0.6,0.1,1.1,0.4,1.5l-14.4,9.4l2.1,0.6c1.6,0.5,4.3,0.7,7.2,0.7c5.8,0,12.8-0.9,15.1-2.2c0.6-0.4,1-0.8,1.1-1.3
			c0.5-1.9-0.2-2.8-0.6-3.4c-0.2-0.3-0.3-0.4-0.3-0.6c0-0.2,0-0.5,0-0.8c0.1-0.1,0.2-0.2,0.3-0.3c0.8-0.9,1.1-3.1,0.8-3.8
			c-0.2-0.4-0.3-0.7-1.4-0.8c0,0,0-0.1,0.1-0.1c0.3-1.4,0.8-3,1.3-4.8c2.4-8.1,11.4-30.5,11.5-30.7c0,0,0,0,0-0.1c0.4,0,1,0.1,1.5,0
			c0.4,0.7,1.7,3.4,5.7,14.6l0.2,0.4c1.6,4.3,2.9,9.1,4.1,13.3c1.3,4.8,2.2,7.7,3,9.5c-0.1,0-0.2,0.1-0.3,0.1
			c-0.1,0.1-1.3,0.9-1.3,2.2c0,0.5,0.2,1.3,1.3,2c1.3,0.8,1.4,3.7,1.2,4.8c-0.2,1.3,0.1,3.3,0.1,3.3l0.1,0.4l0.3,0.3
			c0.2,0.1,4.4,3.3,9.8,3.3c0.1,0,0.2,0,0.2,0c0.1,0,10.3-0.2,11-1.9l0.2-0.7l-0.5-0.5c-0.4-0.4-9.2-7.3-12.9-10.3
			c0.5-0.9,0.6-2-0.2-2.8c-0.8-0.8-1.6-1.1-2.1-1.2c-0.9-4.8-5.2-17-5.8-18.6c-2-5.6-6.9-18.8-9.7-21.9c-0.4-4.9-0.1-6.5-0.8-16.3
			c-0.4-5.1-0.7-9.7-1-13.2c0.9,0.2,1.7,0.8,2.8,3.5c0.4,1.1,0.9,2.4,1.4,3.8c1.4,3.7,3.1,8.2,5.2,11.9
			c7.6,13.2,15.5,13.4,15.8,13.4c2.1,0,3.6-0.6,4.7-1.7c1.1-1.2,1.6-2.9,1.5-5.1c-0.3-6.9-3.3-14-5.1-18.3c-0.4-1-0.8-1.8-1-2.4
			c-1.4-4.1-1.8-6.8-2-8.2c0-0.4-0.1-0.7-0.1-0.9c0.7-0.6,1.6-1.5,2-2.6c0.3-0.9,0.2-1.6,0-2c-0.1-0.3-0.3-0.4-0.5-0.6
			c1.5-1.1,4.6-3.2,6.4-4.4c2.4-1.6,2.5-3.5,2.4-4.4c0.4-0.7,1.4-2.4,1.9-3.3c0.6-1.3-0.6-5.5-0.7-6
			C129.2,62.4,128.8,61.2,128.2,60.1z M53.4,28.8c3.4-9.5,10.5-17.1,20-21.2c9.5-4.2,20.2-4.5,30.1-0.9C124.1,14,135,36,127.9,55.7
			c-0.3,0.8-0.6,1.6-1,2.4c-0.3-0.3-0.5-0.5-0.8-0.7c-0.9-0.5-1.6-0.6-2.1-0.6c0.4-0.8,0.7-1.6,1-2.4c3.2-8.9,2.6-18.5-1.6-27.1
			c-4.2-8.6-11.6-15.1-20.7-18.5C83.8,2.1,63,11.4,56.4,29.7c-3.2,8.8-2.5,18.2,1.2,26.2c-0.1-0.1-0.2-0.1-0.4-0.1
			c-0.1,0-0.2,0-0.3,0c-1.1-0.7-2.3-1.4-3.4-1.8C50.6,45.8,50.5,36.9,53.4,28.8z M114,70c-1.6,1-1.6,2.1-1.4,2.7
			c0,0.2,0.1,0.4,0.1,0.6c0.1,0.6-0.1,1.2-0.7,1.6l-2.5,1.6c-8.3,3.2-21.9,5-32.2,1.3c-5.5-2-10.4-5-14.6-8.9c0.6-1.6,0.7-3,0.6-4.2
			c4,4.5,9.2,8.2,15.3,10.4c3.9,1.4,8,2.1,12.1,2.1c9.5,0,19-3.6,26.1-10.2c0.2,0.4,0.5,0.8,0.7,1.3c0,0,0,0,0,0
			c0,0.1,0.1,0.2,0.1,0.2C116.8,68.7,115.6,69,114,70z M107.9,80.8l0.4,1.5c0.2,0.8,0.2,1.6,0,1.8c-0.1,0.2-0.5,0.5-0.7,0.7
			c-0.2,0.2-0.4,0.3-0.5,0.5c-0.4,0.4-0.5,0.9-0.3,1.4c0.1,0.4,0.4,1.1,3.6,1.7c0.4,1.9,1.7,7.3,2.9,11.7c1.3,4.6,2.6,9.6,3.4,12.6
			c-0.9-1-1.9-2.1-2.7-2.9c-5.7-6.2-8.9-13.9-11.1-20c-1.6-4.4-5.7-5.7-8.4-5.8c0-1,0-1.8,0-2.2c4.8-0.3,9.5-1.2,13.3-2.5
			C107.7,79.8,107.7,80.3,107.9,80.8z M82.8,85.9c-0.3,0-0.5-0.2-0.5-0.5c0-0.3,0.2-0.5,0.5-0.5c0.3,0,0.5,0.2,0.5,0.5
			C83.4,85.7,83.1,85.9,82.8,85.9z M86.8,85.2c0,0.3-0.2,0.5-0.5,0.5c-0.3,0-0.5-0.2-0.5-0.5c0-0.3,0.2-0.5,0.5-0.5
			C86.6,84.7,86.8,84.9,86.8,85.2z M86.6,82.5c0-0.3,0.2-0.5,0.5-0.5c0.3,0,0.5,0.2,0.5,0.5c0,0.3-0.2,0.5-0.5,0.5
			C86.8,83,86.6,82.8,86.6,82.5z M86.8,90c0,0.3-0.2,0.5-0.5,0.5c-0.3,0-0.5-0.2-0.5-0.5c0-0.3,0.2-0.5,0.5-0.5
			C86.6,89.5,86.9,89.7,86.8,90z M86,98c0.3,0,0.6,0.3,0.6,0.6c0,0.3-0.3,0.6-0.6,0.6c-0.3,0-0.6-0.3-0.6-0.6
			C85.4,98.2,85.7,98,86,98z M85.3,103.5c0-0.3,0.2-0.5,0.5-0.5c0.3,0,0.5,0.2,0.5,0.5c0,0.3-0.2,0.5-0.5,0.5
			C85.5,104,85.3,103.8,85.3,103.5z M86.2,105.5c0.3,0,0.5,0.2,0.5,0.5c0,0.3-0.2,0.5-0.5,0.5c-0.3,0-0.5-0.2-0.5-0.5
			C85.6,105.7,85.9,105.5,86.2,105.5z M85,93.1c-0.2,0-0.4-0.2-0.4-0.5c0-0.2,0.2-0.4,0.5-0.4c0.2,0,0.4,0.2,0.4,0.5
			C85.4,92.9,85.2,93.1,85,93.1z M84.8,87.2c-0.3,0-0.5-0.2-0.5-0.5c0-0.3,0.2-0.5,0.5-0.5c0.3,0,0.5,0.2,0.5,0.5
			C85.3,87,85.1,87.2,84.8,87.2z M83.8,84.1c-0.4,0-0.7-0.3-0.7-0.7c0-0.4,0.3-0.7,0.7-0.7c0.4,0,0.7,0.3,0.7,0.7
			C84.5,83.8,84.2,84.1,83.8,84.1z M83.6,87.9c0.3,0,0.5,0.2,0.5,0.5c0,0.3-0.2,0.5-0.5,0.5c-0.3,0-0.5-0.2-0.5-0.5
			C83.1,88.1,83.3,87.9,83.6,87.9z M84.1,94.3c0.3,0,0.6,0.3,0.6,0.6c0,0.3-0.3,0.6-0.6,0.6c-0.3,0-0.6-0.3-0.6-0.6
			C83.5,94.6,83.8,94.3,84.1,94.3z M83.9,97.4c0.3,0,0.5,0.2,0.5,0.5c0,0.3-0.2,0.5-0.5,0.5c-0.3,0-0.5-0.2-0.5-0.5
			C83.4,97.6,83.6,97.4,83.9,97.4z M84.4,101c0-0.3,0.2-0.5,0.5-0.5c0.3,0,0.5,0.2,0.5,0.5c0,0.3-0.2,0.5-0.5,0.5
			C84.6,101.5,84.4,101.3,84.4,101z M84.7,106.1c0,0.2-0.2,0.4-0.4,0.4c-0.2,0-0.4-0.2-0.4-0.4c0-0.2,0.2-0.4,0.4-0.4
			C84.6,105.6,84.8,105.8,84.7,106.1z M85.2,115c0,0.2-0.2,0.4-0.4,0.4c-0.2,0-0.4-0.2-0.4-0.4s0.2-0.4,0.4-0.4
			C85,114.6,85.2,114.8,85.2,115z M84.3,111.3c-0.2,0-0.4-0.2-0.4-0.4c0-0.2,0.2-0.4,0.4-0.4c0.2,0,0.4,0.2,0.4,0.4
			C84.7,111.1,84.5,111.3,84.3,111.3z M85.7,109.5c0-0.3,0.2-0.5,0.5-0.5c0.3,0,0.5,0.2,0.5,0.5c0,0.3-0.2,0.5-0.5,0.5
			C85.9,110,85.7,109.7,85.7,109.5z M86.7,112.1c0.3,0,0.5,0.2,0.5,0.5c0,0.3-0.2,0.5-0.5,0.5c-0.3,0-0.5-0.2-0.5-0.5
			C86.2,112.3,86.4,112.1,86.7,112.1z M86.7,96.4c-0.3,0-0.5-0.2-0.5-0.5c0-0.3,0.2-0.5,0.5-0.5c0.3,0,0.5,0.2,0.5,0.5
			C87.2,96.2,86.9,96.4,86.7,96.4z M86.7,94.2c-0.3,0-0.5-0.2-0.5-0.5c0-0.3,0.2-0.5,0.5-0.5c0.3,0,0.5,0.2,0.5,0.5
			C87.2,93.9,87,94.2,86.7,94.2z M87.2,88.3c-0.3,0-0.5-0.2-0.5-0.5c0-0.3,0.2-0.5,0.5-0.5c0.3,0,0.5,0.2,0.5,0.5
			C87.7,88.1,87.5,88.3,87.2,88.3z M81.8,83.1C81.8,83.1,81.8,83.1,81.8,83.1c-0.3,0-5.6-0.4-9.9,4c-1.8,1.9-3.8,3.9-5.8,6
			c-4.4,4.6-10.2,10.6-12.6,12.5c0-4.5,1-18.8,3.3-25.4c0.2-0.1,0.7-0.2,1-0.2c0.8-0.2,1.4-0.3,1.7-0.7c0.6-0.8,1-2.2-0.5-3.7
			c0.3-0.6,0.8-2.3,0.3-4.1c0,0,0-0.1,0-0.1c0.6,0.1,1.2,0.1,1.9-0.2c0.2-0.1,0.4-0.2,0.5-0.4c4.3,4,9.4,7,15,9.1
			c1.6,0.6,3.3,1,5.1,1.4C81.8,81.7,81.8,82.4,81.8,83.1z M93.1,83c-0.3,0-0.5-0.2-0.5-0.5c0-0.3,0.2-0.5,0.5-0.5
			c0.3,0,0.5,0.2,0.5,0.5C93.6,82.8,93.3,83,93.1,83z M91.9,86.5c0-0.3,0.2-0.5,0.5-0.5c0.3,0,0.5,0.2,0.5,0.5
			c0,0.3-0.2,0.5-0.5,0.5C92.2,87,91.9,86.8,91.9,86.5z M92.4,94.6c0,0.3-0.2,0.5-0.5,0.5c-0.3,0-0.5-0.2-0.5-0.5
			c0-0.3,0.2-0.5,0.5-0.5C92.2,94.1,92.4,94.3,92.4,94.6z M92.3,84.7c-0.2,0-0.4-0.2-0.4-0.4c0-0.2,0.2-0.4,0.4-0.4
			c0.2,0,0.4,0.2,0.4,0.4C92.7,84.5,92.5,84.7,92.3,84.7z M92.1,91.6c0,0.3-0.2,0.5-0.5,0.5c-0.3,0-0.5-0.2-0.5-0.5
			c0-0.3,0.2-0.5,0.5-0.5C91.9,91.1,92.1,91.4,92.1,91.6z M91.6,98.8c0.3,0,0.5,0.2,0.5,0.5c0,0.3-0.2,0.5-0.5,0.5
			c-0.3,0-0.5-0.2-0.5-0.5C91.1,99,91.3,98.7,91.6,98.8z M91.7,97.7c0-0.3,0.3-0.6,0.6-0.6c0.3,0,0.6,0.3,0.6,0.6
			c0,0.3-0.3,0.6-0.6,0.6C91.9,98.3,91.7,98,91.7,97.7z M92.9,109.1c0-0.3,0.2-0.5,0.5-0.5c0.3,0,0.5,0.2,0.5,0.5
			c0,0.3-0.2,0.5-0.5,0.5C93.1,109.7,92.9,109.4,92.9,109.1z M93,112.6c0,0.3-0.2,0.5-0.5,0.5c-0.3,0-0.5-0.2-0.5-0.5
			c0-0.3,0.2-0.5,0.5-0.5C92.8,112,93,112.3,93,112.6z M93.1,105.1c-0.3,0-0.5-0.2-0.5-0.5c0-0.3,0.2-0.5,0.5-0.5
			c0.3,0,0.5,0.2,0.5,0.5S93.3,105.1,93.1,105.1z M88.9,110.4c0.3,0,0.5,0.2,0.5,0.5c0,0.3-0.2,0.5-0.5,0.5c-0.3,0-0.5-0.2-0.5-0.5
			C88.4,110.6,88.6,110.4,88.9,110.4z M88.2,107.9c-0.2,0-0.4-0.2-0.4-0.4c0-0.2,0.2-0.4,0.4-0.4c0.2,0,0.4,0.2,0.4,0.4
			C88.6,107.7,88.4,107.9,88.2,107.9z M88.5,105.6c-0.3,0-0.5-0.2-0.5-0.5c0-0.3,0.2-0.5,0.5-0.5c0.3,0,0.5,0.2,0.5,0.5
			C89.1,105.4,88.8,105.6,88.5,105.6z M88.5,100.8c-0.3,0-0.5-0.2-0.5-0.5c0-0.3,0.2-0.5,0.5-0.5c0.3,0,0.5,0.2,0.5,0.5
			C89,100.6,88.8,100.8,88.5,100.8z M88.8,97.5c0-0.3,0.2-0.5,0.5-0.5c0.3,0,0.5,0.2,0.5,0.5c0,0.3-0.2,0.5-0.5,0.5
			C89.1,98.1,88.8,97.8,88.8,97.5z M88.8,95.5c-0.3,0-0.6-0.3-0.6-0.6c0-0.3,0.3-0.6,0.6-0.6c0.3,0,0.6,0.3,0.6,0.6
			C89.5,95.3,89.2,95.5,88.8,95.5z M88.6,91.5c-0.3,0-0.5-0.2-0.5-0.5c0-0.3,0.2-0.5,0.5-0.5c0.3,0,0.5,0.2,0.5,0.5
			C89.1,91.3,88.9,91.5,88.6,91.5z M88.2,113.5c0.2,0,0.4,0.2,0.4,0.4c0,0.2-0.2,0.4-0.4,0.4c-0.2,0-0.4-0.2-0.4-0.4
			C87.8,113.7,88,113.5,88.2,113.5z M89.4,103.4c-0.3,0-0.5-0.2-0.5-0.5c0-0.3,0.2-0.5,0.5-0.5c0.3,0,0.5,0.2,0.5,0.5
			C89.9,103.1,89.7,103.4,89.4,103.4z M89.7,86.7c-0.3,0-0.5-0.2-0.5-0.5c0-0.3,0.2-0.5,0.5-0.5c0.3,0,0.5,0.2,0.5,0.5
			C90.2,86.5,90,86.7,89.7,86.7z M90.1,83.2c-0.3,0-0.6-0.3-0.6-0.6c0-0.3,0.3-0.6,0.6-0.6c0.3,0,0.6,0.3,0.6,0.6
			C90.7,82.9,90.4,83.2,90.1,83.2z M90.9,89c0.3,0,0.5,0.2,0.5,0.5c0,0.3-0.2,0.5-0.5,0.5c-0.3,0-0.5-0.2-0.5-0.5
			C90.4,89.2,90.6,89,90.9,89z M91,106.8c0.3,0,0.5,0.2,0.5,0.5c0,0.3-0.2,0.5-0.5,0.5c-0.3,0-0.5-0.2-0.5-0.5
			C90.5,107,90.7,106.8,91,106.8z M91.2,104.7c-0.2,0-0.4-0.2-0.4-0.4c0-0.2,0.2-0.4,0.4-0.4c0.2,0,0.4,0.2,0.4,0.4
			C91.6,104.5,91.4,104.7,91.2,104.7z M91.4,101.2c0-0.3,0.2-0.5,0.5-0.5c0.3,0,0.5,0.2,0.5,0.5c0,0.3-0.2,0.5-0.5,0.5
			C91.7,101.8,91.4,101.5,91.4,101.2z M93.9,96.8c-0.2,0-0.4-0.2-0.4-0.5c0-0.2,0.2-0.4,0.5-0.4c0.2,0,0.4,0.2,0.4,0.5
			C94.4,96.6,94.2,96.8,93.9,96.8z M93.6,93.1c-0.3,0-0.5-0.2-0.5-0.5c0-0.3,0.2-0.5,0.5-0.5c0.3,0,0.5,0.2,0.5,0.5
			C94.1,92.9,93.9,93.1,93.6,93.1z M93.5,90.3c-0.2,0-0.4-0.2-0.4-0.4c0-0.2,0.2-0.4,0.4-0.4c0.2,0,0.4,0.2,0.4,0.4
			C94,90.2,93.8,90.3,93.5,90.3z M115.8,65.4c-9.6,9.2-24.2,12.4-36.4,8c-17.9-6.5-27.3-25.7-21.1-42.9c6.2-17.2,25.8-26,43.7-19.5
			c8.7,3.1,15.6,9.3,19.6,17.4c4,8.1,4.5,17.2,1.5,25.5c-0.6,1.6-1.3,3.2-2.1,4.7c-0.1-0.1-0.3-0.2-0.4-0.3
			c-0.2-0.1-0.4-0.3-0.7-0.4c-1-0.6-2.3-0.6-3.6,0.2c-1.2,0.7-2.3,2.2-2.2,3.8C114.2,62.6,114.8,63.7,115.8,65.4z M56.4,78.1
			c-0.4,0.1-2.2-0.3-4-1c-0.2-0.1-0.3-0.2-0.5-0.3c-0.1,0-0.1-0.1-0.2-0.1c0.9-0.3,1.9-0.6,1.8-1.6c-0.4-3.4-3.5-4.8-6.6-6.2
			c-2.6-1.2-5.2-2.4-6.5-4.7c-0.2-0.4,0-0.9,0.1-1.3c1.3-2.9,6.5-6.6,9.6-7.3c1.1-0.3,2.4,0.1,3.7,0.7c-4.6,1.4-9.9,5.4-10.1,5.6
			c-0.4,0.3-0.5,1-0.2,1.4c0.2,0.3,0.5,0.4,0.8,0.4c0.2,0,0.4-0.1,0.6-0.2c2.1-1.6,7.8-5.4,11.4-5.7c1.2,0.9,2.3,1.9,3.1,2.8
			c-0.7-0.2-1.4-0.3-2.3-0.3c-5,0-9.3,5.6-9.4,5.8c-0.3,0.4-0.2,1.1,0.2,1.4c0.2,0.1,0.4,0.2,0.6,0.2c0.3,0,0.6-0.1,0.8-0.4
			c0,0,3.8-5,7.9-5c0,0,0.1,0,0.1,0c3.2,0,3.9,1.8,3.9,1.8c0.1,0.2,0.2,0.4,0.2,0.7c0.1,1.1,0.1,2.1-0.7,4l-0.2,0.3
			c-0.1,0-0.2,0.1-0.2,0.1c-0.5,0.2-0.7,0-0.7,0c-0.1,0-0.1-0.2-0.2-0.2l0-2c0,0,0-0.1,0-0.1c-0.1-0.5-0.3-0.9-0.7-1.1
			s-0.9-0.3-1.3-0.1l-4.7,1.6c-0.5,0.2-0.8,0.7-0.6,1.2c0.1,0.5,0.7,0.8,1.2,0.7c0,0,0.7-0.1,1.9,0.5c3.5,1.8,2.1,4.8,2,5.1
			c0,0.1,0,0.1-0.1,0.2L57,75.2l-0.1,0.5c0,0.5,0.3,0.9,0.6,1.1c0.7,0.6,0.7,0.8,0.6,1.1c-0.2,0-0.4,0.1-0.6,0.1 M57.5,67.8l0,1
			c-0.3-0.2-0.6-0.5-1-0.7L57.5,67.8z M81.9,87.4c-0.2,0-4.8-0.7-8.7,4.8c-11.6,16.6-20.2,23.6-23.6,23.2c-0.5-0.1-0.9-0.3-1.1-0.9
			c-2.3-5.6-0.8-17.4,4.2-35.2c0.6,0.2,1.3,0.4,2,0.5c-2.4,7.5-3.9,26.4-2.9,27.7c0.2,0.3,0.5,0.4,0.9,0.4c0,0,0,0,0,0
			c1.5,0,4.5-3,14.8-13.7c2-2.1,4-4.1,5.8-6c3.6-3.6,8.2-3.4,8.2-3.4c0.1,0,0.2,0,0.3,0c0,0.8,0.1,1.6,0.1,2.4L81.9,87.4z M83,91.4
			c-0.2,0-0.4-0.2-0.4-0.4c0-0.2,0.2-0.4,0.4-0.4c0.2,0,0.4,0.2,0.4,0.4C83.5,91.2,83.3,91.4,83,91.4z M83.4,103.2
			c0-0.3,0.2-0.5,0.5-0.5c0.3,0,0.5,0.2,0.5,0.5c0,0.3-0.2,0.5-0.5,0.5C83.6,103.7,83.4,103.5,83.4,103.2z M83.7,108.4
			c0-0.3,0.2-0.5,0.5-0.5c0.3,0,0.5,0.2,0.5,0.5c0,0.3-0.2,0.5-0.5,0.5C84,108.9,83.7,108.7,83.7,108.4z M77,168.8
			c-1.3,1.2-12.4,2.6-18.6,1.9l11.3-7.3c0.1,0,0.3-0.1,0.4-0.2c0,0,0.1-0.1,0.1-0.1l0.5-0.3l0.3-0.8c1.7-0.1,4.8-0.2,6.1-0.1
			c-0.1,0.4-0.2,0.9-0.3,1.2c0,0,0,0-0.1,0c0,0-0.1,0-0.1,0c-0.1,0-0.1,0.1-0.2,0.1c0,0-0.1,0.1-0.1,0.1c-0.1,0.1-0.1,0.2-0.2,0.2
			c0,0,0,0.1,0,0.1c0,0.1,0,0.1-0.1,0.2c0,0,0,0.1,0,0.1c0,0,0,0,0,0.1c0,0.1-0.1,1.1,0,1.9c0.1,0.7,0.4,1.1,0.7,1.5
			C77,167.6,77.2,167.9,77,168.8z M77,154.3c-0.5,1.8-1,3.5-1.3,4.9c0,0.2,0,0.4,0,0.5c-1,0-2.3,0-4.1,0.1l13-37.2
			c1.1,0.7,2.7,1.1,3.7,1.2C87.1,127.1,79.4,146.6,77,154.3z M90.3,112.6c-0.2,0-0.4-0.2-0.4-0.4s0.2-0.4,0.4-0.4
			c0.2,0,0.4,0.2,0.4,0.4C90.7,112.4,90.5,112.6,90.3,112.6z M90.5,110c0-0.3,0.2-0.5,0.5-0.5c0.3,0,0.5,0.2,0.5,0.5
			c0,0.3-0.2,0.5-0.5,0.5C90.7,110.4,90.5,110.2,90.5,110z M91.1,114.6c0-0.2,0.2-0.4,0.4-0.4c0.2,0,0.4,0.2,0.4,0.4
			c0,0.2-0.2,0.4-0.4,0.4C91.2,115,91.1,114.8,91.1,114.6z M112.3,166c4,3.1,9.6,7.6,12.2,9.6c-1.7,0.3-4.8,0.7-8.1,0.7
			c-3.9,0.1-7.4-1.9-8.4-2.6c-0.1-0.7-0.1-1.7,0-2.4c0,0,0.7-5-2.2-6.8c-0.3-0.2-0.4-0.3-0.4-0.3c0-0.1,0.2-0.3,0.4-0.5
			c0.1,0,0.1-0.1,0.2-0.2c0.3,0.2,0.6,0.4,0.9,0.4c0,0,0,0,0,0c3.3-0.1,4.4-0.2,4.9-0.8c0.2,0.1,0.5,0.2,0.8,0.5
			c0,0.1-0.2,0.6-0.5,0.9l-0.7,0.8L112.3,166z M110.1,161.7c-0.5,0.1-1.3,0.1-2.9,0.2c-0.8-0.9-2.1-5.7-3.3-9.9
			c-1.2-4.3-2.5-9.1-4.1-13.5l-0.2-0.4c-3.2-8.8-4.7-12.6-5.5-14.2c0.7-0.2,1.3-0.5,1.7-0.9C100.3,129.8,109.4,157.3,110.1,161.7z
			 M94,103.5c0-0.3,0.2-0.5,0.5-0.5c0.3,0,0.5,0.2,0.5,0.5c0,0.3-0.2,0.5-0.5,0.5C94.2,104,94,103.8,94,103.5z M95.6,113.5
			c0,0.2-0.2,0.4-0.4,0.4c-0.2,0-0.4-0.2-0.4-0.4c0-0.2,0.2-0.4,0.4-0.4C95.5,113.1,95.6,113.3,95.6,113.5z M95,111.5
			c-0.3,0-0.5-0.2-0.5-0.5c0-0.3,0.2-0.5,0.5-0.5c0.3,0,0.5,0.2,0.5,0.5C95.5,111.2,95.2,111.5,95,111.5z M95.4,107.1
			c0,0.2-0.2,0.4-0.4,0.4s-0.4-0.2-0.4-0.4c0-0.2,0.2-0.4,0.4-0.4C95.2,106.6,95.4,106.8,95.4,107.1z M95.2,101.6
			c0,0.3-0.2,0.5-0.5,0.5c-0.3,0-0.5-0.2-0.5-0.5c0-0.3,0.2-0.5,0.5-0.5C95,101.1,95.2,101.3,95.2,101.6z M94.9,99.3
			c0,0.2-0.2,0.4-0.4,0.4c-0.2,0-0.4-0.2-0.4-0.4c0-0.2,0.2-0.4,0.4-0.4C94.7,98.9,94.9,99.1,94.9,99.3z M118.3,96.6
			c0.2,0.6,0.6,1.5,1,2.5c1.7,4.2,4.6,11.1,4.9,17.6c0.1,1.7-0.3,2.9-1,3.6c-0.7,0.7-1.8,1.1-3.3,1.1c-0.1,0-7.1-0.1-14.1-12.3
			c-2-3.5-3.7-8-5-11.6c-0.5-1.4-1-2.7-1.5-3.8c-1.6-3.9-3.1-4.6-4.8-4.8c0-0.8-0.1-1.6-0.1-2.2c0-0.2,0-0.5,0-0.7
			c1.7,0.1,5.1,0.7,6.4,4.5c2.2,6.3,5.6,14.2,11.5,20.7c3.1,3.3,4.5,4.8,5.1,5.2c0.4,0.2,0.8,0.2,1.1,0c0.3-0.2,0.5-0.6,0.5-1
			c-0.1-1.7-3.6-14.3-4-15.8c-1.1-3.9-2.2-8.7-2.8-11c1.1,0.1,2.5,0,3.8-0.5C116.4,89.5,116.8,92.4,118.3,96.6z M118.2,83.4
			c-0.5,1.3-2,2.3-2,2.3l0,0c0,0-0.1,0-0.1,0c-1.3,1-3.8,0.8-4.7,0.6c-0.1,0-0.3,0-0.4,0c-0.6-0.1-1.3-0.2-1.7-0.3
			c0.3-0.2,0.5-0.5,0.7-0.7c0.8-1.2,0.4-3,0.3-3.5l-0.4-1.5c-0.2-0.7,0.1-1.5,0.7-1.9l2.5-1.6c0.7-0.4,1.1-1,1.4-1.8
			c0.2,0,0.4,0.1,0.6,0.1c0.2,0,0.5,0,0.7,0c0.1,0,0.2,0,0.3,0c0.1,0.2,0.2,0.6,0.3,1c0.1,0.5,0.5,0.8,1,0.8c0.1,0,0.2,0,0.2,0
			c0.5-0.1,0.9-0.7,0.7-1.2c-0.5-1.8-1-2.2-1.2-2.3c-0.4-0.2-0.9-0.2-1.5-0.2c-0.2,0-0.4,0-0.6,0c-0.2,0-0.4,0-0.5-0.2
			c-0.1-0.2-0.2-0.3-0.1-0.5c0,0,0.1-0.2,0.6-0.6c2.1-1.4,3.2-1.1,3.5-0.8c0.4,0.4,0.9,1.1,1.3,1.8c0.5,0.9,0.9,1.6,1,1.8
			c0.4,0.7,0.8,2.4,0.5,3.1c0,0.1-0.1,0.3-0.2,0.3c-1.9,1.3-3.7,2.6-3.7,2.6c-0.1,0.1-0.2,0.2-0.3,0.4c-0.1,0.1-1.4,2.5-3.9,2.4
			c-0.6,0-1,0.4-1.1,1c0,0.6,0.4,1,1,1.1c0.1,0,0.2,0,0.3,0c2.4,0,4-1.5,4.8-2.5l0,0.2C118.3,83.1,118.3,83.2,118.2,83.4z
			 M124.9,75.5c-0.4,0.3-0.9,0.6-1.4,0.9c-0.1-1.3-0.6-2.6-0.8-2.9c-0.1-0.1-0.2-0.4-0.5-0.9c-0.1-0.2-0.3-0.6-0.5-1
			c-1.3-2.4-3.5-6.3-3.5-6.3l0,0c-0.2-0.4-0.4-0.8-0.7-1.1c-0.6-1-1.4-2.3-1.4-2.7c-0.1-0.6,0.5-1.4,1.2-1.9c0.4-0.3,1-0.4,1.4-0.2
			c0.2,0.1,0.4,0.2,0.6,0.4c1.2,1,2.3,2.6,2.3,2.6c0.1,0.1,0.2,0.3,0.5,0.8l2.2,4.5l2,4.8c0,0.1,0.2,0.4,0.2,0.6
			C126.5,73.2,126.6,74.4,124.9,75.5z M126.2,60.6c1.4,2.5,2.4,7.2,2.2,8.1c-0.2,0.4-0.6,1.1-0.9,1.7l-1.4-3.5l-2.7-5.6
			c0-1,0.2-2.2,0.6-2.4c0.2-0.1,0.6,0,1.1,0.3c0.3,0.2,0.6,0.5,0.8,0.9"/>
	</g>
</g>
</svg>
