<svg xmlns="http://www.w3.org/2000/svg" viewBox="0 0 305.7 188.05"><defs><style>.cls-1{fill:#fff;}</style></defs><g id="Ebene_1" data-name="Ebene 1"><path d="M17.68,177.72H0V147H17.68v5.34H6.51v6.74H16.9v5.33H6.51v7.91H17.68Z"/><path d="M29.16,177.72l-8.94-23.47h6.7l4.53,13.37a18.35,18.35,0,0,1,.6,2.48c.15.87.25,1.64.3,2.33h.17a18,18,0,0,1,.31-2.37,17.46,17.46,0,0,1,.64-2.44L38,154.25h6.7l-9,23.47Z"/><path d="M57.72,153.81a11.78,11.78,0,0,1,5.6,1.24A8.73,8.73,0,0,1,67,158.68a12.08,12.08,0,0,1,1.28,5.79v3.11H53.1a6.14,6.14,0,0,0,1.63,4.25A5.65,5.65,0,0,0,59,173.37a17,17,0,0,0,4.11-.46,21.21,21.21,0,0,0,3.84-1.38v4.95a15.54,15.54,0,0,1-3.64,1.26,22.51,22.51,0,0,1-4.61.4,14.24,14.24,0,0,1-6.24-1.3,9.63,9.63,0,0,1-4.27-4,13.36,13.36,0,0,1-1.54-6.72A15,15,0,0,1,48,159.3a9.47,9.47,0,0,1,3.89-4.12A11.86,11.86,0,0,1,57.72,153.81Zm0,4.55a4.25,4.25,0,0,0-3.1,1.2,5.63,5.63,0,0,0-1.41,3.76h9a6.32,6.32,0,0,0-.51-2.54A4.06,4.06,0,0,0,60.25,159,4.43,4.43,0,0,0,57.76,158.36Z"/><path d="M86.78,153.81a8.73,8.73,0,0,1,6,2c1.53,1.37,2.29,3.55,2.29,6.56v15.31h-6.4V164a6.51,6.51,0,0,0-.92-3.8,3.27,3.27,0,0,0-2.86-1.28c-2,0-3.3.66-4,2a12.48,12.48,0,0,0-1.07,5.76v11H73.44V154.25h4.9l.86,3h.35a6.6,6.6,0,0,1,1.88-2,8.19,8.19,0,0,1,2.5-1.11A11.24,11.24,0,0,1,86.78,153.81Z"/><path d="M111.59,173a9.9,9.9,0,0,0,2-.21,20.15,20.15,0,0,0,2-.53v4.77a12.44,12.44,0,0,1-2.56.77,17.14,17.14,0,0,1-3.32.3,10,10,0,0,1-3.77-.68,5.34,5.34,0,0,1-2.63-2.37,9.76,9.76,0,0,1-.95-4.72V159.05H99.33v-2.7l3.53-2.15,1.85-4.95h4.09v5h6.57v4.8H108.8v11.32a2.51,2.51,0,0,0,.77,2A3,3,0,0,0,111.59,173Z"/><path d="M127.28,177.72h-6.4V147h17.59v5.34H127.28v7.91h10.41v5.31H127.28Z"/><path d="M153.59,153.76q4.72,0,7.24,2.06t2.52,6.26v15.64h-4.47l-1.24-3.19h-.17a12.14,12.14,0,0,1-2.06,2.06,7,7,0,0,1-2.41,1.17,12.69,12.69,0,0,1-3.32.38,8.43,8.43,0,0,1-3.72-.8,5.89,5.89,0,0,1-2.6-2.44,8.36,8.36,0,0,1-.94-4.19A6.18,6.18,0,0,1,145,165.2c1.75-1.19,4.38-1.84,7.88-2l4.07-.12v-1a3.43,3.43,0,0,0-1-2.71,3.91,3.91,0,0,0-2.69-.86A11.76,11.76,0,0,0,150,159a25.1,25.1,0,0,0-3.28,1.22l-2.12-4.33a18.67,18.67,0,0,1,4.19-1.55A20.09,20.09,0,0,1,153.59,153.76Zm3.4,13.08-2.48.09c-2.07,0-3.51.42-4.31,1.11a3.38,3.38,0,0,0-1.21,2.71,2.41,2.41,0,0,0,.86,2.09,3.77,3.77,0,0,0,2.25.62,5.14,5.14,0,0,0,3.47-1.22,4.3,4.3,0,0,0,1.42-3.46Z"/><path d="M176.35,145.05v6.66c0,1.16,0,2.26-.12,3.31s-.14,1.79-.18,2.23h.34a7,7,0,0,1,1.79-2,7.42,7.42,0,0,1,2.3-1.11,9.86,9.86,0,0,1,2.71-.35,10.21,10.21,0,0,1,4.43.89,6.4,6.4,0,0,1,2.94,2.79,10.14,10.14,0,0,1,1.05,4.92v15.31h-6.4V164a6.43,6.43,0,0,0-.93-3.8,3.29,3.29,0,0,0-2.85-1.28,4.79,4.79,0,0,0-3.05.89,4.87,4.87,0,0,0-1.57,2.63,16.51,16.51,0,0,0-.46,4.23v11h-6.41V145.05Z"/><path d="M211.3,153.81c.33,0,.7,0,1.13.05a9.43,9.43,0,0,1,1,.13l-.49,6a4.36,4.36,0,0,0-.89-.16c-.38,0-.71-.05-1-.05a9.19,9.19,0,0,0-2.4.31,6,6,0,0,0-2.09,1,5,5,0,0,0-1.46,1.85,6.69,6.69,0,0,0-.53,2.8v11.95H198.2V154.25h4.85l.95,3.94h.31A10.3,10.3,0,0,1,206,156a8.58,8.58,0,0,1,2.38-1.6A7.1,7.1,0,0,1,211.3,153.81Z"/><path d="M230.79,153.81a7.78,7.78,0,0,1,6.41,3.08q2.45,3.09,2.45,9.05a17.37,17.37,0,0,1-1.15,6.71,9.14,9.14,0,0,1-3.2,4.1,8.07,8.07,0,0,1-4.68,1.39,8.73,8.73,0,0,1-2.92-.43,7.46,7.46,0,0,1-2.08-1.11,9.83,9.83,0,0,1-1.49-1.46h-.33c.11.56.19,1.13.25,1.72a16.89,16.89,0,0,1,.08,1.72v9.47h-6.4v-33.8h5.21l.9,3h.29a8.67,8.67,0,0,1,1.54-1.74,6.72,6.72,0,0,1,2.17-1.27A8.34,8.34,0,0,1,230.79,153.81Zm-2.06,5.12a4.54,4.54,0,0,0-2.66.69,3.92,3.92,0,0,0-1.44,2.08,12.35,12.35,0,0,0-.5,3.51v.69a15.07,15.07,0,0,0,.43,3.84,4.45,4.45,0,0,0,1.45,2.39,4.35,4.35,0,0,0,2.81.82,3.54,3.54,0,0,0,2.41-.82,5,5,0,0,0,1.42-2.4,13.93,13.93,0,0,0,.47-3.87,10.1,10.1,0,0,0-1.07-5.19A3.63,3.63,0,0,0,228.73,158.93Z"/><path d="M251.34,177.72h-6.4V145.05h6.4Z"/><path d="M267.68,153.76q4.72,0,7.24,2.06t2.52,6.26v15.64H273l-1.24-3.19h-.17a12.1,12.1,0,0,1-2.05,2.06,7.07,7.07,0,0,1-2.42,1.17,12.64,12.64,0,0,1-3.32.38,8.46,8.46,0,0,1-3.72-.8,5.89,5.89,0,0,1-2.6-2.44,8.36,8.36,0,0,1-.94-4.19,6.18,6.18,0,0,1,2.62-5.51c1.75-1.19,4.38-1.84,7.88-2l4.07-.12v-1a3.43,3.43,0,0,0-1-2.71,3.9,3.9,0,0,0-2.68-.86,11.78,11.78,0,0,0-3.34.48,25.65,25.65,0,0,0-3.28,1.22l-2.12-4.33a18.67,18.67,0,0,1,4.19-1.55A20.09,20.09,0,0,1,267.68,153.76Zm3.4,13.08-2.48.09c-2.07,0-3.51.42-4.31,1.11a3.38,3.38,0,0,0-1.21,2.71,2.41,2.41,0,0,0,.86,2.09,3.79,3.79,0,0,0,2.25.62,5.14,5.14,0,0,0,3.47-1.22,4.3,4.3,0,0,0,1.42-3.46Z"/><path d="M297.37,153.81a8.73,8.73,0,0,1,6,2c1.53,1.37,2.29,3.55,2.29,6.56v15.31h-6.4V164a6.52,6.52,0,0,0-.91-3.8,3.3,3.3,0,0,0-2.87-1.28q-2.94,0-4,2a12.48,12.48,0,0,0-1.07,5.76v11H284V154.25h4.89l.86,3h.35a6.72,6.72,0,0,1,1.88-2,8.3,8.3,0,0,1,2.5-1.11A11.24,11.24,0,0,1,297.37,153.81Z"/><path d="M84.9,119.37a18.69,18.69,0,0,1-18.53-18.53V20.41A18.68,18.68,0,0,1,84.89,1.88h135.9A18.68,18.68,0,0,1,239.33,20.4v80.43a18.55,18.55,0,0,1-18.5,18.54Z"/><path class="cls-1" d="M88.39,21.47h21a2.88,2.88,0,0,1,2.88,2.88V35.56a2.89,2.89,0,0,1-2.88,2.88h-21a2.88,2.88,0,0,1-2.88-2.88h0V24.35a3,3,0,0,1,2.88-2.88"/><path class="cls-1" d="M118.68,50.86h22.71a2.86,2.86,0,0,1,2.88,2.86h0V64.94a2.88,2.88,0,0,1-2.88,2.88H118.68A2.88,2.88,0,0,1,115.79,65V53.73a2.87,2.87,0,0,1,2.87-2.87h0"/><path class="cls-1" d="M88.39,57.37h21a2.88,2.88,0,0,1,2.93,2.83V70.9a2.87,2.87,0,0,1-2.88,2.87h-21a2.88,2.88,0,0,1-2.88-2.86h0V60.3a3,3,0,0,1,2.88-2.88"/><path class="cls-1" d="M118.68,82.51h22.71a2.86,2.86,0,0,1,2.88,2.86V96.9a2.87,2.87,0,0,1-2.87,2.87H118.68a2.88,2.88,0,0,1-2.89-2.85V85.39a3,3,0,0,1,2.88-2.88"/><path class="cls-1" d="M164.57,77.66h20.59A2.86,2.86,0,0,1,188,80.52v4.11a2.88,2.88,0,0,1-2.88,2.88H164.57a2.88,2.88,0,0,1-2.88-2.88V80.54a3,3,0,0,1,2.88-2.88"/><path class="cls-1" d="M164.57,39.65h20.59A2.86,2.86,0,0,1,188,42.51v6.07a2.87,2.87,0,0,1-2.86,2.88H164.57a2.88,2.88,0,0,1-2.88-2.86V42.53a2.87,2.87,0,0,1,2.86-2.88h0"/><path class="cls-1" d="M194.4,21.47h23a2.88,2.88,0,0,1,2.88,2.88h0V35.56a2.88,2.88,0,0,1-2.88,2.88h-23a2.89,2.89,0,0,1-2.88-2.88V24.35a2.8,2.8,0,0,1,2.72-2.88h.16"/><path class="cls-1" d="M88.39,78.12h21A2.87,2.87,0,0,1,112.27,81V96.9a2.87,2.87,0,0,1-2.88,2.87h-21a2.88,2.88,0,0,1-2.88-2.86h0V81a3,3,0,0,1,2.88-2.87"/><path class="cls-1" d="M164.57,21.47h20.59A2.88,2.88,0,0,1,188,24.35V33.3a2.87,2.87,0,0,1-2.87,2.87h-20.6a2.88,2.88,0,0,1-2.88-2.86h0V24.35a2.88,2.88,0,0,1,2.88-2.88"/><path class="cls-1" d="M194.4,53.43h23a2.86,2.86,0,0,1,2.9,2.84V67.5a2.87,2.87,0,0,1-2.86,2.88h-23a2.88,2.88,0,0,1-2.88-2.88V56.3a2.79,2.79,0,0,1,2.7-2.88h.18"/><path class="cls-1" d="M164.57,91.14h20.59A2.86,2.86,0,0,1,188,94v3a2.88,2.88,0,0,1-2.88,2.88H164.57A2.88,2.88,0,0,1,161.69,97V94a2.78,2.78,0,0,1,2.68-2.88h.2"/><path class="cls-1" d="M88.39,42.07h21A2.88,2.88,0,0,1,112.27,45h0V50.7a2.88,2.88,0,0,1-2.88,2.88h-21a2.88,2.88,0,0,1-2.88-2.86V45a2.87,2.87,0,0,1,2.86-2.88h0"/><path class="cls-1" d="M118.68,21.47h22.87a2.87,2.87,0,0,1,2.87,2.88V35.56a2.88,2.88,0,0,1-2.87,2.88H118.68a2.89,2.89,0,0,1-2.89-2.87h0V24.35a2.88,2.88,0,0,1,2.88-2.88h0"/><path class="cls-1" d="M164.57,54.94h20.59A2.88,2.88,0,0,1,188,57.82V71.3a2.87,2.87,0,0,1-2.86,2.88H164.57a2.88,2.88,0,0,1-2.88-2.86V57.82a2.79,2.79,0,0,1,2.7-2.88h.18"/></g></svg>