<svg xmlns="http://www.w3.org/2000/svg" viewBox="0 0 170.08 115.56"><defs><style>.cls-1{fill:#020a0a;}.cls-2{fill:#ffed00;}.cls-3{fill:#e6007e;}.cls-4{fill:#009fe3;}</style></defs><g id="Ebene_1" data-name="Ebene 1"><rect class="cls-1" width="170.08" height="115.56" rx="18.23"/><path class="cls-2" d="M21.65,19.26H42.31a2.82,2.82,0,0,1,2.83,2.81v11A2.82,2.82,0,0,1,42.37,36H21.7a2.83,2.83,0,0,1-2.83-2.83h0v-11a2.94,2.94,0,0,1,2.78-2.84"/><path class="cls-2" d="M51.44,48.17H73.79A2.83,2.83,0,0,1,76.62,51V62a2.81,2.81,0,0,1-2.81,2.83H51.44A2.83,2.83,0,0,1,48.61,62V51a2.83,2.83,0,0,1,2.83-2.83h0"/><path class="cls-3" d="M21.65,54.57H42.31a2.84,2.84,0,0,1,2.83,2.81V67.83a2.82,2.82,0,0,1-2.81,2.83H21.65a2.83,2.83,0,0,1-2.83-2.83V57.4a3,3,0,0,1,2.83-2.83"/><path class="cls-3" d="M51.44,79.26H73.79a2.83,2.83,0,0,1,2.83,2.83V93.45a2.83,2.83,0,0,1-2.81,2.84H51.44a2.84,2.84,0,0,1-2.83-2.84V82.13a3,3,0,0,1,2.83-2.87"/><path class="cls-3" d="M96.58,74.54h20.26a2.83,2.83,0,0,1,2.84,2.82v4a2.84,2.84,0,0,1-2.84,2.79H96.58a2.83,2.83,0,0,1-2.83-2.83v-4a3,3,0,0,1,2.83-2.82"/><path class="cls-3" d="M96.58,37.14h20.26A2.84,2.84,0,0,1,119.68,40v6a2.85,2.85,0,0,1-2.84,2.83H96.58a2.84,2.84,0,0,1-2.83-2.83V40a2.84,2.84,0,0,1,2.83-2.83"/><path class="cls-2" d="M125.93,19.26h22.63a2.83,2.83,0,0,1,2.83,2.83h0v11A2.83,2.83,0,0,1,148.6,36H126a2.82,2.82,0,0,1-2.83-2.81V22.1a2.73,2.73,0,0,1,2.62-2.84h.19"/><path class="cls-2" d="M21.65,75H42.31a2.84,2.84,0,0,1,2.83,2.81V93.45a2.84,2.84,0,0,1-2.81,2.84H21.65a2.84,2.84,0,0,1-2.83-2.84V77.81A3,3,0,0,1,21.65,75"/><path class="cls-4" d="M96.58,19.26h20.26a2.84,2.84,0,0,1,2.84,2.83v8.79a2.84,2.84,0,0,1-2.84,2.83H96.58a2.83,2.83,0,0,1-2.83-2.83V22.1a2.83,2.83,0,0,1,2.82-2.84h0"/><path class="cls-4" d="M125.93,50.74h22.63a2.84,2.84,0,0,1,2.83,2.83v11a2.85,2.85,0,0,1-2.83,2.83H125.93a2.83,2.83,0,0,1-2.83-2.81v-11a2.75,2.75,0,0,1,2.69-2.8h.14"/><path class="cls-4" d="M96.58,87.8h20.26a2.83,2.83,0,0,1,2.84,2.82v2.95a2.84,2.84,0,0,1-2.84,2.84H96.58a2.84,2.84,0,0,1-2.83-2.84V90.62a2.75,2.75,0,0,1,2.66-2.82h.17"/><path class="cls-4" d="M21.65,39.53H42.31a2.84,2.84,0,0,1,2.83,2.82h0V48a2.83,2.83,0,0,1-2.83,2.83H21.65A2.83,2.83,0,0,1,18.82,48V42.35a2.83,2.83,0,0,1,2.83-2.82"/><path class="cls-4" d="M51.44,19.26h22.5a2.81,2.81,0,0,1,2.83,2.81v11A2.82,2.82,0,0,1,74,36H51.44a2.83,2.83,0,0,1-2.83-2.83h0v-11a2.83,2.83,0,0,1,2.82-2.84h0"/><path class="cls-2" d="M96.58,52.19h20.26A2.84,2.84,0,0,1,119.68,55V68.28a2.84,2.84,0,0,1-2.84,2.83H96.58a2.83,2.83,0,0,1-2.83-2.83V55a2.75,2.75,0,0,1,2.65-2.83h.18"/></g></svg>